<svg xmlns="http://www.w3.org/2000/svg" xmlns:xlink="http://www.w3.org/1999/xlink" width="358" height="208.292" viewBox="0 0 358 208.292">
  <defs>
    <filter id="Path_328" x="0" y="0" width="358" height="208.292" filterUnits="userSpaceOnUse">
      <feOffset dy="2" input="SourceAlpha"/>
      <feGaussianBlur stdDeviation="1" result="blur"/>
      <feFlood flood-opacity="0.239"/>
      <feComposite operator="in" in2="blur"/>
      <feComposite in="SourceGraphic"/>
    </filter>
  </defs>
  <g id="info-card" transform="translate(-463 -232)">
    <g transform="matrix(1, 0, 0, 1, 463, 232)" filter="url(#Path_328)">
      <g id="Path_328-2" data-name="Path 328" transform="translate(3 1)" fill="rgba(127,189,131,0.05)">
        <path d="M7.2,0H344.8c3.978,0,7.2,2.765,7.2,6.177V196.115c0,3.411-3.224,6.177-7.2,6.177H7.2c-3.978,0-7.2-2.765-7.2-6.177V6.177C0,2.765,3.224,0,7.2,0Z" stroke="none"/>
        <path d="M 7.202056884765625 1 C 3.7822265625 1 1 3.322311401367188 1 6.176864624023438 L 1 196.1153106689453 C 1 198.9698638916016 3.7822265625 201.2921752929688 7.202056884765625 201.2921752929688 L 344.7979431152344 201.2921752929688 C 348.2177734375 201.2921752929688 351 198.9698638916016 351 196.1153106689453 L 351 6.176864624023438 C 351 3.322311401367188 348.2177734375 1 344.7979431152344 1 L 7.202056884765625 1 M 7.202056884765625 0 L 344.7979431152344 0 C 348.7755126953125 0 352 2.765457153320312 352 6.176864624023438 L 352 196.1153106689453 C 352 199.5266723632812 348.7755126953125 202.2921752929688 344.7979431152344 202.2921752929688 L 7.202056884765625 202.2921752929688 C 3.224456787109375 202.2921752929688 0 199.5266723632812 0 196.1153106689453 L 0 6.176864624023438 C 0 2.765457153320312 3.224456787109375 0 7.202056884765625 0 Z" stroke="none" fill="rgba(204,204,204,0.2)"/>
      </g>
    </g>
    <g id="Group_108" data-name="Group 108" transform="translate(2 -3.464)">
      <g id="undraw_queue_j-6-ij" transform="translate(544.687 305.137)">
        <path id="Path_110" data-name="Path 110" d="M754.762,166.077s.387.443-.276,1.3-.128,2.717,1.131,2.764,1.868.574,1.565,1.268-.668,2.343.7,2.093,1.8.295,1.561.714.611-.834.611-.834.763,1.137,1.7.341,1.31-8.014-.6-8.136A48.69,48.69,0,0,0,754.762,166.077Z" transform="translate(-643.325 -162.244)" fill="#2f2e41"/>
        <path id="Path_111" data-name="Path 111" d="M661.864,206.566l.435,3.047h1.959l-.653-3.483Z" transform="translate(-540.742 -168.409)" fill="#9f616a"/>
        <path id="Path_112" data-name="Path 112" d="M799.862,362.441s2.612,2.394,1.959,2.612-3.047,2.83-3.483,3.047c-.389.195-4.571,1.524-3.918,0a5.726,5.726,0,0,1,2.177-2.394l.435-2.612Z" transform="translate(-676.128 -323.086)" fill="#f2f2f2"/>
        <path id="Path_113" data-name="Path 113" d="M799.862,362.441s2.612,2.394,1.959,2.612-3.047,2.83-3.483,3.047c-.389.195-4.571,1.524-3.918,0a5.726,5.726,0,0,1,2.177-2.394l.435-2.612Z" transform="translate(-676.128 -323.086)" opacity="0.1"/>
        <path id="Path_114" data-name="Path 114" d="M676.138,194.076l.435,3.048h1.959l-.653-3.483Z" transform="translate(-552.404 -158.205)" fill="#9f616a"/>
        <path id="Path_115" data-name="Path 115" d="M779.734,231.053l2.853-9.433s-4.789-4.353-1.524-5.66,4.136,5.224,4.136,5.224L784.11,232.5h-4.353Z" transform="translate(-664.186 -203.27)" fill="#ffb8b8"/>
        <path id="Path_116" data-name="Path 116" d="M794.441,261.336s-5.626,7.216-4.772,8.288,2.378,7.6,2.378,7.6-.218,2.612.653,2.612,3.047-.435,3.047-1.088-1.959-8.925-1.959-8.925l5.659-7.4Z" transform="translate(-672.231 -240.484)" fill="#2d5986"/>
        <path id="Path_117" data-name="Path 117" d="M805.265,250.11l5.66-3.047s3.918,1.959,2.83,3.7-6.095,6.313-6.095,6.313,1.524,7.4,1.306,7.619a7.212,7.212,0,0,1-3.265.871c-.653-.218-4.136-8.707-3.265-9.142s3.7-5.007,3.7-5.007Z" transform="translate(-682.619 -228.822)" fill="#2d5986"/>
        <path id="Path_118" data-name="Path 118" d="M714.614,697.335a39.132,39.132,0,0,0,4.354,2.394c.435,0,6.313,1.524,3.7,2.612s-12.625-.435-12.408-1.088,0-4.571.435-4.571S714.614,697.335,714.614,697.335Z" transform="translate(-607.423 -596.161)" fill="#2f2e41"/>
        <path id="Path_119" data-name="Path 119" d="M738.4,713.988a39.119,39.119,0,0,0,4.354,2.394c.435,0,6.313,1.524,3.7,2.612s-12.625-.435-12.407-1.088,0-4.571.435-4.571S738.4,713.988,738.4,713.988Z" transform="translate(-626.859 -609.766)" fill="#2f2e41"/>
        <path id="Path_120" data-name="Path 120" d="M715.114,453.074a31.061,31.061,0,0,0,1.741,5.66c1.088,2.394-.218,13.713-.871,15.455s-6.966,22.42-5.006,22.638a49.626,49.626,0,0,0,5.877,0l6.313-19.808-1.088-26.556Z" transform="translate(-607.706 -394.999)" fill="#575a88"/>
        <path id="Path_121" data-name="Path 121" d="M715.114,453.074a31.061,31.061,0,0,0,1.741,5.66c1.088,2.394-.218,13.713-.871,15.455s-6.966,22.42-5.006,22.638a49.626,49.626,0,0,0,5.877,0l6.313-19.808-1.088-26.556Z" transform="translate(-607.706 -394.999)" opacity="0.1"/>
        <path id="Path_122" data-name="Path 122" d="M728.5,450.178s.871,5.877,2.83,7.183,1.306,2.612,1.306,2.612l-.871,11.537s-8.489,20.9-5.877,23.509,5.006,1.524,6.095,1.306,3.047-4.789,1.959-6.095,2.177-9.142,3.047-10.448,0-3.047,1.088-3.483,3.483-3.265,3.483-5.224,3.047-22.856,1.088-24.162-14.516,2.7-14.516,2.7Z" transform="translate(-619.787 -391.886)" fill="#575a88"/>
        <circle id="Ellipse_9" data-name="Ellipse 9" cx="4.789" cy="4.789" r="4.789" transform="translate(99.79 18.24)" fill="#ffb8b8"/>
        <circle id="Ellipse_10" data-name="Ellipse 10" cx="3.918" cy="3.918" r="3.918" transform="translate(111.544 1.697)" fill="#9f616a"/>
        <path id="Path_123" data-name="Path 123" d="M720.005,273.231s2.612,4.789,3.918,4.789-5.224,5.007-5.224,5.007-2.177-6.313-2.612-6.53S720.005,273.231,720.005,273.231Z" transform="translate(-612.161 -250.201)" fill="#ffb8b8"/>
        <path id="Path_124" data-name="Path 124" d="M711.173,291.189s-5.659,1.959-5.442,2.612-1.524,2.177-1.524,2.83-.435,6.53,2.177,11.319,6.748,8.272,4.789,10.448-5.006,5.877-1.741,5.877,8.489-4.789,13.278-3.047,3.7-4.789,3.7-4.789.653-5.007-.653-6.53S719.88,297.5,719.88,296.2s-4.353-6.313-5.442-6.313A9.808,9.808,0,0,0,711.173,291.189Z" transform="translate(-602.459 -263.807)" fill="#8985a8"/>
        <path id="Path_125" data-name="Path 125" d="M779.265,191.157" transform="translate(-663.803 -183.148)" fill="none" stroke="#2f2e41" stroke-width="1"/>
        <path id="Path_126" data-name="Path 126" d="M785.213,180.467a37.181,37.181,0,0,1,1.866,3.971c.093.6,3.141-3.971,3.141-3.971l-3.483-2.394Z" transform="translate(-668.662 -172.458)" fill="#9f616a"/>
        <path id="Path_127" data-name="Path 127" d="M786.622,187.938l3.7-3.918,4.353,1.959s4.06,8.925,4.316,9.578-6.492,3.7-7.145,3.7-5.224-6.748-5.224-6.748S785.533,189.244,786.622,187.938Z" transform="translate(-669.418 -177.317)" fill="#f2f2f2"/>
        <path id="Path_128" data-name="Path 128" d="M630.938,86.589v3.918h2.612l-.859-3.918Z" transform="translate(-515.476 -70.743)" fill="#9f616a"/>
        <path id="Path_129" data-name="Path 129" d="M780.216,250.035a1.623,1.623,0,0,0-1.533,1.031c-.17.46-.112.944.7,1.146,1.741.435,1.959,0,1.959,0s3.023-.435,2.382-1.306-2.382-.871-2.382-.871Z" transform="translate(-663.263 -231.251)" fill="#9f616a"/>
        <path id="Path_130" data-name="Path 130" d="M814.136,352.925s2.612,2.394,1.959,2.612-3.047,2.83-3.483,3.047c-.389.195-4.571,1.524-3.918,0a5.725,5.725,0,0,1,2.177-2.394l.435-2.612Z" transform="translate(-687.79 -315.312)" fill="#f2f2f2"/>
        <path id="Path_131" data-name="Path 131" d="M684.784,246.734c.3-.176.653-.394.662-.741a.656.656,0,0,0-.43-.576,1.927,1.927,0,0,0-.752-.1.978.978,0,0,0-.291.029c-.248.076-.391.328-.586.5a2.449,2.449,0,0,1-1.039.416,6.8,6.8,0,0,0-1.741.722.817.817,0,0,0-.276.227,1.113,1.113,0,0,0-.111.563,5.639,5.639,0,0,1-.822,2.044,2.237,2.237,0,0,0-.16,2.118,7.23,7.23,0,0,1,.431.611c.275.573-.068,1.278.13,1.882a1.645,1.645,0,0,0,.417.625,3.312,3.312,0,0,0,1.372.83c.495.152,1.108.254,1.3.734a3.9,3.9,0,0,0,.183.637,1.009,1.009,0,0,0,.715.359,3.055,3.055,0,0,0,.927.067,1.15,1.15,0,0,0,.8-.428,2.335,2.335,0,0,1,.324-.477c.315-.263.794-.055,1.2-.125a.877.877,0,0,0,.687-.645,1.22,1.22,0,0,1,.139-.493c.251-.322.913-.095,1.079-.468.108-.242-.118-.5-.336-.649a9.557,9.557,0,0,1-1.073-.727,1.249,1.249,0,0,1-.455-1.15c.15-.631.974-.979,1-1.627a1.165,1.165,0,0,0-.55-.918,8.483,8.483,0,0,1-.912-.638c-.2-.189-.342-.426-.554-.6a2.6,2.6,0,0,0-1.4-.394c-.262-.027-1.308-.148-1.267-.547C683.433,247.462,684.518,246.89,684.784,246.734Z" transform="translate(-581.911 -227.391)" fill="#2f2e41"/>
        <path id="Path_132" data-name="Path 132" d="M775.932,204.241s-2.394.871-2.394,1.959-1.088,4.571,0,4.571a13.316,13.316,0,0,0,3.265-.836Z" transform="translate(-658.728 -193.837)" fill="#f2f2f2"/>
        <path id="Path_133" data-name="Path 133" d="M777.865,213.111s6.313-2.177,6.53-2.177,3.265-1.741,3.047-2.394l-.871-5.442s-3.483-7.183-1.088-7.183,3.7,5.66,3.7,5.66,5.224,9.8,2.394,11.972-14.584,6.095-15.237,5.442S777.865,213.111,777.865,213.111Z" transform="translate(-661.314 -187.035)" fill="#ffb8b8"/>
        <path id="Path_134" data-name="Path 134" d="M805.827,201.82l1.469,1.416-1.9,1.849S802.78,204,803,204.65s1.524,2.612,2.394,2.612,5.4-2.83,5.422-3.7-2.81-3.918-3.463-4.136S805.827,201.82,805.827,201.82Z" transform="translate(-683.182 -189.893)" fill="#9f616a"/>
        <path id="Path_135" data-name="Path 135" d="M803.421,192.13s3.2,2.823,3.633,2.823,1.227-4.242,1.227-4.242-2.58-1.681-3.536-1.223S803.421,192.13,803.421,192.13Z" transform="translate(-683.538 -181.719)" fill="#f2f2f2"/>
        <path id="Path_136" data-name="Path 136" d="M742.392,290.552s0-3.047,6.53-3.047h2.83l-1.306,7.183-4.353,1.306Z" transform="translate(-633.677 -261.863)" fill="#8985a8"/>
        <path id="Path_137" data-name="Path 137" d="M767.71,151.416a16.9,16.9,0,0,1-1.915-.118,5.343,5.343,0,0,0-1.822-2.6,6.894,6.894,0,0,0-1.831-1c-1.45-.616-3.865-.232-4.006.469-2.854,1.364-2.133,3.759-2.133,3.759.443.937,1.438.522,2.282.1a1.668,1.668,0,0,0,1.453,1.284c1.394.052,2.07.636,1.734,1.405s-.74,2.6.778,2.318,2,.326,1.729.791.677-.924.677-.924.846,1.26,1.884.378a.787.787,0,0,0,.216-.37,1.56,1.56,0,0,0,1.082.189c1.243-.556.471-1.863.471-1.863s1.66-.255,1.125-.212-.873-.651.032-1.9S768.549,151.444,767.71,151.416Z" transform="translate(-644.731 -147.389)" fill="#2f2e41"/>
        <rect id="Rectangle_49" data-name="Rectangle 49" width="0.653" height="1.959" transform="matrix(0.949, 0.316, -0.316, 0.949, 113.938, 2.841)" fill="#2d5986"/>
        <path id="Path_138" data-name="Path 138" d="M326.758,254.986s-.26.866,1.212,1.646,1.905,3.724.173,4.59-2.252,1.992-1.386,2.771,2.425,2.858.346,3.378-2.338,1.559-1.732,1.992-1.386-.779-1.386-.779-.346,2.079-2.165,1.559-6.929-10.393-4.33-11.778A74.887,74.887,0,0,1,326.758,254.986Z" transform="translate(-285.944 -235.296)" fill="#2f2e41"/>
        <path id="Path_139" data-name="Path 139" d="M167.923,508.814l.563,5.255-2.44,1.5-2.252-.375,1.126-6.381Z" transform="translate(-133.82 -415.701)" fill="#9f616a"/>
        <circle id="Ellipse_11" data-name="Ellipse 11" cx="5.255" cy="5.255" r="5.255" transform="translate(30.725 19.539)" fill="#9f616a"/>
        <path id="Path_140" data-name="Path 140" d="M329.965,295.331s.469,7.977,1.032,7.977-6.569-.375-6.569-.375,3-5.255,1.5-6.944S329.965,295.331,329.965,295.331Z" transform="translate(-292.202 -268.002)" fill="#9f616a"/>
        <path id="Path_141" data-name="Path 141" d="M163.794,379.587l2.44,9.384-1.877,15.954,4.317-.376,1.689-24.962Z" transform="translate(-133.82 -310.122)" fill="#2f2e41"/>
        <path id="Path_142" data-name="Path 142" d="M163.794,379.587l2.44,9.384-1.877,15.954,4.317-.376,1.689-24.962Z" transform="translate(-133.82 -310.122)" opacity="0.2"/>
        <path id="Path_143" data-name="Path 143" d="M310.754,677.558s.188-1.126,2.065,0,9.76,4.692,5.631,5.443-12.575-.938-12.575-1.5-.188-4.129.563-3.754S309.628,680.561,310.754,677.558Z" transform="translate(-277.026 -580.128)" fill="#2f2e41"/>
        <path id="Path_144" data-name="Path 144" d="M291.649,664.234s-3,4.692-3.191,6.006-3-3-3-3l2.628-4.88Z" transform="translate(-260.361 -568.117)" fill="#9f616a"/>
        <path id="Path_145" data-name="Path 145" d="M307.442,529.4l-3.378,11.261s-6.006,15.954-6.381,15.766-4.88-1.314-5.068-1.877,5.631-15.766,5.631-15.766l.751-9.76Z" transform="translate(-266.206 -459.187)" fill="#2f2e41"/>
        <path id="Path_146" data-name="Path 146" d="M272.055,684.894a2.464,2.464,0,0,1,2.44,1.5,3.824,3.824,0,0,0,1.877,2.065c.188.188-.563,4.129,0,4.5s1.126,4.317-.751,4.317-4.88-2.065-4.692-2.44a8.38,8.38,0,0,0-.375-4.129c-.563-1.126-1.5-3,0-4.129S272.055,684.894,272.055,684.894Z" transform="translate(-247.523 -586.526)" fill="#2f2e41"/>
        <path id="Path_147" data-name="Path 147" d="M272.711,417.882l.375,3.378a16.409,16.409,0,0,1,3.754,6.194c.938,3.378,8.634,9.009,6.381,9.76s-4.88,1.126-11.449,0-16.892,1.314-16.892-4.88c0,0-1.314-1.689-2.252.751a49.061,49.061,0,0,1-2.252,4.88s-2.252-3.941-1.5-5.631,0-1.5.938-3.378,5.631-8.821,7.508-9.2,5.443-5.255,5.255-5.818S272.711,417.882,272.711,417.882Z" transform="translate(-230.349 -365.121)" fill="#2d5986"/>
        <path id="Path_148" data-name="Path 148" d="M305.73,320.827s7.7,1.689,8.071,2.815a11.4,11.4,0,0,0,2.014,2.7,10.549,10.549,0,0,1,2.649,5.375c.2,1.2-.627,2.274-1,3.653-1.126,4.129-1.971,3.1-.845,6.1s-5.631,4.129-8.258,2.815-5.537-9.1-5.537-10.041-2.534-11.543-.469-12.294S305.73,320.827,305.73,320.827Z" transform="translate(-273.503 -289.088)" fill="#575a88"/>
        <path id="Path_149" data-name="Path 149" d="M364.454,370.056,366.706,380l7.414,3.285s5.631-1.314,5.818.751c.123,1.348-6.381,1.877-6.381,1.877l-10.792-4.223-2.44-9.2Z" transform="translate(-321.529 -329.308)" fill="#9f616a"/>
        <path id="Path_150" data-name="Path 150" d="M357.637,349.544s4.692,2.815,3.566,4.317-3.941,3.941-4.692,3.941-1.314-4.5-1.314-5.818S357.637,349.544,357.637,349.544Z" transform="translate(-317.34 -312.549)" fill="#575a88"/>
        <path id="Path_151" data-name="Path 151" d="M306.1,245.588s-.288.959,1.343,1.823,2.111,4.126.192,5.085-2.495,2.207-1.535,3.07,2.686,3.166.384,3.742-2.59,1.727-1.919,2.207-1.535-.863-1.535-.863-.384,2.3-2.4,1.727-4.025-11.04-1.779-13.735C300.945,246.137,306.1,245.588,306.1,245.588Z" transform="translate(-270.502 -227.618)" fill="#2f2e41"/>
        <path id="Path_152" data-name="Path 152" d="M285.264,237.266c0-1.406-4.206-.4-6.009,1.567-1.249,1.359-3.145,3.4-1.556,4.845s-2.724,3.331-3.881,3.9-3.441,2.325-1.378,3.5,2.029,2.361,1.253,2.642,1.711-.418,1.711-.418-.251,2.321,1.844,2.31,8.107-11.527,6.671-14.728C282.584,237.912,285.264,237.266,285.264,237.266Z" transform="translate(-249.049 -220.283)" fill="#2f2e41"/>
        <path id="Path_153" data-name="Path 153" d="M321.448,238.422c5.624-.339,6.188,3.894,6.188,3.894-.039,2.45-3.929,1.256-5.01,1.621-1.3-.938-3.816-2.712-5.613-3.978A8.5,8.5,0,0,1,321.448,238.422Z" transform="translate(-286.143 -221.748)" fill="#2f2e41"/>
        <rect id="Rectangle_50" data-name="Rectangle 50" width="1.798" height="41.961" transform="translate(77.272 65.749)" fill="#381e1d"/>
        <path id="Path_154" data-name="Path 154" d="M570.579,500.369s3.057-3.836,5.575,1.139c0,0-1.2,2.218-1.558,1.139s-1.221-2.692-2.229-1.736" transform="translate(-493.306 -434.62)" fill="#381e1d"/>
        <path id="Path_155" data-name="Path 155" d="M557.631,466.623s4.523,4.453,2.3,8.214a.889.889,0,0,1-1.391.178c-.768-.759-1.982-2.646-3.474-7.313Z" transform="translate(-480.629 -408.203)" fill="#fda57d"/>
        <path id="Path_156" data-name="Path 156" d="M536.51,338.469s4.676,1.439,3.776,7.073a42.68,42.68,0,0,0-.539,9.591l1.2,7.193-2.158,2.937s-3.716-3.717-4.975-7.493S532.673,339.068,536.51,338.469Z" transform="translate(-462.684 -303.501)" opacity="0.1"/>
        <path id="Path_157" data-name="Path 157" d="M536.182,338.141s4.676,1.439,3.776,7.073a42.684,42.684,0,0,0-.539,9.591l1.2,7.193-2.158,2.937s-3.716-3.717-4.975-7.493S532.346,338.741,536.182,338.141Z" transform="translate(-462.416 -303.234)" fill="#2d5986"/>
        <path id="Path_158" data-name="Path 158" d="M518.034,688.411l-.766,5.74a7.187,7.187,0,0,0,2.557.623c.59-.182,1.623.559,1.623.559s4.4,1.389,5.26.141-1.1-1.63-2.684-2.571-2.261-4.572-2.261-4.572Z" transform="translate(-449.751 -589.337)"/>
        <path id="Path_159" data-name="Path 159" d="M519.3,467.364v21.22l-4.076,20.261H510.9l.659-19.422s-4.5-15.705-2.518-21.58Z" transform="translate(-442.622 -408.809)" fill="#333"/>
        <path id="Path_160" data-name="Path 160" d="M542.777,481.994s6.285.89,6.731,5.238a.889.889,0,0,1-1.013.971c-1.069-.154-3.167-.948-7.142-3.813Z" transform="translate(-469.429 -420.761)" fill="#fda57d"/>
        <path id="Path_161" data-name="Path 161" d="M524.6,321.125a7.79,7.79,0,0,0-.6,4.736s-6.024-.51-5.845-3.986c0,0,2.937-.719,3.627-3.387Z" transform="translate(-450.47 -287.177)" fill="#fda57d"/>
        <path id="Path_162" data-name="Path 162" d="M495.1,695.289l-.766,5.74a7.187,7.187,0,0,0,2.557.623c.59-.182,1.623.558,1.623.558s4.4,1.389,5.26.141-1.1-1.63-2.684-2.571-2.261-4.573-2.261-4.573Z" transform="translate(-431.018 -594.957)"/>
        <path id="Path_163" data-name="Path 163" d="M494.565,476.372v21.22l-4.076,20.261h-4.316l.659-19.422s-4.5-15.705-2.518-21.58Z" transform="translate(-422.417 -416.168)" opacity="0.1"/>
        <path id="Path_164" data-name="Path 164" d="M493.582,476.372v21.22l-4.076,20.261H485.19l.659-19.422s-4.5-15.705-2.518-21.58Z" transform="translate(-421.614 -416.168)" fill="#333"/>
        <path id="Path_165" data-name="Path 165" d="M494.1,337.024s-3.776-2.458-6.294,4.855-1.5,20.8-1.5,20.8,10.73,3.477,14.566-1.379v-7.253s2.038-8.272-.839-15.466C500.031,338.582,497.513,339.6,494.1,337.024Z" transform="translate(-424.287 -301.996)" opacity="0.1"/>
        <path id="Path_166" data-name="Path 166" d="M493.441,338.006s-3.776-2.458-6.294,4.855-1.5,20.8-1.5,20.8,10.73,3.477,14.566-1.379V355.03s2.038-8.272-.839-15.466C499.376,339.565,496.858,340.584,493.441,338.006Z" transform="translate(-423.752 -302.799)" opacity="0.1"/>
        <path id="Path_167" data-name="Path 167" d="M493.441,337.024s-3.776-2.458-6.294,4.855-1.5,20.8-1.5,20.8,10.73,3.477,14.566-1.379v-7.253s2.038-8.272-.839-15.466C499.376,338.582,496.858,339.6,493.441,337.024Z" transform="translate(-423.752 -301.996)" fill="#2d5986"/>
        <path id="Path_168" data-name="Path 168" d="M492.944,358.778s4.676,1.439,3.776,7.073a42.685,42.685,0,0,0-.54,9.591l5.994,6.054-2.158,2.937s-8.512-2.578-9.771-6.354S489.108,359.377,492.944,358.778Z" transform="translate(-427.091 -320.093)" opacity="0.1"/>
        <path id="Path_169" data-name="Path 169" d="M491.306,359.76s4.676,1.439,3.776,7.073a42.684,42.684,0,0,0-.539,9.591l5.994,6.054-2.158,2.937s-8.512-2.578-9.771-6.354S487.47,360.36,491.306,359.76Z" transform="translate(-425.753 -320.896)" opacity="0.1"/>
        <path id="Path_170" data-name="Path 170" d="M491.961,358.778s4.676,1.439,3.776,7.073a42.684,42.684,0,0,0-.539,9.591l5.994,6.054-2.158,2.937s-8.512-2.578-9.771-6.354S488.125,359.377,491.961,358.778Z" transform="translate(-426.288 -320.093)" fill="#2d5986"/>
        <path id="Path_171" data-name="Path 171" d="M531.34,319.634l2.817,2.638a2.794,2.794,0,0,0-.125.255,4.254,4.254,0,0,1-4.071-.975A4.444,4.444,0,0,0,531.34,319.634Z" transform="translate(-460.122 -288.113)" opacity="0.1"/>
        <circle id="Ellipse_12" data-name="Ellipse 12" cx="4.855" cy="4.855" r="4.855" transform="translate(67.082 22.41)" fill="#e0e0e0"/>
        <circle id="Ellipse_13" data-name="Ellipse 13" cx="4.855" cy="4.855" r="4.855" transform="translate(67.891 24.657)" fill="#fda57d"/>
        <path id="Path_172" data-name="Path 172" d="M517.562,296.377s-1.818,4.761,2.028,6.217h0a2.275,2.275,0,0,0,.568-3.641Z" transform="translate(-449.641 -269.112)" fill="#e0e0e0"/>
        <path id="Path_173" data-name="Path 173" d="M526.36,279.522s1.676.407-1.261,1.426a3.716,3.716,0,0,0-2.2,1.986,2.284,2.284,0,0,1-3.164,1.043l-.929-.511-1.618-3.776,1.918-2.218,3.3-.42Z" transform="translate(-449.685 -253.323)" fill="#e0e0e0"/>
        <ellipse id="Ellipse_14" data-name="Ellipse 14" cx="0.48" cy="0.839" rx="0.48" ry="0.839" transform="translate(70.978 30.262)" fill="#fda57d"/>
        <path id="Path_174" data-name="Path 174" d="M529.8,338.8s3.267,5.125,5.125,5.125-1.3-4.806-1.3-4.806l-.076,1.329Z" transform="translate(-459.988 -303.769)" fill="#333"/>
        <path id="Path_175" data-name="Path 175" d="M253.216,467.849a179.115,179.115,0,0,1-33.615-3.305c-30.963-5.921-47.7-17.407-48.611-17.9l-2.76-4.59h0a203.477,203.477,0,0,0,52.458,17.588c27.725,5.28,68.292,6.493,104.108-17.716l-.787,5.528c-16.479,11.139-31.666,16.713-52.234,19.27a150.463,150.463,0,0,1-18.559,1.125Z" transform="translate(-164.588 -388.025)" fill="#f55f44"/>
        <rect id="Rectangle_51" data-name="Rectangle 51" width="3.621" height="51.217" transform="translate(4.656 50.289)" fill="#e0e0e0"/>
        <path id="Path_176" data-name="Path 176" d="M3.475,545.483H9.459a3.475,3.475,0,0,1,3.475,3.475v2.992H0v-2.992a3.475,3.475,0,0,1,3.475-3.475Z" transform="translate(0 -445.659)" fill="#e0e0e0"/>
        <circle id="Ellipse_15" data-name="Ellipse 15" cx="3.621" cy="3.621" r="3.621" transform="translate(2.845 48.995)" opacity="0.1"/>
        <circle id="Ellipse_16" data-name="Ellipse 16" cx="3.621" cy="3.621" r="3.621" transform="translate(2.845 48.736)" fill="#e0e0e0"/>
        <path id="Path_177" data-name="Path 177" d="M173.77,694.277s2.328.775,3.621,0" transform="translate(-169.114 -594.196)" opacity="0.1"/>
        <rect id="Rectangle_52" data-name="Rectangle 52" width="3.621" height="51.217" transform="translate(157.036 50.289)" fill="#e0e0e0"/>
        <path id="Path_178" data-name="Path 178" d="M836.146,545.483h5.984a3.475,3.475,0,0,1,3.475,3.475v2.992H832.671v-2.992a3.475,3.475,0,0,1,3.475-3.475Z" transform="translate(-680.291 -445.659)" fill="#e0e0e0"/>
        <circle id="Ellipse_17" data-name="Ellipse 17" cx="3.621" cy="3.621" r="3.621" transform="translate(155.225 48.995)" opacity="0.1"/>
        <circle id="Ellipse_18" data-name="Ellipse 18" cx="3.621" cy="3.621" r="3.621" transform="translate(155.225 48.736)" fill="#e0e0e0"/>
        <path id="Path_179" data-name="Path 179" d="M1006.441,694.277s2.328.775,3.621,0" transform="translate(-849.405 -594.196)" opacity="0.1"/>
      </g>
      <text id="Currently_there_are_no_patients" data-name="Currently there are no patients" transform="translate(640 269.137)" fill="#252525" font-size="20" font-family="SourceSansPro-Regular, Source Sans Pro"><tspan x="-127" y="0">Currently there are no patients</tspan></text>
    </g>
  </g>
</svg>
