<svg xmlns="http://www.w3.org/2000/svg" xmlns:xlink="http://www.w3.org/1999/xlink" width="358" height="209.507" viewBox="0 0 358 209.507">
  <defs>
    <linearGradient id="linear-gradient" x1="0.5" y1="1" x2="0.5" gradientUnits="objectBoundingBox">
      <stop offset="0" stop-color="gray" stop-opacity="0.251"/>
      <stop offset="0.54" stop-color="gray" stop-opacity="0.122"/>
      <stop offset="1" stop-color="gray" stop-opacity="0.102"/>
    </linearGradient>
    <linearGradient id="linear-gradient-2" x1="0.5" y1="1" x2="0.5" y2="0" xlink:href="#linear-gradient"/>
    <filter id="Path_328" x="0" y="0" width="358" height="208.292" filterUnits="userSpaceOnUse">
      <feOffset dy="2" input="SourceAlpha"/>
      <feGaussianBlur stdDeviation="1" result="blur"/>
      <feFlood flood-opacity="0.239"/>
      <feComposite operator="in" in2="blur"/>
      <feComposite in="SourceGraphic"/>
    </filter>
  </defs>
  <g id="info-card" transform="translate(-463 -232)">
    <g id="undraw_doctors_hwty" transform="translate(533.51 282.497)">
      <path id="Path_538" data-name="Path 538" d="M90.657,356.76h18.7v25.491H92.024c-.044.263-.088.525-.138.789h17.471v20.554a.263.263,0,0,1-.087-.033q-.737-.293-1.474-.621c-.105-.048-.208-.1-.315-.144q-.737-.348-1.474-.737c-.171-.09-.343-.184-.51-.28a30.671,30.671,0,0,1-7.353-5.724c-.064-.061-.123-.127-.184-.184-.3-.324-.592-.652-.875-.988-.107-.123-.21-.249-.315-.369-.335-.409-.66-.833-.973-1.259-.048-.064-.092-.127-.138-.184a27.22,27.22,0,0,1-3.17-5.731c-.026-.061-.05-.127-.074-.184-.254-.645-.485-1.3-.684-1.966-.085-.278-.168-.553-.238-.842-.026-.083-.046-.168-.068-.251a50.869,50.869,0,0,1-1.155-12.546v-1.474q.022-2.585.061-5.165.015-.663.028-1.332.039-1.693.111-3.394c.011-.313.026-.628.042-.94q.011-.271.028-.542Q90.589,357.726,90.657,356.76Z" transform="translate(-76.175 -294.435)" fill="#00bfa6" opacity="0.1"/>
      <path id="Path_539" data-name="Path 539" d="M148.439,145.362H138.18a78.088,78.088,0,0,1,5.456-7.507c1.526-1.872,3.133-3.7,4.8-5.455Z" transform="translate(-115.256 -111.419)" fill="#00bfa6" opacity="0.1"/>
      <path id="Path_540" data-name="Path 540" d="M111.332,207v26.809H92.69c0-.077.011-.157.018-.234.017-.212.033-.422.052-.634.018-.247.042-.494.066-.737s.048-.538.077-.805.053-.538.083-.805.059-.534.092-.8.063-.534.1-.8c.028-.219.055-.44.087-.662q.064-.467.133-.932a.887.887,0,0,1,.022-.14,64.3,64.3,0,0,1,1.371-6.73,49.83,49.83,0,0,1,2.313-6.818A51.2,51.2,0,0,1,100.583,207Z" transform="translate(-78.149 -172.272)" fill="#00bfa6" opacity="0.1"/>
      <path id="Path_541" data-name="Path 541" d="M218.09,80.885v25.491h39.944V80.885Zm0,26.28v21.892c.229.046.453.092.68.131.3.059.61.112.921.158l.184.026c.122.02.245.037.369.052.308.044.615.077.921.107.144.015.293.026.439.039l.356.026h0c.193.015.385.026.577.033.118,0,.236.009.356.013s.184,0,.28,0H224.2c.158,0,.317,0,.474-.015h.009a2.818,2.818,0,0,0,.33-.013.812.812,0,0,0,.094,0,2.222,2.222,0,0,0,.273-.011.384.384,0,0,1,.063,0c.2-.013.411-.029.619-.048s.405-.041.614-.063l.418-.052a36.7,36.7,0,0,0,5.058-1.076c3.728-1.039,7.371-2.493,11.1-3.557,4.813-1.373,10.135-2.049,14.786-.378V107.165ZM258.034,52.5V18.566a51.327,51.327,0,0,0-12.977,1.52c-10.115,2.541-19.2,8.053-26.967,15.092V52.5h2.01v.787h-2.01V80.1h39.944V53.288H228.325V52.5Zm51.318-11.464a16.536,16.536,0,0,1-7.242-2.1c-4.3-2.338-7.74-5.954-11.58-9A53.17,53.17,0,0,0,262.5,18.795V52.5H319.52l.142-.149Zm5.195-.921,5.508,6.046V38.527a22.052,22.052,0,0,0-5.508,1.583Zm5.508,94.376V107.165H308.309c-.029-.116-.063-.234-.1-.352.035.118.066.236.1.352H262.5v19.762c.435.322.864.663,1.29,1.006h0q.689.564,1.369,1.141l.457.378c.219.184.442.369.663.544q.665.536,1.34,1.061.337.265.678.522a92.521,92.521,0,0,0,11.359,7.428c.888.5,1.786.973,2.689,1.439q.9.464,1.815.91,1.371.669,2.764,1.29h0a101.463,101.463,0,0,0,26.9,7.835q3.092.455,6.212.719V134.49h.184ZM262.5,53.288V80.1h57.552V53.288Zm0,27.594v25.495h57.552V80.885ZM324.521,38.49v8.532l7.028-7.716Q328.056,38.73,324.521,38.49Zm0,42.395v25.491H380.5V80.885Zm55.777,55.63.2-29.35H324.521V151.5a100.857,100.857,0,0,0,10.817-.131h.063q2.58-.166,5.136-.472h.039a94.44,94.44,0,0,0,26.394-7.05m24.325-58.772q-.319-.737-.654-1.474c-.417-.921-.855-1.817-1.308-2.711h-4.367v25.489H396a55.159,55.159,0,0,0-4.71-21.3Zm-6.33,22.093v25.246a36.126,36.126,0,0,0,7.629-10.29,35.417,35.417,0,0,0,3.4-14.958Zm0-33.708v6.634h3.958a72.085,72.085,0,0,0-3.958-6.634ZM347,43.493c-.291-.112-.584-.225-.877-.332a79.636,79.636,0,0,0-9.453-2.842l-10.758,11.8h0l-.21.227.138.149h38.289A81.8,81.8,0,0,0,347,43.493Zm18.253,9.794h-39.95l-.785.717V80.1H380.5V67.455A79.7,79.7,0,0,0,365.256,53.288Z" transform="translate(-180.44 -18.56)" fill="#00bfa6" opacity="0.1"/>
      <path id="Path_542" data-name="Path 542" d="M111.332,280.39v13.285H92.69c0-.077.011-.157.018-.234.017-.212.033-.422.052-.634.018-.247.042-.494.066-.737s.048-.538.077-.805.053-.538.083-.805.059-.534.092-.8.063-.534.1-.8c.028-.219.055-.44.087-.662q.064-.467.133-.932a.887.887,0,0,1,.022-.14,64.3,64.3,0,0,1,1.371-6.73Z" transform="translate(-78.149 -232.138)" fill="#00bfa6" opacity="0.1"/>
      <path id="Path_543" data-name="Path 543" d="M90.657,356.76h18.7v25.491H92.024c-.044.263-.088.525-.138.789h17.471v20.554a.263.263,0,0,1-.087-.033q-.737-.293-1.474-.621c-.105-.048-.208-.1-.315-.144q-.737-.348-1.474-.737c-.171-.09-.343-.184-.51-.28a30.671,30.671,0,0,1-7.353-5.724c-.064-.061-.123-.127-.184-.184-.3-.324-.592-.652-.875-.988-.107-.123-.21-.249-.315-.369-.335-.409-.66-.833-.973-1.259-.048-.064-.092-.127-.138-.184a27.22,27.22,0,0,1-3.17-5.731c-.026-.061-.05-.127-.074-.184-.254-.645-.485-1.3-.684-1.966-.085-.278-.168-.553-.238-.842-.026-.083-.046-.168-.068-.251a50.869,50.869,0,0,1-1.155-12.546v-1.474q.022-2.585.061-5.165.015-.663.028-1.332.039-1.693.111-3.394c.011-.313.026-.628.042-.94q.011-.271.028-.542Q90.589,357.726,90.657,356.76Z" transform="translate(-76.175 -294.435)" fill="#00bfa6" opacity="0.1"/>
      <path id="Path_544" data-name="Path 544" d="M216.192,174.857v22.968H202.13V174.857h2V167.08h8.23v7.777Z" transform="translate(-164.482 -136.288)" fill="#00bfa6" opacity="0.1"/>
      <rect id="Rectangle_484" data-name="Rectangle 484" width="14.06" height="25.491" transform="translate(37.648 62.323)" fill="#00bfa6" opacity="0.1"/>
      <path id="Path_545" data-name="Path 545" d="M218.09,499.37h14.06v21.192a36.415,36.415,0,0,1-5.058,1.074c-.14.02-.278.037-.418.052-.206.024-.411.046-.615.064l-.617.05h-.063l-.273.015h-.094c-.111,0-.219.013-.33.015h-.009c-.158,0-.315.011-.474.015h-1.3a2.907,2.907,0,0,1-.358-.015q-.284-.011-.575-.033h0l-.356-.026c-.147-.011-.295-.026-.44-.041q-.464-.041-.921-.105l-.369-.052-.184-.026c-.308-.046-.614-.1-.921-.157-.229-.041-.453-.087-.68-.135Z" transform="translate(-180.44 -410.765)" fill="#00bfa6" opacity="0.1"/>
      <rect id="Rectangle_485" data-name="Rectangle 485" width="11.595" height="25.679" transform="translate(128.017 35.856)" fill="#00bfa6" opacity="0.1"/>
      <path id="Path_546" data-name="Path 546" d="M500.7,338.19v25.493H443.15v-11H473.8v6.487h15.3V338.19Z" transform="translate(-361.088 -275.867)" fill="#00bfa6" opacity="0.1"/>
      <path id="Path_547" data-name="Path 547" d="M516.834,525.146a1.037,1.037,0,0,1-.184-.011v16.723q-3.116-.256-6.21-.717a101.6,101.6,0,0,1-26.916-7.832q-3.71-1.673-7.268-3.647a92.856,92.856,0,0,1-11.357-7.428q-1.36-1.039-2.679-2.125c-.61-.5-1.214-1.021-1.83-1.52-.424-.345-.853-.685-1.29-1.01V497.812h45.8c-.033-.118-.063-.234-.1-.352.035.118.068.234.1.352h11.746v27.321C516.713,525.135,516.773,525.14,516.834,525.146Z" transform="translate(-377.038 -409.207)" fill="#00bfa6" opacity="0.1"/>
      <path id="Path_548" data-name="Path 548" d="M902.065,161.391H894.51v-2.348H897.9V152.05q.441.162.877.332v6.662h3.291Z" transform="translate(-732.211 -127.448)" fill="#00bfa6" opacity="0.1"/>
      <path id="Path_549" data-name="Path 549" d="M839.628,233.809H795.65V208.13h1.95V227.11h8.908V215.869h7.362V207h7.555v8.875h7.358v11.241H839.63Z" transform="translate(-651.569 -172.272)" fill="#00bfa6" opacity="0.1"/>
      <path id="Path_550" data-name="Path 550" d="M795.65,356.76v25.491h43.98V356.76Zm55.912,55.5.063-20.178H839.63v-9.03H795.65v44.324a100.858,100.858,0,0,0,10.817-.131h.063q2.58-.166,5.136-.472h.039a94.441,94.441,0,0,0,26.394-7.05" transform="translate(-651.569 -294.435)" fill="#00bfa6" opacity="0.1"/>
      <path id="Path_551" data-name="Path 551" d="M1124.424,499.37h10.259a35.434,35.434,0,0,1-3.4,14.956,36.1,36.1,0,0,1-7.629,10.292V508.4h.774Z" transform="translate(-919.126 -410.765)" fill="#00bfa6" opacity="0.1"/>
      <path id="Path_552" data-name="Path 552" d="M1138.116,400.784H1127.85v-21.3h5.556A55.16,55.16,0,0,1,1138.116,400.784Z" transform="translate(-922.552 -312.968)" fill="#00bfa6" opacity="0.1"/>
      <rect id="Rectangle_486" data-name="Rectangle 486" width="6.212" height="8.051" transform="translate(133.402 42.995)" fill="#00bfa6" opacity="0.1"/>
      <rect id="Rectangle_487" data-name="Rectangle 487" width="6.212" height="1.854" transform="translate(133.402 59.683)" fill="#00bfa6" opacity="0.1"/>
      <rect id="Rectangle_488" data-name="Rectangle 488" width="6.212" height="5.409" transform="translate(133.402 62.323)" fill="#00bfa6" opacity="0.1"/>
      <rect id="Rectangle_489" data-name="Rectangle 489" width="6.212" height="8.051" transform="translate(133.402 76.371)" fill="#00bfa6" opacity="0.1"/>
      <rect id="Rectangle_490" data-name="Rectangle 490" width="6.212" height="8.051" transform="translate(133.402 93.059)" fill="#00bfa6" opacity="0.1"/>
      <path id="Path_553" data-name="Path 553" d="M743.912,620.279a.9.9,0,0,1,.184.013,1.048,1.048,0,0,1-.184-.011v1.87H737.7V614.1h6.212Z" transform="translate(-604.298 -504.353)" fill="#00bfa6" opacity="0.1"/>
      <path id="Path_554" data-name="Path 554" d="M743.912,704.65v6.218q-3.118-.256-6.212-.717v-5.5Z" transform="translate(-604.298 -578.216)" fill="#00bfa6" opacity="0.1"/>
      <rect id="Rectangle_491" data-name="Rectangle 491" width="26.623" height="0.592" transform="translate(82.062 87.225)" fill="#00bfa6" opacity="0.1"/>
      <rect id="Rectangle_492" data-name="Rectangle 492" width="26.623" height="2.267" transform="translate(82.062 88.603)" fill="#00bfa6" opacity="0.1"/>
      <rect id="Rectangle_493" data-name="Rectangle 493" width="26.623" height="3.645" transform="translate(82.062 98.3)" fill="#00bfa6" opacity="0.1"/>
      <path id="Path_555" data-name="Path 555" d="M491.433,612.08v3.645H470.609q-1.36-1.036-2.679-2.127c-.612-.5-1.216-1.019-1.83-1.518Z" transform="translate(-382.748 -502.705)" fill="#00bfa6" opacity="0.1"/>
      <path id="Path_556" data-name="Path 556" d="M561.666,672.17v3.654h-2.2q-3.71-1.673-7.268-3.647Z" transform="translate(-452.981 -551.722)" fill="#00bfa6" opacity="0.1"/>
      <rect id="Rectangle_494" data-name="Rectangle 494" width="5.241" height="5.241" transform="translate(154.898 64.795)" fill="#00bfa6" opacity="0.1"/>
      <rect id="Rectangle_495" data-name="Rectangle 495" width="5.241" height="5.241" transform="translate(41.424 40.376)" fill="#00bfa6" opacity="0.1"/>
      <rect id="Rectangle_496" data-name="Rectangle 496" width="5.241" height="5.241" transform="translate(41.424 52.549)" fill="#00bfa6" opacity="0.1"/>
      <rect id="Rectangle_497" data-name="Rectangle 497" width="5.241" height="5.241" transform="translate(41.424 64.723)" fill="#00bfa6" opacity="0.1"/>
      <rect id="Rectangle_498" data-name="Rectangle 498" width="5.241" height="5.241" transform="translate(41.424 76.894)" fill="#00bfa6" opacity="0.1"/>
      <rect id="Rectangle_499" data-name="Rectangle 499" width="5.241" height="5.241" transform="translate(41.424 89.068)" fill="#00bfa6" opacity="0.1"/>
      <rect id="Rectangle_500" data-name="Rectangle 500" width="5.241" height="5.241" transform="translate(41.424 101.241)" fill="#00bfa6" opacity="0.1"/>
      <rect id="Rectangle_501" data-name="Rectangle 501" width="5.241" height="5.241" transform="translate(174.905 64.795)" fill="#00bfa6" opacity="0.1"/>
      <rect id="Rectangle_502" data-name="Rectangle 502" width="5.241" height="5.241" transform="translate(154.898 77.722)" fill="#00bfa6" opacity="0.1"/>
      <rect id="Rectangle_503" data-name="Rectangle 503" width="5.241" height="5.241" transform="translate(174.905 77.722)" fill="#00bfa6" opacity="0.1"/>
      <rect id="Rectangle_504" data-name="Rectangle 504" width="5.241" height="5.241" transform="translate(154.898 90.647)" fill="#00bfa6" opacity="0.1"/>
      <rect id="Rectangle_505" data-name="Rectangle 505" width="5.241" height="5.241" transform="translate(174.905 90.647)" fill="#00bfa6" opacity="0.1"/>
      <rect id="Rectangle_506" data-name="Rectangle 506" width="5.241" height="5.241" transform="translate(154.898 103.574)" fill="#00bfa6" opacity="0.1"/>
      <rect id="Rectangle_507" data-name="Rectangle 507" width="5.241" height="5.241" transform="translate(174.905 103.574)" fill="#00bfa6" opacity="0.1"/>
      <rect id="Rectangle_508" data-name="Rectangle 508" width="5.241" height="5.241" transform="translate(154.898 116.501)" fill="#00bfa6" opacity="0.1"/>
      <rect id="Rectangle_509" data-name="Rectangle 509" width="5.241" height="5.241" transform="translate(174.905 116.501)" fill="#00bfa6" opacity="0.1"/>
      <path id="Path_557" data-name="Path 557" d="M838.4,705.71v-3.38h5.239v2.9Z" transform="translate(-683.502 -572.904)" fill="#00bfa6" opacity="0.1"/>
      <path id="Path_558" data-name="Path 558" d="M96.53,316.91v3h17.934v-3Zm1.786,2.81H96.841V317.1h1.474Zm1.786,0H98.627V317.1H100.1Zm1.782,0h-1.474V317.1h1.474Zm1.786,0h-1.474V317.1h1.474Zm1.784,0h-1.474V317.1h1.474Zm1.786,0h-1.474V317.1h1.474Zm1.786,0H107.55V317.1h1.474Zm1.784,0h-1.474V317.1h1.474Zm1.784,0h-1.474V317.1h1.474Zm1.786,0H112.9V317.1h1.474Z" transform="translate(-81.281 -261.928)" fill="#00bfa6" opacity="0.1"/>
      <path id="Path_559" data-name="Path 559" d="M96.53,364.27v3h17.934v-3Zm1.786,2.81H96.841v-2.62h1.474Zm1.786,0H98.627v-2.62H100.1Zm1.782,0h-1.474v-2.62h1.474Zm1.786,0h-1.474v-2.62h1.474Zm1.784,0h-1.474v-2.62h1.474Zm1.786,0h-1.474v-2.62h1.474Zm1.786,0H107.55v-2.62h1.474Zm1.784,0h-1.474v-2.62h1.474Zm1.784,0h-1.474v-2.62h1.474Zm1.786,0H112.9v-2.62h1.474Z" transform="translate(-81.281 -300.561)" fill="#00bfa6" opacity="0.1"/>
      <path id="Path_560" data-name="Path 560" d="M96.53,411.64v3h17.934v-3Zm1.786,2.807H96.841v-2.62h1.474Zm1.786,0H98.627v-2.62H100.1Zm1.782,0h-1.474v-2.62h1.474Zm1.786,0h-1.474v-2.62h1.474Zm1.784,0h-1.474v-2.62h1.474Zm1.786,0h-1.474v-2.62h1.474Zm1.786,0H107.55v-2.62h1.474Zm1.784,0h-1.474v-2.62h1.474Zm1.784,0h-1.474v-2.62h1.474Zm1.786,0H112.9v-2.62h1.474Z" transform="translate(-81.281 -339.202)" fill="#00bfa6" opacity="0.1"/>
      <path id="Path_561" data-name="Path 561" d="M96.53,459v3h17.934v-3Zm1.786,2.808H96.841v-2.624h1.474Zm1.786,0H98.627v-2.624H100.1Zm1.782,0h-1.474v-2.624h1.474Zm1.786,0h-1.474v-2.624h1.474Zm1.784,0h-1.474v-2.624h1.474Zm1.786,0h-1.474v-2.624h1.474Zm1.786,0H107.55v-2.624h1.474Zm1.784,0h-1.474v-2.624h1.474Zm1.784,0h-1.474v-2.624h1.474Zm1.786,0H112.9v-2.624h1.474Z" transform="translate(-81.281 -377.834)" fill="#00bfa6" opacity="0.1"/>
      <path id="Path_562" data-name="Path 562" d="M97,506.34c.07.284.153.564.238.842v-.652h1.474v2.619h-.791c.022.063.046.127.072.184h16.861V506.34Zm3.5,2.808H99.027V506.53H100.5Zm1.782,0h-1.474V506.53h1.474Zm1.786,0h-1.474V506.53h1.474Zm1.784,0h-1.474V506.53h1.474Zm1.786,0h-1.474V506.53h1.474Zm1.786,0H107.95V506.53h1.474Zm1.784,0h-1.474V506.53h1.474Zm1.784,0h-1.474V506.53h1.474Zm1.786,0H113.3V506.53h1.474Z" transform="translate(-81.665 -416.451)" fill="#00bfa6" opacity="0.1"/>
      <path id="Path_563" data-name="Path 563" d="M119.54,553.7c.048.059.092.125.138.184h.975v1.259l.315.369v-1.635h1.474v2.643h-.606c.059.061.116.125.184.184h11.21v-3Zm4.692,2.819h-1.474v-2.632h1.474Zm1.786,0h-1.474v-2.632h1.474Zm1.786,0h-1.474v-2.632H127.8Zm1.784,0h-1.474v-2.632h1.474Zm1.784,0H129.9v-2.632h1.474Zm1.786,0h-1.474v-2.632h1.474Z" transform="translate(-100.051 -455.083)" fill="#00bfa6" opacity="0.1"/>
      <path id="Path_564" data-name="Path 564" d="M172.93,601.06c.17.1.341.184.512.278v-.092h1.474v.831c.107.046.208.1.313.144v-.975H176.7v1.6a.591.591,0,0,0,.087.031V601.06Z" transform="translate(-143.602 -493.716)" fill="#00bfa6" opacity="0.1"/>
      <path id="Path_565" data-name="Path 565" d="M340.3,230.317Zm-11.352,54.389Zm-11.844-27.673c.035.118.066.236.1.352h0C317.179,257.27,317.145,257.152,317.109,257.034Zm23.2-26.717ZM229,202.724v.785h8.232v-.789Zm99.954,81.983Zm-11.845-27.673c.035.118.066.236.1.352h0C317.179,257.27,317.145,257.152,317.109,257.034Zm23.2-26.717Zm-11.352,54.389Zm-11.844-27.673c.035.118.066.236.1.352h0C317.179,257.27,317.145,257.152,317.109,257.034Z" transform="translate(-189.34 -168.781)" fill="#00bfa6" opacity="0.1"/>
      <ellipse id="Ellipse_103" data-name="Ellipse 103" cx="17.956" cy="2.884" rx="17.956" ry="2.884" transform="translate(144.503 153.242)" fill="#00bfa6" opacity="0.1"/>
      <ellipse id="Ellipse_104" data-name="Ellipse 104" cx="17.956" cy="2.884" rx="17.956" ry="2.884" transform="translate(63.52 150.358)" fill="#00bfa6" opacity="0.1"/>
      <path id="Path_566" data-name="Path 566" d="M426.368,305.886a.1.1,0,0,0-.028-.048c-.275-.271-3.776-5.222-3.776-5.222s-.184-.553-.483-1.271a1.264,1.264,0,0,0,.212-.415,1.414,1.414,0,0,0,.035-.193c0-.02.015-.037.02-.057a1.4,1.4,0,0,0-.018-.759,1.311,1.311,0,0,1-.076.184,3.082,3.082,0,0,0-.276-.615c-.464-.8-1.128-1.474-1.616-2.254a6.1,6.1,0,0,1-.831-4.047v.217a6.306,6.306,0,0,1,.111-.829,5.756,5.756,0,0,1,.308-.91c.439-1,1.148-1.88,1.579-2.888a5.47,5.47,0,0,0,.328-1.056,5.913,5.913,0,0,0,.164-1.852,2.949,2.949,0,0,1-.046.44,6,6,0,0,0-1.694-3.993,9.968,9.968,0,0,0-5.735-2.41,5.254,5.254,0,0,1-2.414-.921,4.2,4.2,0,0,0-2.749-.525,4.535,4.535,0,0,0-2.8,1.384c-.982,1.08-1.408,2.609-2.554,3.52a11.341,11.341,0,0,1-2.385,1.187,3.192,3.192,0,0,0-1.834,1.729v.029l-.011.029c-.269.955.251,1.926.521,2.878a11.664,11.664,0,0,1,.315,3.046c.02,1.246.039,2.493.018,3.741-.009.49-.026.986-.063,1.474a7.723,7.723,0,0,0-1.266.509,25.076,25.076,0,0,0-1.957,1.937l-3.02,11.539.041.046-.041.157.153-.035a15.548,15.548,0,0,0,3.083,2.591l.129,2.263a4.023,4.023,0,0,0,2.243,3.208c.048.787.2,3.982-.494,5.248a5.9,5.9,0,0,0-.652,3,10.2,10.2,0,0,1-.033,2.93,4.792,4.792,0,0,0-.035,2.057h0v.606c0,2.044.024,8.593,0,9.334-.035.875,0,13.821,0,13.821s-.171,6.47-.721,8.222-.411,7.555-.411,7.555-.345,6.912.873,8.276c0,.061-.011.123-.013.184v.087c-.015.525.087,1.084.538,1.255a7.71,7.71,0,0,1,2.37,1.719,4.3,4.3,0,0,0,3.317.859,24.972,24.972,0,0,1,3.3-.151h0s.689-.125.466-.982h0a7.674,7.674,0,0,0-1.065-1.9c.07.018.138.033.2.046l.066.013h.052a.689.689,0,0,0,.085,0h.037a.63.63,0,0,0,.1,0h0a4.624,4.624,0,0,1,2.5,1.29,3.374,3.374,0,0,0,2.211,1.036,15.711,15.711,0,0,0,2.744-.173,10.1,10.1,0,0,0,1.537-.28c.243-.092.295-.387.225-.719h0a1.87,1.87,0,0,0-.638-1.076,5.176,5.176,0,0,1-.984-1.227l-.077-.123c.514-.49,1.443-2.093,1.725-2.425.343-.4-.553-15.162-.553-15.162v-7.4l1.373-7,.96-3.706.824-5.595s1.441-6.534,1-7.176h0c0-.013-.369-6.741-.756-8.357a18.323,18.323,0,0,1-.026-3.92.774.774,0,0,0,.184-.807,1.673,1.673,0,0,0-.107-.275v-.085a12.692,12.692,0,0,1,2.482-.844c1.373-.269,1.03-.977,1.03-.977s.31-.606.514-.977a21.3,21.3,0,0,0,0-3.909c-.013-.109-.1-.709-.2-1.391.44-.313,1.014-.7,1.638-1.071C426.733,306.822,426.466,306.079,426.368,305.886Zm-17.912,46.72s-1.03,2.628-.617,3.3-.068,3.17-.068,3.17l-.345,3.706s-.96,6.874-.617,8.49a57.486,57.486,0,0,1,.4,6.634h0a.471.471,0,0,0-.068.033l-.046.024c.158-.621.092-1.878-.695-4.406l-.066-10.443s-.122-12.063.831-13.412a10.151,10.151,0,0,0,1.29-3.639s-.206,3.3-.341,4.179A6.889,6.889,0,0,0,408.456,352.606Zm-1.918,25.957c-.009.022-.02.044-.028.065l-.052-.066a.541.541,0,0,0,.079,0Z" transform="translate(-324.22 -228.901)" fill="url(#linear-gradient)"/>
      <path id="Path_567" data-name="Path 567" d="M471.578,835.172a18.3,18.3,0,0,1-4.227.455,3.279,3.279,0,0,1-2.18-1.041,4.478,4.478,0,0,0-2.466-1.29,1.657,1.657,0,0,1-.553-.077,6.8,6.8,0,0,1-.921-.354,1.711,1.711,0,0,1,.02-.7,1.122,1.122,0,0,1,.041-.136,1.218,1.218,0,0,1,.619-.689l.066-.031a1.879,1.879,0,0,1,.4-.122c1.448-.278,7.424.28,7.424.28s.168.3.4.673a5.142,5.142,0,0,0,.973,1.235,1.889,1.889,0,0,1,.628,1.084C471.87,834.783,471.818,835.082,471.578,835.172Z" transform="translate(-378.754 -681.371)" fill="#fff"/>
      <path id="Path_568" data-name="Path 568" d="M471.589,837.457a18.282,18.282,0,0,1-4.225.455,3.3,3.3,0,0,1-2.182-1.041,4.492,4.492,0,0,0-2.464-1.29,4.27,4.27,0,0,1-1.474-.431,1.527,1.527,0,0,1,.3-1.24l.921.654s2.466.765,2.923,1.474a2.969,2.969,0,0,0,2.493,1.177,23.334,23.334,0,0,0,3.932-.466C471.88,837.068,471.83,837.367,471.589,837.457Z" transform="translate(-378.765 -683.657)" opacity="0.1"/>
      <path id="Path_569" data-name="Path 569" d="M427.977,836.407a24.531,24.531,0,0,0-3.254.153,4.19,4.19,0,0,1-3.282-.864,7.69,7.69,0,0,0-2.338-1.732c-.448-.173-.553-.737-.533-1.264v-.087a5.16,5.16,0,0,1,.147-.99l7.17-.153.621.842.1.129.378.514s.171.225.4.553a7.866,7.866,0,0,1,1.052,1.909h0C428.657,836.281,427.977,836.407,427.977,836.407Z" transform="translate(-343.974 -681.666)" fill="#fff"/>
      <path id="Path_570" data-name="Path 570" d="M427.977,841.864a24.521,24.521,0,0,0-3.254.153,4.185,4.185,0,0,1-3.28-.864,7.473,7.473,0,0,0-2.34-1.729c-.448-.173-.553-.737-.533-1.264a4.091,4.091,0,0,1,2.01.958,4.36,4.36,0,0,0,2.948,1.983c1.135.061,3.9-.142,4.913-.223C428.659,841.739,427.977,841.864,427.977,841.864Z" transform="translate(-343.974 -687.124)" opacity="0.1"/>
      <path id="Path_571" data-name="Path 571" d="M427.093,831.61c-.083.615-.339.781-.523.818a.356.356,0,0,1-.136,0,.454.454,0,0,1-.072-.011s-6.439,1.423-7.74.271a.9.9,0,0,1-.092-.1,5.161,5.161,0,0,1,.147-.99l7.17-.153.621.842a1.218,1.218,0,0,1,.619-.689Z" transform="translate(-343.944 -681.65)" opacity="0.1"/>
      <path id="Path_572" data-name="Path 572" d="M473.586,832.058c-.144.158-.263.249-.339.217-.339-.136-3.118-.61-4-.2s-3.87.066-3.87.066,0-.354-.017-.921a1.875,1.875,0,0,1,.4-.122c1.448-.278,7.425.28,7.425.28S473.358,831.686,473.586,832.058Z" transform="translate(-382.144 -681.298)" opacity="0.1"/>
      <path id="Path_573" data-name="Path 573" d="M435.678,568.418l-.814,5.628-.947,3.73-1.356,7.05v7.463s.881,14.849.542,15.255-1.627,2.714-1.966,2.58-3.118-.61-4-.2-3.87.068-3.87.068a71.337,71.337,0,0,0-.407-7.39c-.339-1.627.61-8.543.61-8.543l.339-3.728s.475-2.51.068-3.188.61-3.317.61-3.317a6.942,6.942,0,0,1-.337-2.375c.136-.881.337-4.2.337-4.2a10.364,10.364,0,0,1-1.279,3.662c-.942,1.354-.822,13.493-.822,13.493l.066,10.5c1.7,5.562,0,5.018,0,5.018s-6.439,1.424-7.74.271-.929-8.414-.929-8.414-.135-5.831.407-7.592.713-8.272.713-8.272-.035-13.019,0-13.9c.026-.737,0-7.336,0-9.4V562l.778-1.931,9.214-1.154H429.3s6.634,1.559,7.32,2.232a.154.154,0,0,1,.037.041C437.1,561.843,435.678,568.418,435.678,568.418Z" transform="translate(-340.03 -459.341)" fill="#00bfa6"/>
      <path id="Path_574" data-name="Path 574" d="M472.11,770.88s2.027,4.881,2.983,5.221S472.11,770.88,472.11,770.88Z" transform="translate(-387.65 -632.242)" opacity="0.1"/>
      <path id="Path_575" data-name="Path 575" d="M476.18,809.88s6.844.339,6.776,1.085S476.18,809.88,476.18,809.88Z" transform="translate(-390.97 -664.055)" opacity="0.1"/>
      <path id="Path_576" data-name="Path 576" d="M426.49,799.29c.271.256,5.221.737,4.813,1.205s-4.406,1.378-4.406,1.378Z" transform="translate(-350.437 -655.416)" opacity="0.1"/>
      <path id="Path_577" data-name="Path 577" d="M422.08,753.59a62.25,62.25,0,0,0,1.29,6.78,10.537,10.537,0,0,0,2.508.542Z" transform="translate(-346.84 -618.138)" opacity="0.1"/>
      <path id="Path_578" data-name="Path 578" d="M430.708,279.494c-.971,1.085-1.391,2.624-2.523,3.542a11.187,11.187,0,0,1-2.357,1.192,3.133,3.133,0,0,0-1.83,1.8c-.265.958.247,1.937.516,2.895a11.986,11.986,0,0,1,.311,3.065c.018,1.255.039,2.51.017,3.765a10.89,10.89,0,0,1-1.233,5.657c3.746,1.192,7.73,1.354,11.659,1.507a11.764,11.764,0,0,0,2.265-.057,19.43,19.43,0,0,0,1.929-.488,14.792,14.792,0,0,1,3.844-.492,6.455,6.455,0,0,0,1.688-.112,1.666,1.666,0,0,0,1.218-1.071,1.989,1.989,0,0,0-.311-1.452c-.457-.8-1.106-1.474-1.6-2.267a6.229,6.229,0,0,1-.4-5.6c.435-1.012,1.135-1.893,1.563-2.906a6.129,6.129,0,0,0-1.235-6.5,9.763,9.763,0,0,0-5.663-2.425,5.143,5.143,0,0,1-2.385-.921,4.082,4.082,0,0,0-2.716-.527A4.434,4.434,0,0,0,430.708,279.494Z" transform="translate(-348.088 -230.236)" fill="#3f3d56"/>
      <g id="Group_244" data-name="Group 244" transform="translate(75.596 55.313)" opacity="0.1">
        <path id="Path_579" data-name="Path 579" d="M531.915,323.475a6.131,6.131,0,0,0-.47,2.814,6.025,6.025,0,0,1,.47-2c.433-1.012,1.133-1.893,1.561-2.906a5.88,5.88,0,0,0,.429-2.676,5.731,5.731,0,0,1-.429,1.861C533.048,321.585,532.348,322.464,531.915,323.475Z" transform="translate(-511.635 -318.71)"/>
        <path id="Path_580" data-name="Path 580" d="M426.533,326.684c.011.722.022,1.447.024,2.169q0-1.493-.024-2.982a11.959,11.959,0,0,0-.311-3.066,15.188,15.188,0,0,1-.553-1.905,6.388,6.388,0,0,0,.553,2.72A11.9,11.9,0,0,1,426.533,326.684Z" transform="translate(-425.335 -320.496)"/>
        <path id="Path_581" data-name="Path 581" d="M445.384,396.448a6.232,6.232,0,0,1-1.686.112,14.782,14.782,0,0,0-3.842.483,19.568,19.568,0,0,1-1.929.487,11.642,11.642,0,0,1-2.267.059,45.578,45.578,0,0,1-11.281-1.395,6.244,6.244,0,0,1-.369.7c3.746,1.19,7.73,1.354,11.657,1.507a11.642,11.642,0,0,0,2.267-.059,19.059,19.059,0,0,0,1.922-.485,14.781,14.781,0,0,1,3.835-.488,6.363,6.363,0,0,0,1.686-.114,1.667,1.667,0,0,0,1.218-1.069,1.463,1.463,0,0,0-.018-.767A1.72,1.72,0,0,1,445.384,396.448Z" transform="translate(-424.01 -381.284)"/>
      </g>
      <path id="Path_582" data-name="Path 582" d="M454.55,341.153c-.136.306-.711,2.948-.848,3.219s-.881,4.607-.949,4.85-4.907-1.017-4.907-1.017l-2.913-2.442-2.995-2.98s-.088-2.689,2.117-3.551a3.36,3.36,0,0,1,.461-.144c2.676-.643,2.407-8.779,2.407-8.779l5.491,2.372a56.888,56.888,0,0,0-.982,5.663c.009.308.251.5.566.615a4.471,4.471,0,0,0,1.5.162S454.686,340.849,454.55,341.153Z" transform="translate(-363.038 -272.859)" fill="#fbbebe"/>
      <path id="Path_583" data-name="Path 583" d="M531.615,435.735l.779.2s.577.877-.779,1.694a23.494,23.494,0,0,0-2.475,1.73l-4.008,1.22-.772-2.423,3.73-2.83Z" transform="translate(-430.272 -358.526)" fill="#00bfa6"/>
      <path id="Path_584" data-name="Path 584" d="M531.615,435.735l.779.2s.577.877-.779,1.694a23.494,23.494,0,0,0-2.475,1.73l-4.008,1.22-.772-2.423,3.73-2.83Z" transform="translate(-430.272 -358.526)" opacity="0.1"/>
      <path id="Path_585" data-name="Path 585" d="M398.1,448.28l-1.559,1.526s2.812,3.254,4.976,3.457,3.558-2.475,3.558-2.475L403.2,447.84Z" transform="translate(-326.006 -368.731)" fill="#00bfa6"/>
      <path id="Path_586" data-name="Path 586" d="M398.1,448.28l-1.559,1.526s2.812,3.254,4.976,3.457,3.558-2.475,3.558-2.475L403.2,447.84Z" transform="translate(-326.006 -368.731)" opacity="0.1"/>
      <circle id="Ellipse_105" data-name="Ellipse 105" cx="5.423" cy="5.423" r="5.423" transform="translate(81.478 51.921)" opacity="0.1"/>
      <circle id="Ellipse_106" data-name="Ellipse 106" cx="5.423" cy="5.423" r="5.423" transform="translate(81.478 51.514)" fill="#fbbebe"/>
      <path id="Path_587" data-name="Path 587" d="M441.831,561.832a17.506,17.506,0,0,0-3.628.813c-2.027.674-17.912.011-18.133,0v-.61l.778-1.931,9.214-1.154h4.408s6.634,1.559,7.319,2.232C441.817,561.587,441.831,561.832,441.831,561.832Z" transform="translate(-345.2 -459.366)" opacity="0.1"/>
      <path id="Path_588" data-name="Path 588" d="M454.55,379.443c-.136.306-.711,2.948-.848,3.219s-.881,4.607-.949,4.85-4.907-1.017-4.907-1.017l-2.913-2.442-2.995-2.98s-.088-2.689,2.117-3.551l5.477,6.3L452,377.25a4.472,4.472,0,0,0,1.5.162S454.686,379.139,454.55,379.443Z" transform="translate(-363.038 -311.149)" opacity="0.1"/>
      <path id="Path_589" data-name="Path 589" d="M425.674,382.774l-5.606-6.45a2.349,2.349,0,0,0-2.224-.164c-1.255.544-2.814.984-3.221,1.255a25.123,25.123,0,0,0-1.933,1.948l4.544,11.888-2,7.83s.306,4-.474,5.458a5.991,5.991,0,0,0-.645,3.017,10.476,10.476,0,0,1-.033,2.948,4.911,4.911,0,0,0-.035,2.068s16.1.678,18.137,0a17.357,17.357,0,0,1,3.628-.813s-.369-6.781-.737-8.409.306-7.83.306-7.83l-.44-6.645,2.643-6.818s-1.432-4.371-2.924-4.811a28.975,28.975,0,0,1-3.288-.949,11.527,11.527,0,0,0-2.272-.577l-.89.3Z" transform="translate(-339.18 -309.901)" fill="#00bfa6"/>
      <rect id="Rectangle_510" data-name="Rectangle 510" width="12.907" height="19.751" rx="2.94" transform="translate(81.979 77.912) rotate(3.89)" opacity="0.1"/>
      <rect id="Rectangle_511" data-name="Rectangle 511" width="12.907" height="19.751" rx="2.94" transform="translate(82.385 77.507) rotate(3.89)" fill="#3f3d56"/>
      <rect id="Rectangle_512" data-name="Rectangle 512" width="11.245" height="16.994" transform="translate(83.114 79.043) rotate(3.89)" fill="#fff"/>
      <rect id="Rectangle_513" data-name="Rectangle 513" width="9.187" height="2.56" transform="translate(84.162 83.492) rotate(4.004)" opacity="0.1"/>
      <rect id="Rectangle_514" data-name="Rectangle 514" width="1.458" height="1.334" transform="translate(91.541 94.185) rotate(3.89)" opacity="0.1"/>
      <rect id="Rectangle_515" data-name="Rectangle 515" width="7.461" height="1.334" transform="translate(84.116 90.565) rotate(3.89)" opacity="0.1"/>
      <rect id="Rectangle_516" data-name="Rectangle 516" width="7.769" height="2.051" transform="translate(85.193 78.645) rotate(3.89)" fill="#3f3d56"/>
      <rect id="Rectangle_517" data-name="Rectangle 517" width="7.769" height="2.051" transform="translate(85.193 78.645) rotate(3.89)" opacity="0.1"/>
      <path id="Path_590" data-name="Path 590" d="M474.823,572.56s-.068,10.036-2.713,15.8c0,0,3.188-7.594,3.188-7.9s1.762-3.492,1.29-4.441S474.823,572.56,474.823,572.56Z" transform="translate(-387.65 -470.468)" opacity="0.1"/>
      <path id="Path_591" data-name="Path 591" d="M458.74,294.911a3.772,3.772,0,0,1,.614-2.526,3.112,3.112,0,0,0,2.407,3.28.407.407,0,0,1-.116-.446,13.652,13.652,0,0,0,1.095,1.31,1.455,1.455,0,0,0,1.572.334c.684-.369.691-1.34.514-2.1a9.84,9.84,0,0,0-2.265-4.325,3,3,0,0,0-2.377-1.209,5.848,5.848,0,0,0-3.072.481,8.164,8.164,0,0,0-1.474,1.03l-2.58,2.1a2.449,2.449,0,0,0-.627.66,1.806,1.806,0,0,0-.2.691,3.724,3.724,0,0,0,1.736,3.514,2.748,2.748,0,0,1,1.646-2.58.715.715,0,0,1,.256.533l.544-.969a1.068,1.068,0,0,1,.369-.437.962.962,0,0,1,1.039.293,1.855,1.855,0,0,0,.947.625l.015-1.443" transform="translate(-371.424 -239.331)" opacity="0.1"/>
      <path id="Path_592" data-name="Path 592" d="M458.773,293.81a3.774,3.774,0,0,1,.614-2.528,3.114,3.114,0,0,0,2.409,3.28.4.4,0,0,1-.116-.444,13.88,13.88,0,0,0,1.095,1.31,1.447,1.447,0,0,0,1.572.332c.684-.369.691-1.34.514-2.093a9.84,9.84,0,0,0-2.265-4.325,3.624,3.624,0,0,0-1.266-.984,3.686,3.686,0,0,0-1.106-.225,5.847,5.847,0,0,0-3.072.479,8.267,8.267,0,0,0-1.474,1.032l-2.58,2.1a2.422,2.422,0,0,0-.627.66,1.8,1.8,0,0,0-.2.691,3.722,3.722,0,0,0,1.736,3.512,2.751,2.751,0,0,1,1.646-2.58.72.72,0,0,1,.256.533l.542-.966a1.056,1.056,0,0,1,.369-.437.962.962,0,0,1,1.039.293,1.867,1.867,0,0,0,.947.625l.015-1.445" transform="translate(-371.457 -238.432)" fill="#3f3d56"/>
      <path id="Path_593" data-name="Path 593" d="M429.081,458.292c-.474-.24-8.305.982-8.305.982a44.816,44.816,0,0,0-4.408-.881,3.953,3.953,0,0,1-3.317-3.56l-.341-6.1,1.052-.921,4.507,2.948a14.566,14.566,0,0,1,0,1.76,2.483,2.483,0,0,0-.151.553.184.184,0,0,0,.151.166c.306.077,4.474.752,4.474.752s9.662-.662,12.07,2.593a2.446,2.446,0,0,1,.426.8C435.837,459.609,429.511,458.5,429.081,458.292Z" transform="translate(-339.196 -368.706)" fill="#fbbebe"/>
      <path id="Path_594" data-name="Path 594" d="M458.553,480.744c-.369.164-.6.282-.6.282a22.459,22.459,0,0,1-5.4-.805,12.683,12.683,0,0,0-4.3-.579s-8.093-1.393-6.839-3.212a.184.184,0,0,0,.151.166c.306.077,4.474.752,4.474.752s9.662-.662,12.07,2.593A2.446,2.446,0,0,1,458.553,480.744Z" transform="translate(-362.504 -392.052)" opacity="0.1"/>
      <path id="Path_595" data-name="Path 595" d="M461.941,441.58s.475,3.356.509,3.628a21.714,21.714,0,0,1,0,3.932c-.2.374-.509.982-.509.982s.339.711-1.017.984a13.92,13.92,0,0,0-2.948,1.084,22.1,22.1,0,0,1-5.39-.813,12.439,12.439,0,0,0-4.3-.577s-10.273-1.764-5.866-3.916a6.783,6.783,0,0,1,7.526.763l4.915-.3s1.832-1.12,2.34-1.017a1.882,1.882,0,0,0,1.05-.17l.035-3.56Z" transform="translate(-362.53 -363.624)" fill="#fbbebe"/>
      <path id="Path_596" data-name="Path 596" d="M400.446,396.652l-.984-.052-2.982,11.609s3.219-.815,4.607,0a11.179,11.179,0,0,0,3.932.982l-.949-9.254Z" transform="translate(-325.957 -326.933)" opacity="0.1"/>
      <path id="Path_597" data-name="Path 597" d="M400.446,395.542l-.984-.052L396.48,407.1s3.219-.815,4.607,0a11.179,11.179,0,0,0,3.932.982l-.949-9.254Z" transform="translate(-325.957 -326.028)" fill="#00bfa6"/>
      <path id="Path_598" data-name="Path 598" d="M530.746,409.57l1.354.306s3.459,4.975,3.73,5.254-1.29,1.29-1.933,1.29-3.8.369-4.712,1.22-.534-3.433-.534-3.531,1.137-2.8,1.137-2.8Z" transform="translate(-433.708 -337.513)" opacity="0.1"/>
      <path id="Path_599" data-name="Path 599" d="M530.746,408.47l1.354.3s3.459,4.985,3.73,5.256-1.29,1.29-1.933,1.29-3.8.369-4.712,1.22-.534-3.433-.534-3.531,1.144-2.81,1.144-2.81Z" transform="translate(-433.708 -336.616)" fill="#00bfa6"/>
      <g id="Group_245" data-name="Group 245" transform="translate(80.801 52.442)" opacity="0.1">
        <path id="Path_600" data-name="Path 600" d="M459.376,303.554a2.719,2.719,0,0,1,.009-.424,3.773,3.773,0,0,0-.568,1.391v.514c0,.3,0,.6-.009.9h-.026v.138a.734.734,0,0,0-.009-.142,1.96,1.96,0,0,1-.907-.615c-.275-.247-.7-.483-1.039-.293a1.056,1.056,0,0,0-.369.437l-.547.966a.713.713,0,0,0-.256-.531,2.748,2.748,0,0,0-1.646,2.58,3.744,3.744,0,0,1-1.749-2.936,3.726,3.726,0,0,0,1.749,3.341,2.751,2.751,0,0,1,1.646-2.58.72.72,0,0,1,.256.533l.542-.966a1.056,1.056,0,0,1,.369-.437.962.962,0,0,1,1.039.293,1.867,1.867,0,0,0,.947.625q0-.708.015-1.412a3.754,3.754,0,0,1,.553-1.38Z" transform="translate(-452.256 -303.13)"/>
        <path id="Path_601" data-name="Path 601" d="M487.492,311.617c.009-.125.024-.251.042-.369l.02-.509A3.728,3.728,0,0,0,487.492,311.617Z" transform="translate(-480.995 -309.338)"/>
        <path id="Path_602" data-name="Path 602" d="M505.939,320.162a1.451,1.451,0,0,1-1.572-.332,13.651,13.651,0,0,1-1.095-1.31.407.407,0,0,0,.116.446.436.436,0,0,1-.107-.028,12.18,12.18,0,0,0,1.085,1.29,1.463,1.463,0,0,0,1.572.332,1.506,1.506,0,0,0,.6-1.513A1.279,1.279,0,0,1,505.939,320.162Z" transform="translate(-493.852 -315.684)"/>
        <path id="Path_603" data-name="Path 603" d="M493.175,308.648a3.133,3.133,0,0,1-2.3-2.738,3.113,3.113,0,0,0,2.414,3.175A.406.406,0,0,1,493.175,308.648Z" transform="translate(-483.756 -305.398)"/>
      </g>
      <path id="Path_604" data-name="Path 604" d="M809.771,304.705s-.726-.1-.726-1.157a16.6,16.6,0,0,0-.52-3.033h0s-.45-3.44-1.071-3.986-1.419-3.748-1.419-3.748a7.554,7.554,0,0,0-.415-2.112,17.949,17.949,0,0,1-1.209-2.6c-.555-1.307-2.862-2.2-2.862-2.2s-4.181-2.425-5.366-3.216h0a1.828,1.828,0,0,1-.3-.229c-.206-.269-1.106-.275-1.106-.275a18.223,18.223,0,0,1-.214-1.894v-.2a6.376,6.376,0,0,0,2.8-3.468c.022-.07.041-.142.061-.214a.6.6,0,0,0,.369-.324,6.489,6.489,0,0,1,.241-.737,2.732,2.732,0,0,1,.682-.6,2.585,2.585,0,0,0,.709-2.1c-.018-.619-.118-1.242-.079-1.856a.735.735,0,0,1,.011-.155c.011-.09.024-.184.041-.273.09-.457.287-.888.4-1.342a1.726,1.726,0,0,0-.136-1.354,2.318,2.318,0,0,0-1.856-.737c-.783-.066-1.474.018-1.985-.632a6.965,6.965,0,0,0-.789-.951c-.1-.1-1.106-.709-1.106-.748a4.48,4.48,0,0,0-3.133-.241c-.521.151-1.01.4-1.539.521-1.135.269-2.444-.022-3.409.628a4.023,4.023,0,0,0-1.163,1.526q-.369.7-.748,1.41a9.068,9.068,0,0,0-.993,2.412,4.071,4.071,0,0,0-.068.566h0v.293a1.006,1.006,0,0,0,.011.184,1.063,1.063,0,0,0,.013.114c.013.039.017.125.028.184s.033.164.055.243a.374.374,0,0,0,.033.1c.011.035.041.123.065.184s.026.065.041.1a1.708,1.708,0,0,0,.094.184c.015.024.026.048.041.072a2.1,2.1,0,0,0,.169.247c.393.492.975.805,1.4,1.266v.206a6.308,6.308,0,0,0,2.889,5.141c0,.07.009.142.013.214a10.518,10.518,0,0,1-.02,1.64.778.778,0,0,0-.612-.273.877.877,0,0,0-.236.02l-.017-.013h0v.017c-.405.1-.9.522-1.382,1.721,0,0-1.452,1.636-2.558,1.568s-3.9,1.7-3.9,1.7-2.731,1.771-3.317,3.577a25.015,25.015,0,0,1-1.177,3l-3.385,6.951h0l-.621,5.528a25.565,25.565,0,0,1,.276,2.829,27.145,27.145,0,0,0,1.417,3.748s4.907,8.62,6.912,9.063l.144-.1a1.255,1.255,0,0,0,.271.1l.413-.289a4.316,4.316,0,0,1-.033.971,25.7,25.7,0,0,0,.588,7.5c.483,1.089.311,15.371.311,15.371l-.068,1.259a.534.534,0,0,0,.017.111l-.017.3.05.026a3.561,3.561,0,0,1-.05,1.2,13.321,13.321,0,0,0-.243,2.114s-1.382,8.823-.726,10.6,1.211,3.715,1.211,3.715.691,2.211.033,2.58-2.521,1.023-2.141,1.942c.35.851,1.679,3.133,1.876,3.466l-.017.184-.271,2.936a3.686,3.686,0,0,0,.311,1.12,1.927,1.927,0,0,0,1.97,1.231c.184-.013.4-.033.6-.061a26.184,26.184,0,0,0,4.476-1.166,1.767,1.767,0,0,1-.348-.289h0a1.012,1.012,0,0,1-.308-.737,21.454,21.454,0,0,0-1.222-3.71l-.057-.14s2.281-2.386,1.9-4.5c0,0-2.525-1.474-1.693-2.285a25.89,25.89,0,0,0,2.316-3.133s.068-8.689,0-9.984a10.766,10.766,0,0,1,.127-2.7c.028-.133.061-.264.1-.394a23.543,23.543,0,0,0,3.476.263q.638,0,1.29-.026,0,.184.017.4c.1,2.152.275,5.928.42,7.331.206,2.009,1.347,7.428,1.347,7.428s-2.176,1.395.38,4.839a4.673,4.673,0,0,1-.169,1.428h0a15.583,15.583,0,0,0-.437,1.8,3.165,3.165,0,0,0,.022,1.644c.415.815,2.9.748,2.9.748h0a.39.39,0,0,1,.061-.009,3.551,3.551,0,0,1,2.633.792c.945.759,4.531.427,6.475.184.761-.1,1.27-.184,1.27-.184a.746.746,0,0,0,.026-.265h0c-.02-.477-.394-1.524-2.93-2.458,0,0-2.385-1.6-2.351-3h-.328c.173-.005.295-.005.295-.005s-.934-3.407-.553-3.686-.761-4.054-.761-4.054-.654-6.339-.691-6.781a3.9,3.9,0,0,1,.173-1.124l-.173-3.477s-.033-1.155,0-1.531a7.2,7.2,0,0,0-.077-.975c-.017-.129-.033-.264-.052-.4.894-.227,1.474-.435,1.474-.435l-.1-12.1c.759-1.474.9-4.71.9-7,0-1.474-.066-2.565-.066-2.565l1.037-1.693s.24-2.027-.14-2.471a.425.425,0,0,1,.046-.58,1.92,1.92,0,0,1,.23-.162.292.292,0,0,1-.024-.041,1.849,1.849,0,0,1,.23-.164s-.369-.571-.039-.813c.31.21.586.378.8.5-.015.135-.03.212-.03.212l.089-.184.326.184a24.687,24.687,0,0,0,1.59-3.713,10.87,10.87,0,0,1,1.106-2.488,2.493,2.493,0,0,1,.761-1.5c.623-.442.483-3.647.483-3.647a7.836,7.836,0,0,1,.588-2.35C810.556,305.63,809.771,304.705,809.771,304.705Zm-31.1-1.421.031.772-.317-.509Z" transform="translate(-631.053 -218.894)" fill="url(#linear-gradient-2)"/>
      <path id="Path_605" data-name="Path 605" d="M942.591,538.18l-.4,1.7s-3.188-1.631-3.761-3.695a2.341,2.341,0,0,1,.96-2.851l2.972,1.257Z" transform="translate(-767.935 -438.467)" fill="#fff"/>
      <path id="Path_606" data-name="Path 606" d="M942.591,538.18l-.4,1.7s-3.188-1.631-3.761-3.695a2.341,2.341,0,0,1,.96-2.851l2.972,1.257Z" transform="translate(-767.935 -438.467)" opacity="0.1"/>
      <path id="Path_607" data-name="Path 607" d="M832.544,843.084a22.911,22.911,0,0,1-4.975,1.22,1.893,1.893,0,0,1-1.933-1.224,3.742,3.742,0,0,1-.306-1.106l.267-2.921.14-1.554,4.307-1.12.61,1.867.057.14a21.809,21.809,0,0,1,1.2,3.686,1.012,1.012,0,0,0,.3.737A1.709,1.709,0,0,0,832.544,843.084Z" transform="translate(-675.78 -685.672)" fill="#fff"/>
      <path id="Path_608" data-name="Path 608" d="M915.163,840.7a.735.735,0,0,1-.026.265s-6.306,1.05-7.6,0a3.415,3.415,0,0,0-2.646-.779s-2.44.066-2.847-.737a3.193,3.193,0,0,1-.02-1.635,15.691,15.691,0,0,1,.427-1.791l.1-.077.581-.466,6.8-.2h.052c-.033,1.389,2.305,2.983,2.305,2.983C914.776,839.185,915.143,840.226,915.163,840.7Z" transform="translate(-738.268 -684.774)" fill="#fff"/>
      <path id="Path_609" data-name="Path 609" d="M915.16,851.917a.759.759,0,0,1-.028.265s-6.306,1.05-7.594,0a3.415,3.415,0,0,0-2.648-.779s-2.442.066-2.849-.737a3.22,3.22,0,0,1-.02-1.636,6.058,6.058,0,0,1,3.006.888,6.705,6.705,0,0,0,3.288,1.764C909.037,851.726,913.332,851.862,915.16,851.917Z" transform="translate(-738.263 -695.99)" opacity="0.1"/>
      <path id="Path_610" data-name="Path 610" d="M833.9,871.512a22.908,22.908,0,0,1-4.975,1.22,1.893,1.893,0,0,1-1.933-1.224,4.028,4.028,0,0,0,2.34.275,20.726,20.726,0,0,1,4.238-.553A1.673,1.673,0,0,0,833.9,871.512Z" transform="translate(-677.134 -714.099)" opacity="0.1"/>
      <path id="Path_611" data-name="Path 611" d="M866.519,349.919c-2.432-.945-5.562-4.069-4.78-5.528a3.3,3.3,0,0,0,.3-1.172,10.7,10.7,0,0,0,.022-1.659,22.8,22.8,0,0,0-.326-2.7s7.594.171,7.152,1.29a4.15,4.15,0,0,0-.114,1.535c.037.636.127,1.36.223,1.97.131.835.265,1.474.265,1.474s-.466.651-.737.686S870.01,351.273,866.519,349.919Z" transform="translate(-705.38 -279.833)" fill="#cf6f80"/>
      <path id="Path_612" data-name="Path 612" d="M831.854,838.337l-.057.063c-2.27-2.746-5.016.678-5.016.678L826.74,839l.14-1.554,4.307-1.12.61,1.867Z" transform="translate(-676.93 -685.631)" opacity="0.1"/>
      <path id="Path_613" data-name="Path 613" d="M912.313,835.441a4.369,4.369,0,0,0-2.543.748c-.885.781-5.16.168-4.975,0a.639.639,0,0,0,.1-.282l.58-.466,6.8-.2C912.293,835.369,912.313,835.441,912.313,835.441Z" transform="translate(-740.596 -684.742)" opacity="0.1"/>
      <path id="Path_614" data-name="Path 614" d="M826.368,703.209a5.176,5.176,0,0,0-.28.945,10.82,10.82,0,0,0-.127,2.683c.068,1.29,0,9.934,0,9.934a26.3,26.3,0,0,1-2.272,3.118c-.815.813,1.659,2.272,1.659,2.272.369,2.1-1.865,4.476-1.865,4.476-2.27-2.746-5.016.676-5.016.676s-1.493-2.58-1.865-3.5,1.458-1.557,2.1-1.933-.033-2.58-.033-2.58-.542-1.933-1.187-3.7.711-10.541.711-10.541a13.621,13.621,0,0,1,.238-2.1,3.565,3.565,0,0,0,.05-1.194c-.011-.135-.024-.245-.033-.323s-.017-.111-.017-.111l.026-.044.921-1.717S826.81,702.128,826.368,703.209Z" transform="translate(-668.619 -574.073)" fill="#00bfa6"/>
      <path id="Path_615" data-name="Path 615" d="M903.5,732.588a4.4,4.4,0,0,0-2.543.737c-.885.772-5.16.17-4.976,0s.168-1.423.168-1.423c-2.508-3.426-.369-4.815-.369-4.815s-1.119-5.39-1.321-7.39c-.142-1.4-.317-5.16-.411-7.292-.041-.921-.065-1.557-.065-1.557l2.031-.4.263-.052,4.942-.993s.136.921.229,1.675a7.358,7.358,0,0,1,.076.971c-.031.369,0,1.524,0,1.524l.17,3.457a3.987,3.987,0,0,0-.17,1.119c.035.442.678,6.746.678,6.746s1.119,3.763.737,4.034S903.5,732.588,903.5,732.588Z" transform="translate(-731.779 -582.091)" fill="#00bfa6"/>
      <path id="Path_616" data-name="Path 616" d="M869.432,340.18a4.151,4.151,0,0,0-.114,1.535,6.311,6.311,0,0,1-6.711-.125,22.787,22.787,0,0,0-.326-2.7S869.874,339.061,869.432,340.18Z" transform="translate(-705.921 -279.858)" opacity="0.1"/>
      <path id="Path_617" data-name="Path 617" d="M861.188,295.9a6.3,6.3,0,0,1-12.608.151V295.9a6.306,6.306,0,1,1,12.612,0Z" transform="translate(-694.745 -239.643)" fill="#cf6f80"/>
      <path id="Path_618" data-name="Path 618" d="M866.519,369.21c-2.432-.945-5.562-4.069-4.78-5.528a3.3,3.3,0,0,0,.3-1.172l3.33,2.738,2.06,1.69L869,362.952c.131.835.265,1.474.265,1.474s-.466.651-.737.686S870.01,370.565,866.519,369.21Z" transform="translate(-705.38 -299.125)" opacity="0.1"/>
      <path id="Path_619" data-name="Path 619" d="M849.06,361.487,846.279,408.2l-3.627.238-9.393-27.087,1.541-32.158.326-6.794,4.176,3.429,2.06,1.69,1.612-4.1,3,2.613Z" transform="translate(-679.309 -279.301)" fill="#00bfa6"/>
      <path id="Path_620" data-name="Path 620" d="M834.67,703.275a5.171,5.171,0,0,0-.28.945,26.722,26.722,0,0,1-7.611-2.375l-.05-.026.017-.3v-.155l.921-1.718S835.113,702.193,834.67,703.275Z" transform="translate(-676.922 -574.138)" opacity="0.1"/>
      <path id="Path_621" data-name="Path 621" d="M896.023,716.806a18.672,18.672,0,0,1-2.038.234c-.041-.921-.065-1.557-.065-1.557l2.042-.413Z" transform="translate(-731.73 -586.716)" opacity="0.1"/>
      <path id="Path_622" data-name="Path 622" d="M911.641,711.075a14.31,14.31,0,0,1-5.145.485l-.026-1.167,4.942-.993S911.543,710.314,911.641,711.075Z" transform="translate(-741.968 -582.091)" opacity="0.1"/>
      <path id="Path_623" data-name="Path 623" d="M800.639,427.483c-7.555,1.29-14.475-2.409-14.475-2.409l.066-1.253s.171-14.206-.3-15.3a25.824,25.824,0,0,1-.577-7.447c.269-.842-.982-13.557-.982-13.557l-.2-5.16-7.425-3.017,3.317-6.916a24.992,24.992,0,0,0,1.154-2.985c.577-1.8,3.254-3.56,3.254-3.56s2.746-1.762,3.831-1.7,2.508-1.559,2.508-1.559c1.05-2.678,2-1.474,2-1.474a2.367,2.367,0,0,1-.052.4c-.369,2.939,5.96,12.227,6.05,12.393h0l.61,14.68.61,18.577Z" transform="translate(-636.144 -297.801)" opacity="0.1"/>
      <path id="Path_624" data-name="Path 624" d="M799.514,427.483c-7.555,1.29-14.477-2.409-14.477-2.409l.068-1.253s.169-14.206-.306-15.295a25.824,25.824,0,0,1-.575-7.46c.271-.85-.988-13.552-.988-13.552l-.2-5.16-7.423-3.017,3.317-6.916a25.385,25.385,0,0,0,1.154-2.983c.577-1.791,3.264-3.557,3.264-3.557s2.746-1.762,3.829-1.7,2.514-1.557,2.514-1.557c1.052-2.678,2.211-1.474,2.211-1.474,0,.129-.111.184-.052.4.811,2.851,5.757,12.227,5.847,12.393h0l.61,14.68.6,18.586Z" transform="translate(-635.222 -297.801)" fill="#fff"/>
      <path id="Path_625" data-name="Path 625" d="M863.47,376.222c-.813-.339-5.117-5.254-5.117-5.254V369.85c-.157-.369-1.089-.144-1.843.114l.324-6.794.369.306C858.008,366.325,863.382,376.058,863.47,376.222Z" transform="translate(-701.214 -299.664)" opacity="0.1"/>
      <path id="Path_626" data-name="Path 626" d="M864.572,374.047c-.815-.341-5.119-5.254-5.119-5.254v-1.12c-.157-.369-1.087-.144-1.843.114l.319-6.787.369.3C859.11,364.149,864.482,373.881,864.572,374.047Z" transform="translate(-702.111 -297.893)" fill="#fff"/>
      <path id="Path_627" data-name="Path 627" d="M826.045,562.4c.1,0,5.254-.542,5.254-.542s3.12,6.136,2.915,7.627-.575,2.814-1.83,2.58a55.707,55.707,0,0,0-6.754.184Z" transform="translate(-676.024 -461.739)" opacity="0.1"/>
      <path id="Path_628" data-name="Path 628" d="M824.935,560.192c.1,0,5.256-.542,5.256-.542s3.118,6.146,2.915,7.62-.577,2.814-1.83,2.58a55.741,55.741,0,0,0-6.756.184Z" transform="translate(-675.119 -459.937)" fill="#fff"/>
      <path id="Path_629" data-name="Path 629" d="M835.368,547s4.729,2.543,4.83,3.317-2.407-.339-2.948-.475a7.035,7.035,0,0,0-1.085-.17l-3.614.1Z" transform="translate(-681.669 -449.618)" fill="#cf6f80"/>
      <circle id="Ellipse_107" data-name="Ellipse 107" cx="0.498" cy="0.498" r="0.498" transform="translate(160.437 75.881)" opacity="0.1"/>
      <circle id="Ellipse_108" data-name="Ellipse 108" cx="0.498" cy="0.498" r="0.498" transform="translate(160.437 75.678)" fill="#3f3d56"/>
      <circle id="Ellipse_109" data-name="Ellipse 109" cx="0.498" cy="0.498" r="0.498" transform="translate(161.353 97.419)" opacity="0.1"/>
      <circle id="Ellipse_110" data-name="Ellipse 110" cx="0.498" cy="0.498" r="0.498" transform="translate(161.353 97.215)" fill="#3f3d56"/>
      <circle id="Ellipse_111" data-name="Ellipse 111" cx="0.498" cy="0.498" r="0.498" transform="translate(160.935 86.65)" opacity="0.1"/>
      <circle id="Ellipse_112" data-name="Ellipse 112" cx="0.498" cy="0.498" r="0.498" transform="translate(160.935 86.447)" fill="#3f3d56"/>
      <path id="Path_630" data-name="Path 630" d="M910.937,400.937s.339.509,0,.737.033.815.033.815-.846.494-.474.942.136,2.458.136,2.458l-1.017,1.694s.061,1.085.064,2.552c0,2.289-.135,5.506-.879,6.973l.1,12.035a16.345,16.345,0,0,1-6.544.9l-.442-19.312s.645-10.952.883-13.052a21.873,21.873,0,0,0,.17-3.289,36.714,36.714,0,0,0-.442-4.811s-.369-6.612-.405-8.442c-.017-.875.029-3.429.081-5.858.057-2.655.122-5.16.122-5.16l-.673-5.324s.673-.066.875.2a1.942,1.942,0,0,0,.295.227h0c1.163.785,5.265,3.2,5.265,3.2s2.27.9,2.814,2.2a19.14,19.14,0,0,0,1.185,2.58,7.962,7.962,0,0,1,.407,2.1s.781,3.188,1.391,3.728S914.931,383,914.931,383l-5.39,4.238s-.474,7.05-.575,7.323S910.937,400.937,910.937,400.937Z" transform="translate(-738.035 -300.986)" fill="#fff"/>
      <path id="Path_631" data-name="Path 631" d="M911.117,400.651s.337.509,0,.737.031.815.031.815-.846.494-.474.942.136,2.458.136,2.458L909.8,407.3s.061,1.085.066,2.552c0,2.289-.135,5.506-.879,6.973l.1,12.035a16.345,16.345,0,0,1-6.544.9l-.44-19.312s.643-10.952.883-13.052a21.664,21.664,0,0,0,.168-3.289,36.927,36.927,0,0,0-.44-4.812s-.369-6.612-.407-8.442c-.017-.875.029-3.429.081-5.858.057-2.655.122-5.16.122-5.16l-.888-5.4s.888,0,1.093.275a1.747,1.747,0,0,0,.295.227h0c1.161.785,5.263,3.2,5.263,3.2s2.265.9,2.818,2.2a20.433,20.433,0,0,0,1.185,2.58,7.964,7.964,0,0,1,.407,2.1s.781,3.188,1.391,3.728,1.05,3.967,1.05,3.967l-5.39,4.238s-.474,7.05-.577,7.323S911.117,400.651,911.117,400.651Z" transform="translate(-738.011 -300.7)" fill="#fff"/>
      <path id="Path_632" data-name="Path 632" d="M905.552,373.195l.488,1.419-2.563,2.58c.057-2.655.122-5.16.122-5.16l-.888-5.394s.888,0,1.093.275a1.752,1.752,0,0,0,.295.227h0l2.178,6.282Z" transform="translate(-738.9 -302.494)" opacity="0.1"/>
      <path id="Path_633" data-name="Path 633" d="M904.422,370.968l.488,1.417-2.561,2.58c.055-2.655.122-5.16.122-5.16l-.89-5.4s.89,0,1.093.275a1.843,1.843,0,0,0,.295.227h0l2.191,6.288Z" transform="translate(-737.979 -300.675)" fill="#fff"/>
      <path id="Path_634" data-name="Path 634" d="M861.188,295.9a6.285,6.285,0,0,1-.31,1.955.262.262,0,0,1-.2-.048,8.154,8.154,0,0,0-1.869-4.542,4.808,4.808,0,0,0-1.013-1.05,1.985,1.985,0,0,0-1.375-.389c-.553.076-1.041.451-1.6.5-.737.061-1.4-.45-2.128-.474a2.086,2.086,0,0,0-1.565.726,4.269,4.269,0,0,0-.839,1.553,9.1,9.1,0,0,0-.468,2.683c-.009.516-.059,1.163-.538,1.351a2.746,2.746,0,0,0-.695-2.1l-.011-.013V295.9a6.306,6.306,0,1,1,12.612,0Z" transform="translate(-694.745 -239.643)" opacity="0.1"/>
      <path id="Path_635" data-name="Path 635" d="M849.01,267.652a4.342,4.342,0,0,0-3.063-.24c-.51.151-.991.4-1.509.52-1.106.267-2.4-.022-3.345.625a3.993,3.993,0,0,0-1.139,1.518l-.737,1.4a9.113,9.113,0,0,0-.975,2.4,3.064,3.064,0,0,0,.47,2.475c.389.494.968.805,1.391,1.272a2.764,2.764,0,0,1,.693,2.106c.479-.184.527-.835.538-1.351a9.111,9.111,0,0,1,.468-2.683,4.268,4.268,0,0,1,.838-1.553,2.088,2.088,0,0,1,1.565-.728c.737.026,1.4.536,2.128.474.553-.046,1.043-.422,1.6-.5a1.975,1.975,0,0,1,1.375.389,4.72,4.72,0,0,1,1.012,1.05,8.119,8.119,0,0,1,1.87,4.542c.208.151.509-.048.612-.284a6.722,6.722,0,0,1,.238-.737,2.724,2.724,0,0,1,.667-.6,2.608,2.608,0,0,0,.7-2.088,10.4,10.4,0,0,1-.026-2.27c.087-.455.282-.885.389-1.336a1.747,1.747,0,0,0-.133-1.347,2.275,2.275,0,0,0-1.821-.737c-.768-.066-1.456.018-1.946-.628a7.2,7.2,0,0,0-.774-.947C849.992,268.3,849.01,267.693,849.01,267.652Z" transform="translate(-686.252 -221.411)" fill="#512e4e"/>
      <path id="Path_636" data-name="Path 636" d="M777.064,464.608l-1.924-3.558-.61,5.491a25.463,25.463,0,0,1,.271,2.814,27.053,27.053,0,0,0,1.389,3.728s4.815,8.578,6.781,9.019l6.634-4.747-1.762-2.237s-.61-.238-.763,0c0,0-3.273-5.628-3.61-6.033a2.05,2.05,0,0,1-.273-1.222s-.509-.542-.339-1.05-.973-2.27-.973-2.27l1.05-.982Z" transform="translate(-634.341 -379.506)" opacity="0.1"/>
      <path id="Path_637" data-name="Path 637" d="M773.439,458.84l-.509.407-.61,5.491a25.448,25.448,0,0,1,.271,2.814,27.036,27.036,0,0,0,1.391,3.728s4.813,8.578,6.78,9.019l6.645-4.747-1.764-2.237s-.61-.238-.763,0c0,0-3.271-5.628-3.61-6.033A2.029,2.029,0,0,1,781,466.06s-.509-.542-.339-1.05-.984-2.27-.984-2.27l1.05-.982Z" transform="translate(-632.538 -377.704)" fill="#fff"/>
      <path id="Path_638" data-name="Path 638" d="M932.634,561.1c.369.448.136,2.46.136,2.46l-1.017,1.682s.061,1.087.064,2.554l-1.71.534a1.017,1.017,0,0,1-1.319-1l.3-9.509,3.99,1.524c-.339.236.033.814.033.814S932.261,560.652,932.634,561.1Z" transform="translate(-760.172 -458.444)" opacity="0.1"/>
      <path id="Path_639" data-name="Path 639" d="M933.75,559.992c.369.446.136,2.458.136,2.458l-1.013,1.684s.061,1.085.066,2.552l-1.741.544a.993.993,0,0,1-1.29-.979l.3-9.542,3.988,1.528c-.341.236.031.815.031.815S933.378,559.544,933.75,559.992Z" transform="translate(-761.086 -457.538)" fill="#fff"/>
      <path id="Path_640" data-name="Path 640" d="M943.808,543.332s-.271,1.73-.949,1.832-.982,2.8-1.658,2.705-.229-2.51-.2-2.978-.737-2.407-.17-2.847,2.374,0,2.374,0Z" transform="translate(-769.821 -445.415)" fill="#cf6f80"/>
      <path id="Path_641" data-name="Path 641" d="M942.1,466.18l1.277-2.58a16.694,16.694,0,0,1,.51,3.017c0,1.05.711,1.154.711,1.154s.78.921.369,1.594a7.712,7.712,0,0,0-.575,2.339s.135,3.186-.475,3.627a2.5,2.5,0,0,0-.746,1.493,10.815,10.815,0,0,0-1.084,2.475,24.582,24.582,0,0,1-1.559,3.695s.779-4-3.763-5.729c0,0-.035-1.356.3-1.729s.868-.553.536-2.425a21.981,21.981,0,0,1-.1-4.581,28.8,28.8,0,0,1,1.017-3.265Z" transform="translate(-766.679 -381.587)" opacity="0.1"/>
      <path id="Path_642" data-name="Path 642" d="M944.5,461.6l1.117.369a16.694,16.694,0,0,1,.51,3.017c0,1.05.711,1.154.711,1.154s.779.921.369,1.594a7.731,7.731,0,0,0-.577,2.338s.136,3.186-.474,3.627a2.468,2.468,0,0,0-.737,1.493,10.817,10.817,0,0,0-1.084,2.475,24.564,24.564,0,0,1-1.561,3.695s.779-4-3.763-5.729c0,0-.033-1.356.306-1.729s.868-.553.536-2.425a21.977,21.977,0,0,1-.1-4.581,28.8,28.8,0,0,1,1.017-3.265Z" transform="translate(-768.515 -379.955)" fill="#fff"/>
      <path id="Path_643" data-name="Path 643" d="M834.92,821.806s1.78-1.119,2.948-.306S834.92,821.806,834.92,821.806Z" transform="translate(-683.603 -673.292)" opacity="0.1"/>
      <path id="Path_644" data-name="Path 644" d="M910,805.656a3.6,3.6,0,0,1,2.9,1.222C914.222,808.3,910,805.656,910,805.656Z" transform="translate(-744.847 -660.601)" opacity="0.1"/>
      <g id="Group_246" data-name="Group 246" transform="translate(151.914 49.886)" opacity="0.1">
        <path id="Path_645" data-name="Path 645" d="M865.357,302.728c-.227.2-.518.335-.669.6a6.9,6.9,0,0,0-.236.737c-.1.238-.4.435-.614.284a8.145,8.145,0,0,0-1.869-4.542,4.715,4.715,0,0,0-1.012-1.049,1.981,1.981,0,0,0-1.377-.391c-.553.076-1.039.451-1.6.5-.737.061-1.4-.45-2.13-.474a2.079,2.079,0,0,0-1.563.726,4.267,4.267,0,0,0-.839,1.553,9.111,9.111,0,0,0-.468,2.683c-.011.514-.059,1.155-.534,1.347a2.552,2.552,0,0,1,0,.411c.481-.184.529-.835.54-1.351a9.109,9.109,0,0,1,.468-2.683,4.266,4.266,0,0,1,.838-1.553,2.086,2.086,0,0,1,1.563-.728c.737.026,1.4.536,2.13.474.553-.046,1.043-.422,1.6-.5a1.981,1.981,0,0,1,1.376.389,4.719,4.719,0,0,1,1.012,1.05,8.13,8.13,0,0,1,1.869,4.542c.21.151.51-.048.614-.284a7.147,7.147,0,0,1,.236-.737,2.734,2.734,0,0,1,.669-.6,2.608,2.608,0,0,0,.7-2.088v-.07A2.423,2.423,0,0,1,865.357,302.728Z" transform="translate(-849.816 -296.678)"/>
        <path id="Path_646" data-name="Path 646" d="M840.091,309.081c-.422-.466-1-.78-1.389-1.273a2.674,2.674,0,0,1-.536-1.507,2.84,2.84,0,0,0,.536,1.915c.389.494.968.805,1.39,1.272a2.764,2.764,0,0,1,.7,1.644A2.764,2.764,0,0,0,840.091,309.081Z" transform="translate(-838.155 -303.16)"/>
        <path id="Path_647" data-name="Path 647" d="M926.236,289.616c-.109.451-.3.881-.391,1.336a4.268,4.268,0,0,0-.057.932,3.586,3.586,0,0,1,.057-.525c.089-.455.282-.885.391-1.336a2.317,2.317,0,0,0,.061-.763A2.561,2.561,0,0,1,926.236,289.616Z" transform="translate(-909.635 -289.26)"/>
      </g>
      <ellipse id="Ellipse_113" data-name="Ellipse 113" cx="17.956" cy="2.884" rx="17.956" ry="2.884" transform="translate(6.903 148.821)" fill="#00bfa6" opacity="0.1"/>
      <rect id="Rectangle_518" data-name="Rectangle 518" width="1.155" height="26.014" transform="translate(24.282 96.457)" fill="#535461"/>
      <path id="Path_648" data-name="Path 648" d="M121.808,674.915l-.074,1.172-.1,1.658-.042.689-.1,1.659-.044.689-.1,1.659-1.166,18.809A3.184,3.184,0,0,1,117,704.24H110.94a3.182,3.182,0,0,1-3.179-3l-1.166-18.809-.1-1.658-.042-.689-.105-1.659-.042-.689-.1-1.659-.074-1.172a1.658,1.658,0,0,1,1.647-1.752h12.387a1.658,1.658,0,0,1,1.646,1.765Z" transform="translate(-89.108 -552.521)" fill="#3f3d56"/>
      <path id="Path_649" data-name="Path 649" d="M106.115,670.52l-.1,1.655H90.683l-.1-1.655Z" transform="translate(-73.488 -546.956)" fill="#9d9cb5"/>
      <path id="Path_650" data-name="Path 650" d="M106.613,683.24l-.1,1.655H91.473l-.1-1.655Z" transform="translate(-74.133 -557.332)" fill="#9d9cb5"/>
      <path id="Path_651" data-name="Path 651" d="M107.112,695.97l-.1,1.653H92.263l-.1-1.653Z" transform="translate(-74.777 -567.716)" fill="#9d9cb5"/>
      <path id="Path_652" data-name="Path 652" d="M31.285,572.141a30,30,0,0,1,9.533,12.483,29.992,29.992,0,0,1-14.84-5.147A30.018,30.018,0,0,1,16.44,567,29.981,29.981,0,0,1,31.285,572.141Z" transform="translate(-15.95 -465.932)" fill="#00bfa6"/>
      <path id="Path_653" data-name="Path 653" d="M16.44,567s8.416,4.671,11.116,8.539,13.255,9.089,13.255,9.089" transform="translate(-15.95 -465.932)" fill="none" stroke="#535461" stroke-width="2"/>
      <path id="Path_654" data-name="Path 654" d="M84.777,529.281a16.315,16.315,0,0,1,5.189,6.792A14.825,14.825,0,0,1,76.7,526.48,16.315,16.315,0,0,1,84.777,529.281Z" transform="translate(-65.105 -432.879)" fill="#00bfa6"/>
      <path id="Path_655" data-name="Path 655" d="M76.7,526.48s4.581,2.543,6.052,4.647,7.214,4.946,7.214,4.946" transform="translate(-65.105 -432.879)" fill="none" stroke="#535461" stroke-width="2"/>
      <path id="Path_656" data-name="Path 656" d="M155.007,550.481a22.568,22.568,0,0,0-5.1,10.666A20.511,20.511,0,0,0,165.142,544.4,22.586,22.586,0,0,0,155.007,550.481Z" transform="translate(-124.824 -447.497)" fill="#00bfa6"/>
      <path id="Path_657" data-name="Path 657" d="M165.146,544.41s-5.48,4.74-6.874,8.005-8.363,8.74-8.363,8.74" transform="translate(-124.824 -447.505)" fill="none" stroke="#535461" stroke-width="2"/>
    </g>
    <g transform="matrix(1, 0, 0, 1, 463, 232)" filter="url(#Path_328)">
      <g id="Path_328-2" data-name="Path 328" transform="translate(3 1)" fill="rgba(127,189,131,0.05)">
        <path d="M7.2,0H344.8c3.978,0,7.2,2.765,7.2,6.177V196.115c0,3.411-3.224,6.177-7.2,6.177H7.2c-3.978,0-7.2-2.765-7.2-6.177V6.177C0,2.765,3.224,0,7.2,0Z" stroke="none"/>
        <path d="M 7.202056884765625 1 C 3.7822265625 1 1 3.322311401367188 1 6.176864624023438 L 1 196.1153106689453 C 1 198.9698638916016 3.7822265625 201.2921752929688 7.202056884765625 201.2921752929688 L 344.7979431152344 201.2921752929688 C 348.2177734375 201.2921752929688 351 198.9698638916016 351 196.1153106689453 L 351 6.176864624023438 C 351 3.322311401367188 348.2177734375 1 344.7979431152344 1 L 7.202056884765625 1 M 7.202056884765625 0 L 344.7979431152344 0 C 348.7755126953125 0 352 2.765457153320312 352 6.176864624023438 L 352 196.1153106689453 C 352 199.5266723632812 348.7755126953125 202.2921752929688 344.7979431152344 202.2921752929688 L 7.202056884765625 202.2921752929688 C 3.224456787109375 202.2921752929688 0 199.5266723632812 0 196.1153106689453 L 0 6.176864624023438 C 0 2.765457153320312 3.224456787109375 0 7.202056884765625 0 Z" stroke="none" fill="rgba(204,204,204,0.2)"/>
      </g>
    </g>
    <g id="Group_108" data-name="Group 108" transform="translate(2 -3.464)">
      <text id="Added_users_will_be_visible_here" data-name="Added users will be visible here" transform="translate(640 269.137)" fill="#252525" font-size="20" font-family="SourceSansPro-Regular, Source Sans Pro"><tspan x="-130" y="0">Added users will be visible here</tspan></text>
    </g>
  </g>
</svg>
