<svg xmlns="http://www.w3.org/2000/svg" xmlns:xlink="http://www.w3.org/1999/xlink" width="324" height="172" viewBox="0 0 324 172">
  <defs>
    <filter id="Rectangle_129" x="0" y="0" width="324" height="172" filterUnits="userSpaceOnUse">
      <feOffset dy="4" input="SourceAlpha"/>
      <feGaussianBlur stdDeviation="2" result="blur"/>
      <feFlood flood-opacity="0.059"/>
      <feComposite operator="in" in2="blur"/>
      <feComposite in="SourceGraphic"/>
    </filter>
  </defs>
  <g id="search-box-waiting" transform="translate(-479 -358)">
    <g transform="matrix(1, 0, 0, 1, 479, 358)" filter="url(#Rectangle_129)">
      <g id="Rectangle_129-2" data-name="Rectangle 129" transform="translate(6 2)" fill="#f4f6f9" stroke="#ccc" stroke-width="1">
        <rect width="312" height="160" rx="8" stroke="none"/>
        <rect x="0.5" y="0.5" width="311" height="159" rx="7.5" fill="none"/>
      </g>
    </g>
    <text id="No_results_found" data-name="No results found" transform="translate(586 491)" fill="#252525" font-size="16" font-family="SourceSansPro-Semibold, Source Sans Pro" font-weight="600"><tspan x="0" y="0">No results found</tspan></text>
    <g id="Group_74" data-name="Group 74">
      <path id="Path_282" data-name="Path 282" d="M12260.2,1819.231l35.471-20.158-29.962,41.1,46.327-24.457-35.905,34.724,65.6-31.211-24.367,31.211" transform="translate(-11669 -1397)" fill="#fff" stroke="#fff" stroke-linecap="round" stroke-width="6"/>
      <path id="Path_283" data-name="Path 283" d="M12260.2,1819.231l35.471-20.158-29.962,41.1,46.327-24.457-35.905,34.724,65.6-31.211-24.367,31.211" transform="translate(-11655 -1407)" fill="#fff" stroke="#fff" stroke-linecap="round" stroke-width="6"/>
    </g>
    <g id="search-icon">
      <g id="Rectangle_132" data-name="Rectangle 132" transform="translate(641 426.534) rotate(-39)" fill="#86bbd8" stroke="#2d5986" stroke-linecap="round" stroke-width="1" opacity="0.484">
        <rect width="6" height="25" rx="3" stroke="none"/>
        <rect x="0.5" y="0.5" width="5" height="24" rx="2.5" fill="none"/>
      </g>
      <g id="Group_75" data-name="Group 75">
        <g id="Ellipse_46" data-name="Ellipse 46" transform="translate(613 392)" fill="#fff" stroke="#2d5986" stroke-width="1">
          <circle cx="19.5" cy="19.5" r="19.5" stroke="none"/>
          <circle cx="19.5" cy="19.5" r="19" fill="none"/>
        </g>
        <g id="Ellipse_47" data-name="Ellipse 47" transform="translate(617 396)" fill="rgba(134,187,216,0.2)" stroke="rgba(45,89,134,0.2)" stroke-width="1">
          <circle cx="15.5" cy="15.5" r="15.5" stroke="none"/>
          <circle cx="15.5" cy="15.5" r="15" fill="none"/>
        </g>
        <path id="Path_284" data-name="Path 284" d="M12306.984,1790.661l-.973,21.015s-4.706-6.264-4.706-11.566S12306.984,1790.661,12306.984,1790.661Z" transform="translate(-11113.157 -3706.704) rotate(11)" fill="#fff" opacity="0.509"/>
      </g>
    </g>
    <g id="Icon_feather-users" data-name="Icon feather-users" transform="translate(571.8 428)">
      <path id="Path_285" data-name="Path 285" d="M17,21V19a4,4,0,0,0-4-4H5a4,4,0,0,0-4,4v2" fill="none" stroke="rgba(134,187,216,0.3)" stroke-linecap="round" stroke-linejoin="round" stroke-width="2"/>
      <path id="Path_286" data-name="Path 286" d="M13,7A4,4,0,1,1,9,3a4,4,0,0,1,4,4Z" fill="none" stroke="rgba(134,187,216,0.3)" stroke-linecap="round" stroke-linejoin="round" stroke-width="2"/>
      <path id="Path_287" data-name="Path 287" d="M23,21V19a4,4,0,0,0-3-3.87" fill="none" stroke="rgba(134,187,216,0.3)" stroke-linecap="round" stroke-linejoin="round" stroke-width="2"/>
      <path id="Path_288" data-name="Path 288" d="M16,3.13a4,4,0,0,1,0,7.75" fill="none" stroke="rgba(134,187,216,0.3)" stroke-linecap="round" stroke-linejoin="round" stroke-width="2"/>
    </g>
    <g id="Icon_feather-user" data-name="Icon feather-user" transform="translate(641 380)">
      <path id="Path_289" data-name="Path 289" d="M20,21V19a4,4,0,0,0-4-4H8a4,4,0,0,0-4,4v2" fill="none" stroke="rgba(134,187,216,0.3)" stroke-linecap="round" stroke-linejoin="round" stroke-width="2"/>
      <path id="Path_290" data-name="Path 290" d="M16,7a4,4,0,1,1-4-4,4,4,0,0,1,4,4Z" fill="none" stroke="rgba(134,187,216,0.3)" stroke-linecap="round" stroke-linejoin="round" stroke-width="2"/>
    </g>
    <g id="Icon_feather-user-minus" data-name="Icon feather-user-minus" transform="translate(678.596 424.962)">
      <path id="Path_291" data-name="Path 291" d="M16,21V19a4,4,0,0,0-4-4H5a4,4,0,0,0-4,4v2" fill="none" stroke="rgba(134,187,216,0.3)" stroke-linecap="round" stroke-linejoin="round" stroke-width="2"/>
      <path id="Path_292" data-name="Path 292" d="M12.5,7a4,4,0,1,1-4-4,4,4,0,0,1,4,4Z" fill="none" stroke="rgba(134,187,216,0.3)" stroke-linecap="round" stroke-linejoin="round" stroke-width="2"/>
      <path id="Path_293" data-name="Path 293" d="M23,11H17" fill="none" stroke="rgba(134,187,216,0.3)" stroke-linecap="round" stroke-linejoin="round" stroke-width="2"/>
    </g>
  </g>
</svg>
