<svg xmlns="http://www.w3.org/2000/svg" width="25.416" height="24.96" viewBox="0 0 25.416 24.96">
  <g id="icon-prescription" transform="translate(0.506 0.501)">
    <g id="Group_14" data-name="Group 14">
      <path id="Path_1" data-name="Path 1" d="M865.961,131.353s-6.646.049-8.53,0-1.636-1.339-1.636-1.339V109.03c0-1.091,1.388-1.041,1.388-1.041h12.845l4.166,4.414v8.828" transform="translate(-855.784 -107.989)" fill="none" stroke="#252525" stroke-linecap="round" stroke-width="1"/>
      <path id="Path_2" data-name="Path 2" d="M1136.781,110.054v2.089s0,1.018.8,1.018h2.106Z" transform="translate(-1122.227 -109.07)" fill="none" stroke="#252525" stroke-width="1"/>
      <line id="Line_1" data-name="Line 1" x1="8.65" transform="translate(6.785 13.285)" fill="none" stroke="#252525" stroke-linecap="round" stroke-width="1"/>
      <line id="Line_2" data-name="Line 2" x1="4.7" transform="translate(7.085 15.935)" fill="none" stroke="#252525" stroke-linecap="round" stroke-width="1"/>
      <line id="Line_3" data-name="Line 3" x1="1.549" transform="translate(3.135 13.285)" fill="none" stroke="#252525" stroke-linecap="round" stroke-width="1"/>
      <line id="Line_4" data-name="Line 4" x1="1.549" transform="translate(3.135 15.935)" fill="none" stroke="#252525" stroke-linecap="round" stroke-width="1"/>
      <line id="Line_5" data-name="Line 5" x1="1.549" transform="translate(3.135 18.585)" fill="none" stroke="#252525" stroke-linecap="round" stroke-width="1"/>
      <g id="Ellipse_3" data-name="Ellipse 3" transform="translate(6.409 18.617)">
        <circle id="Ellipse_101" data-name="Ellipse 101" cx="0.487" cy="0.487" r="0.487" transform="translate(0 0)" fill="#fff"/>
        <circle id="Ellipse_102" data-name="Ellipse 102" cx="0.085" cy="0.085" r="0.085" transform="translate(0.402 0.402)" fill="none" stroke="#252525" stroke-width="1"/>
      </g>
      <rect id="Rectangle_4" data-name="Rectangle 4" width="1.29" height="4.869" rx="0.645" transform="translate(8.899 4.703)" fill="#252525"/>
      <rect id="Rectangle_16" data-name="Rectangle 16" width="1.286" height="4.869" rx="0.643" transform="translate(11.768 6.703) rotate(90)" fill="#252525"/>
      <g id="Group_2" data-name="Group 2" transform="translate(10.405 12.376)">
        <g id="Group_3" data-name="Group 3" transform="translate(2.872 3.962) rotate(-45)">
          <g id="Rectangle_3" data-name="Rectangle 3" fill="none" stroke="#252525" stroke-width="1">
            <rect width="5.603" height="10.85" rx="2.452" stroke="none"/>
            <rect x="0.5" y="0.5" width="4.603" height="9.85" rx="1.952" fill="none"/>
          </g>
          <line id="Line_6" data-name="Line 6" x2="4.6" transform="translate(0.426 5.225)" fill="none" stroke="#252525" stroke-width="1"/>
        </g>
        <g id="Group_4" data-name="Group 4" transform="translate(0 5.544)">
          <g id="Path_3" data-name="Path 3">
            <path id="Path_530" data-name="Path 530" d="M3.25-4A3.327,3.327,0,0,1,6.5-.71,3.293,3.293,0,0,1,3.25,2.54,3.293,3.293,0,0,1,0-.71,3.327,3.327,0,0,1,3.25-4Z" transform="translate(0 4)" fill="none"/>
            <path id="Path_531" data-name="Path 531" d="M3.25-2.857A2.183,2.183,0,0,0,1.143-.71,2.162,2.162,0,0,0,3.25,1.4,2.162,2.162,0,0,0,5.357-.71,2.183,2.183,0,0,0,3.25-2.857M3.25-4A3.327,3.327,0,0,1,6.5-.71,3.293,3.293,0,0,1,3.25,2.54,3.293,3.293,0,0,1,0-.71,3.327,3.327,0,0,1,3.25-4Z" transform="translate(0 4)" fill="#252525"/>
          </g>
          <g id="Group_1" data-name="Group 1" transform="translate(1.075 5.42) rotate(-45)">
            <line id="Line_7" data-name="Line 7" x2="5.6" fill="none" stroke="#252525" stroke-width="1"/>
          </g>
        </g>
      </g>
    </g>
  </g>
</svg>
