<svg xmlns="http://www.w3.org/2000/svg" xmlns:xlink="http://www.w3.org/1999/xlink" width="19.639" height="22.84" viewBox="0 0 19.639 22.84">
  <defs>
    <clipPath id="clip-path">
      <rect id="Rectangle_472" data-name="Rectangle 472" width="0.687" height="0.687" rx="0.343"/>
    </clipPath>
  </defs>
  <g id="icon-patient-history" transform="translate(0.5 0.5)">
    <g id="Group_9" data-name="Group 9" transform="translate(-44.333 -5)">
      <g id="Group_8" data-name="Group 8" transform="translate(49.597 6.602)">
        <rect id="Rectangle_9" data-name="Rectangle 9" width="1.373" height="5.493" rx="0.687" transform="translate(2.06)" fill="#252525"/>
        <rect id="Rectangle_8" data-name="Rectangle 8" width="1.373" height="5.493" rx="0.687" transform="translate(5.493 2.06) rotate(90)" fill="#252525"/>
      </g>
      <g id="Rectangle_14" data-name="Rectangle 14" transform="translate(58.523 5.915)">
        <rect id="fill" width="0.687" height="0.687" rx="0.343" fill="none"/>
        <g id="Group_241" data-name="Group 241" clip-path="url(#clip-path)">
          <path id="Path_532" data-name="Path 532" d="M0,.187H.687M.5,0V.687M.687.5H0M.187.687V0" fill="none" stroke="#252525" stroke-width="1"/>
        </g>
      </g>
      <g id="Rectangle_15" data-name="Rectangle 15" transform="translate(58.523 7.289)">
        <rect id="fill-2" width="0.687" height="0.687" rx="0.343" fill="none"/>
        <g id="Group_242" data-name="Group 242" clip-path="url(#clip-path)">
          <path id="Path_533" data-name="Path 533" d="M0,.187H.687M.5,0V.687M.687.5H0M.187.687V0" fill="none" stroke="#252525" stroke-width="1"/>
        </g>
      </g>
      <g id="Rectangle_12" data-name="Rectangle 12" transform="translate(46.851 16.901)" fill="#fff" stroke="#252525" stroke-width="1">
        <rect width="2.06" height="1.373" rx="0.687" stroke="none"/>
        <rect x="0.5" y="0.5" width="1.06" height="0.373" rx="0.187" fill="none"/>
      </g>
      <g id="Rectangle_17" data-name="Rectangle 17" transform="translate(46.851 14.155)" fill="#fff" stroke="#252525" stroke-width="1">
        <rect width="2.06" height="1.373" rx="0.687" stroke="none"/>
        <rect x="0.5" y="0.5" width="1.06" height="0.373" rx="0.187" fill="none"/>
      </g>
      <g id="Rectangle_13" data-name="Rectangle 13" transform="translate(46.851 19.647)" fill="#fff" stroke="#252525" stroke-width="1">
        <rect width="2.06" height="1.373" rx="0.687" stroke="none"/>
        <rect x="0.5" y="0.5" width="1.06" height="0.373" rx="0.187" fill="none"/>
      </g>
      <line id="Line_13" data-name="Line 13" x2="7.05" transform="translate(50.12 15.005)" fill="none" stroke="#252525" stroke-linecap="round" stroke-width="1"/>
      <line id="Line_14" data-name="Line 14" x2="7.05" transform="translate(50.12 17.676)" fill="none" stroke="#252525" stroke-linecap="round" stroke-width="1"/>
      <line id="Line_15" data-name="Line 15" x2="7.05" transform="translate(50.12 20.304)" fill="none" stroke="#252525" stroke-linecap="round" stroke-width="1"/>
      <path id="Path_22" data-name="Path 22" d="M2625.333,93.533V92h15.822v16.581l-2.511,2.569h-13.311V94.627" transform="translate(-2581 -87)" fill="none" stroke="#252525" stroke-linecap="round" stroke-width="1"/>
      <path id="Path_23" data-name="Path 23" d="M2669.416,122.5h1.161v19.018h-15.91V140.4" transform="translate(-2609.173 -115.967)" fill="none" stroke="#252525" stroke-linecap="round" stroke-width="1"/>
      <path id="Path_24" data-name="Path 24" d="M3016.273,172.051V152.5h-1.606" transform="translate(-2953.301 -144.851)" fill="none" stroke="#252525" stroke-width="1"/>
      <path id="Path_25" data-name="Path 25" d="M2688,561.3v1.323h16.343" transform="translate(-2640.923 -535.783)" fill="none" stroke="#252525" stroke-width="1"/>
      <path id="Path_26" data-name="Path 26" d="M2929.333,474.51V472h2.277" transform="translate(-2871.689 -450.361)" fill="none" stroke="#252525" stroke-width="1"/>
    </g>
  </g>
</svg>
