<svg xmlns="http://www.w3.org/2000/svg" width="22.875" height="23" viewBox="0 0 22.875 23">
  <g id="icon-physical-examination" transform="translate(0.374 0.5)">
    <g id="Group_10" data-name="Group 10" transform="translate(0 -0.003)">
      <path id="Path_29" data-name="Path 29" d="M2178.374,102.8s.094-5.089-4.146-4.9a4.227,4.227,0,0,0-3.675,2.215,5.411,5.411,0,0,0-.518,3.016" transform="translate(-2166.144 -97.892)" fill="none" stroke="#252525" stroke-width="1"/>
      <path id="Path_30" data-name="Path 30" d="M2163.988,170.241a1.367,1.367,0,0,0,1.791-1.131c.052-.661-.34-1.578-1.791-1.461-3.487.283-4.712-1.649-4.712-1.649l-1.366,1.649v3.016a2.611,2.611,0,0,0,1.366,2.356,6.953,6.953,0,0,0,1.508.471,5.718,5.718,0,0,0,1.414-.236C2164.068,172.97,2163.988,170.241,2163.988,170.241Z" transform="translate(-2152.982 -162.791)" fill="none" stroke="#252525" stroke-width="1"/>
      <path id="Path_28" data-name="Path 28" d="M2326.6,202s-1.412.188-1.553,1.414,1.553,1.319,1.553,1.319" transform="translate(-2321.676 -197.081)" fill="none" stroke="#252525" stroke-width="1"/>
      <path id="Path_31" data-name="Path 31" d="M2543.348,1664.714a4.214,4.214,0,0,0-4.443,3.267,13.474,13.474,0,0,0-.28,3.4c-.011,1.854,0,3.075,0,3.075h15.7v-3.707" transform="translate(-2538.485 -1652.454)" fill="none" stroke="#252525" stroke-linecap="round" stroke-width="1"/>
      <path id="Path_36" data-name="Path 36" d="M2812,1791.588v3.707" transform="translate(-2798.827 -1773.36)" fill="none" stroke="#252525" stroke-linecap="round" stroke-width="1"/>
      <path id="Path_39" data-name="Path 39" d="M2812,1791.588v3.707" transform="translate(-2809.248 -1773.36)" fill="none" stroke="#252525" stroke-linecap="round" stroke-width="1"/>
      <path id="Path_37" data-name="Path 37" d="M0,0V3.043" transform="translate(15.843 19.751) rotate(90)" fill="none" stroke="#252525" stroke-width="1"/>
      <path id="Path_38" data-name="Path 38" d="M0,3.125V0" transform="translate(3.125 19.751) rotate(90)" fill="none" stroke="#252525" stroke-width="1"/>
      <path id="Path_41" data-name="Path 41" d="M133.716,133.108H133" transform="translate(-124.093 -126.774)" fill="none" stroke="#252525" stroke-width="1"/>
      <path id="Path_42" data-name="Path 42" d="M133.716,133.108H133" transform="translate(-126.967 -126.821)" fill="none" stroke="#252525" stroke-width="1"/>
      <path id="Path_43" data-name="Path 43" d="M133.716,133.108H133" transform="translate(-125.365 -125.262)" fill="none" stroke="#252525" stroke-width="1"/>
    </g>
    <path id="Path_27" data-name="Path 27" d="M2196,202v2.544" transform="translate(-2184.995 -197.031)" fill="none" stroke="#252525" stroke-width="1"/>
    <path id="Path_32" data-name="Path 32" d="M2767,1666.666a4.477,4.477,0,0,1,4.414,4.146" transform="translate(-2755.414 -1654.504)" fill="none" stroke="#252525" stroke-linecap="round" stroke-width="1"/>
    <path id="Path_33" data-name="Path 33" d="M2778.331,1609.955h5.1s.965.188,1.389-1.068,0-6.22,0-6.22" transform="translate(-2766.745 -1593.332)" fill="none" stroke="#252525" stroke-width="1"/>
    <path id="Path_34" data-name="Path 34" d="M2840.9,1454.646c-.267.228-1.571-.44-1.571.911v3.267a3.821,3.821,0,0,0,3.644,2.953c3.078.126,3.9-3.267,3.9-3.267v-3.2s-.063-.691-1-.66" transform="translate(-2824.872 -1452.284)" fill="none" stroke="#252525" stroke-width="1"/>
    <line id="Line_16" data-name="Line 16" y2="1.791" transform="translate(15.882 1.411)" fill="none" stroke="#252525" stroke-linecap="round" stroke-width="1"/>
    <line id="Line_17" data-name="Line 17" y2="1.791" transform="translate(20.688 1.411)" fill="none" stroke="#252525" stroke-linecap="round" stroke-width="1"/>
    <g id="Path_35" data-name="Path 35" transform="translate(8.838 15.194)">
      <path id="Path_534" data-name="Path 534" d="M1.437,0a1.441,1.441,0,0,1,1.14.562,1.421,1.421,0,0,1,.3.875A1.437,1.437,0,1,1,1.437,0Z" fill="none"/>
      <path id="Path_535" data-name="Path 535" d="M1.437,1a.437.437,0,1,0,.437.437.424.424,0,0,0-.084-.258A.448.448,0,0,0,1.437,1m0-1a1.441,1.441,0,0,1,1.14.562,1.421,1.421,0,0,1,.3.875A1.437,1.437,0,1,1,1.437,0Z" fill="#252525"/>
    </g>
    <path id="Path_40" data-name="Path 40" d="M2662.667,1616.314v1.7s.188,1.257,1.948,1.257,1.885-1.257,1.885-1.257V1616" transform="translate(-2656.53 -1606.037)" fill="none" stroke="#252525" stroke-width="1"/>
    <path id="Path_44" data-name="Path 44" d="M2355.281,1594a1.454,1.454,0,0,1-1.948,0" transform="translate(-2346.364 -1584.956)" fill="none" stroke="#252525" stroke-linecap="round" stroke-width="1"/>
  </g>
</svg>
