<?xml version="1.0" standalone="no"?>
<!DOCTYPE svg PUBLIC "-//W3C//DTD SVG 1.0//EN" "http://www.w3.org/TR/2001/REC-SVG-20010904/DTD/svg10.dtd">
<svg xmlns="http://www.w3.org/2000/svg" xmlns:xlink="http://www.w3.org/1999/xlink" id="body_1" width="24" height="24">

<g transform="matrix(0.35294122 0 0 0.35294122 0 0)">
	<g transform="matrix(0.1 0 -0 -0.1 0 68)">
        <path d="M175 635C 161 622 150 599 150 585C 150 562 146 560 109 560C 46 560 30 547 30 495C 30 443 46 430 109 430L109 430L150 430L150 250C 150 71 150 69 175 45C 199 21 203 20 360 20C 507 20 522 22 540 40C 555 55 560 73 560 110C 560 147 571 185 605 261C 630 317 650 368 650 375C 650 398 612 423 585 416L585 416L560 410L560 515C 560 664 565 660 360 660C 203 660 199 659 175 635zM268 615C 280 590 283 589 362 592C 439 595 445 597 448 618C 451 636 458 640 484 640C 536 640 540 629 540 483C 540 368 537 343 520 310L520 310L500 270L430 270C 392 270 358 266 355 260C 351 254 375 250 420 250C 485 250 491 248 485 233C 480 223 472 200 466 182C 456 151 453 150 403 150C 374 150 350 146 350 140C 350 135 375 130 405 130C 453 130 460 127 460 111C 460 80 478 77 508 100L508 100L535 122L538 95C 544 44 531 40 362 40C 231 40 204 43 188 57C 172 71 170 91 170 252L170 252L170 430L256 430C 365 430 380 438 380 495C 380 552 365 560 256 560C 174 560 170 561 170 582C 170 637 247 663 268 615zM340 620C 340 615 336 610 330 610C 325 610 320 615 320 620C 320 626 325 630 330 630C 336 630 340 626 340 620zM400 620C 400 615 391 610 380 610C 369 610 360 615 360 620C 360 626 369 630 380 630C 391 630 400 626 400 620zM190 489C 190 477 183 470 170 470C 148 470 144 490 162 508C 177 523 190 514 190 489zM260 489C 260 477 253 470 240 470C 218 470 214 490 232 508C 247 523 260 514 260 489zM330 489C 330 477 323 470 311 470C 292 470 289 484 303 508C 314 525 330 514 330 489zM120 490C 120 477 113 470 100 470C 87 470 80 477 80 490C 80 503 87 510 100 510C 113 510 120 503 120 490zM598 331C 608 325 602 304 571 236C 532 152 531 150 506 161C 481 173 481 173 497 209C 505 229 521 266 532 293C 552 339 570 349 598 331zM508 132C 510 125 505 120 496 120C 487 120 480 127 480 136C 480 153 502 150 508 132z" stroke="none" fill="#000000" fill-rule="nonzero" />
        <path d="M214 376C 203 329 212 315 258 312L258 312L301 309L298 352C 295 394 294 395 258 398C 225 401 220 398 214 376zM280 361C 280 350 249 337 241 345C 238 348 242 355 250 360C 269 372 280 372 280 361z" stroke="none" fill="#000000" fill-rule="nonzero" />
        <path d="M350 370C 350 364 381 360 424 360C 465 360 502 365 505 370C 509 376 482 380 431 380C 384 380 350 376 350 370z" stroke="none" fill="#000000" fill-rule="nonzero" />
        <path d="M355 330C 358 325 376 320 395 320C 414 320 432 325 435 330C 439 336 423 340 395 340C 367 340 351 336 355 330z" stroke="none" fill="#000000" fill-rule="nonzero" />
        <path d="M217 273C 207 264 209 218 219 202C 224 194 241 190 261 192C 293 195 295 197 298 238L298 238L301 280L262 280C 241 280 220 277 217 273zM270 235C 263 227 254 223 249 226C 233 235 239 246 261 247C 278 249 279 246 270 235z" stroke="none" fill="#000000" fill-rule="nonzero" />
        <path d="M350 220C 350 215 371 210 396 210C 423 210 439 214 435 220C 432 226 411 230 389 230C 368 230 350 226 350 220z" stroke="none" fill="#000000" fill-rule="nonzero" />
        <path d="M217 153C 205 141 210 93 224 81C 232 74 251 70 267 72C 292 75 295 79 298 118L298 118L301 160L262 160C 241 160 220 157 217 153zM270 115C 263 107 254 103 249 106C 233 115 239 126 261 127C 278 129 279 126 270 115z" stroke="none" fill="#000000" fill-rule="nonzero" />
        <path d="M350 100C 350 95 370 90 395 90C 420 90 440 95 440 100C 440 106 420 110 395 110C 370 110 350 106 350 100z" stroke="none" fill="#000000" fill-rule="nonzero" />
	</g>
</g>
</svg>