<svg xmlns="http://www.w3.org/2000/svg" width="208.866" height="233.135" viewBox="0 0 208.866 233.135">
  <g id="Group_57" data-name="Group 57" transform="translate(-0.002)" opacity="0.909">
    <path id="Path_461" data-name="Path 461" d="M841.842,703.085a8.036,8.036,0,0,1-7.76-1.367c-2.718-2.281-3.571-6.039-4.263-9.52l-2.051-10.293,4.293,2.957c3.088,2.126,6.245,4.32,8.383,7.4s3.071,7.284,1.354,10.616" transform="translate(-642.8 -483.341)" fill="#e6e6e6"/>
    <path id="Path_462" data-name="Path 462" d="M855.291,739.456a41.551,41.551,0,0,0,.577-9.571,15.052,15.052,0,0,0-2.9-7.892,13.13,13.13,0,0,0-3.368-3.052c-.337-.212-.647.321-.312.533a12.481,12.481,0,0,1,4.937,5.957,19.982,19.982,0,0,1,1.061,8.618c-.112,1.756-.349,3.5-.589,5.244a.318.318,0,0,0,.216.38.31.31,0,0,0,.38-.216Z" transform="translate(-656.616 -507.25)" fill="#f2f2f2"/>
    <path id="Path_219" data-name="Path 219" d="M494.118,299.948H314.489V120.319H494.118Z" transform="translate(-311.005 -120.319)" fill="#fff"/>
    <path id="Path_220" data-name="Path 220" d="M494.118,299.948H314.489V120.319H494.118Zm-176.975-2.654H491.464V122.973H317.143Z" transform="translate(-311.005 -120.319)" fill="#e5e5e5"/>
    <rect id="Rectangle_116" data-name="Rectangle 116" width="77.787" height="2.423" transform="translate(73.505 28.103)" fill="#e5e5e5"/>
    <rect id="Rectangle_117" data-name="Rectangle 117" width="77.787" height="2.423" transform="translate(73.505 34.403)" fill="#e5e5e5"/>
    <rect id="Rectangle_118" data-name="Rectangle 118" width="77.787" height="2.423" transform="translate(73.505 40.703)" fill="#e5e5e5"/>
    <rect id="Rectangle_119" data-name="Rectangle 119" width="77.787" height="2.423" transform="translate(73.505 82.201)" fill="#e5e5e5"/>
    <rect id="Rectangle_120" data-name="Rectangle 120" width="77.787" height="2.423" transform="translate(73.505 88.501)" fill="#e5e5e5"/>
    <rect id="Rectangle_121" data-name="Rectangle 121" width="77.787" height="2.423" transform="translate(73.505 94.801)" fill="#e5e5e5"/>
    <rect id="Rectangle_122" data-name="Rectangle 122" width="77.787" height="2.423" transform="translate(73.505 136.298)" fill="#e5e5e5"/>
    <rect id="Rectangle_123" data-name="Rectangle 123" width="77.787" height="2.423" transform="translate(73.505 142.598)" fill="#e5e5e5"/>
    <rect id="Rectangle_124" data-name="Rectangle 124" width="77.787" height="2.423" transform="translate(73.505 148.898)" fill="#e5e5e5"/>
    <path id="Path_221" data-name="Path 221" d="M394.9,246.07a25.982,25.982,0,0,0-4.146-1.745l-.182-2.017-7.394-.8-.94,2.578-2.653,1a1.29,1.29,0,0,0-.269.14h0a1.315,1.315,0,0,0-.561.875,1.344,1.344,0,0,0,.02.527l.14.575c.2.121.409.236.617.345l.132.067c.3.157.612.306.928.443l.2.084.014.006c.149.062.3.121.449.177a14.743,14.743,0,0,0,1.52.488,15.633,15.633,0,0,0,4.031.527c.5,0,.987-.022,1.473-.07a15.573,15.573,0,0,0,3.265-.659l.008,0a15.325,15.325,0,0,0,1.961-.777s.008,0,.011-.006c.143-.067.28-.14.421-.21l.067-.034c.112-.059.224-.118.337-.179.281-.154.555-.317.827-.491.076-.045.149-.093.224-.143.107-.07.213-.143.317-.219C395.451,246.382,395.179,246.222,394.9,246.07Z" transform="translate(-352.534 -198.661)" fill="#3f3d56"/>
    <path id="Path_222" data-name="Path 222" d="M378.665,254.1l-.463-2.09h-1.209l-.036,0h0a2.62,2.62,0,0,0-1.217.421,2.7,2.7,0,0,0-.651.583c.359.272.732.525,1.116.766l.017.008c.109.067.222.135.334.2.2.121.41.236.617.345l.132.067c.3.157.612.306.928.443l.2.084.014.006c.149.062.3.121.449.177Z" transform="translate(-350.176 -205.445)" fill="#3f3d56"/>
    <circle id="Ellipse_31" data-name="Ellipse 31" cx="5.325" cy="5.325" r="5.325" transform="translate(28.725 30.926)" fill="#ffb8b8"/>
    <path id="Path_223" data-name="Path 223" d="M386.51,206.373a3.367,3.367,0,0,0,2.345.912,22.083,22.083,0,0,0,6-.49c.122,1.181-.21,2.455.485,3.427a15.912,15.912,0,0,0,.565-3.607,3.452,3.452,0,0,0-.2-1.545,1.421,1.421,0,0,0-1.21-.892,3.034,3.034,0,0,1,1.353-.578l-1.691-.85.434-.446-3.061-.187.887-.563a19.226,19.226,0,0,0-4.028-.127,3.458,3.458,0,0,0-1.781.5,1.286,1.286,0,0,0-.484,1.61,2.338,2.338,0,0,0-1.782,1.414,3.774,3.774,0,0,0-.135,1.814,12.861,12.861,0,0,0,.674,2.853Z" transform="translate(-356.035 -172.716)" fill="#2f2e41"/>
    <path id="Path_224" data-name="Path 224" d="M387.737,187.344a15.626,15.626,0,1,0-27,14.843c.14.177.286.353.435.525.011.011.02.022.031.034a15.153,15.153,0,0,0,1.164,1.2c.107.1.219.2.331.295.213.191.432.373.659.547.09.07.177.14.269.208.359.272.732.525,1.116.766l.017.008c.109.067.222.135.334.2.2.121.41.236.617.345l.132.067c.3.157.612.306.928.443l.2.084.014.006c.149.062.3.121.449.177a14.743,14.743,0,0,0,1.52.488,15.633,15.633,0,0,0,4.031.527c.5,0,.987-.022,1.473-.07a15.571,15.571,0,0,0,3.265-.659l.008,0a15.325,15.325,0,0,0,1.961-.777s.008,0,.011-.006c.143-.067.28-.14.421-.21l.067-.034c.112-.059.225-.118.337-.18.281-.154.555-.317.827-.491.076-.045.149-.093.224-.143.107-.07.213-.143.317-.219.137-.1.275-.194.41-.294.042-.031.087-.062.129-.1a15.62,15.62,0,0,0,5.307-17.581Zm-5.823,16.9c-.093.073-.188.143-.283.208s-.185.137-.281.2-.163.115-.247.168l-.025.017c-.062.042-.123.081-.185.121q-.349.219-.707.421l-.076.042c-.107.059-.213.115-.32.171-.014.008-.031.014-.045.022l-.017.008c-.135.07-.272.137-.41.2a13.757,13.757,0,0,1-1.635.662c-.073.025-.146.05-.219.073a14.711,14.711,0,0,1-3.091.628c-.46.042-.926.065-1.394.065a14.571,14.571,0,0,1-3.812-.5,13.853,13.853,0,0,1-1.871-.634c-.031-.014-.065-.025-.1-.039s-.065-.025-.1-.039-.064-.028-.1-.045c-.264-.115-.525-.241-.78-.373l-.123-.065c-.311-.163-.617-.337-.914-.522-.087-.053-.177-.109-.261-.168l-.065-.042c-.2-.132-.4-.269-.592-.412-.132-.1-.264-.2-.393-.3-.216-.163-.424-.337-.625-.516-.107-.09-.21-.188-.311-.28a14.254,14.254,0,0,1-1.128-1.167c-.118-.135-.233-.269-.342-.41a1.069,1.069,0,0,1-.07-.087,14.77,14.77,0,1,1,20.509,2.589Z" transform="translate(-338.714 -156.865)" fill="#3f3d56"/>
    <path id="Path_225" data-name="Path 225" d="M387.737,340.345a15.626,15.626,0,1,0-27,14.843c.14.177.286.353.435.525.011.011.02.022.031.034a15.166,15.166,0,0,0,1.164,1.2c.107.1.219.2.331.294.213.191.432.373.659.547a15.385,15.385,0,0,0,1.386.973l.017.008c.311.193.628.373.951.544l.132.067c.3.157.612.306.928.443l.2.084.014.006a15.168,15.168,0,0,0,1.969.665,15.63,15.63,0,0,0,4.031.527c.5,0,.987-.022,1.473-.07a15.568,15.568,0,0,0,3.265-.659l.008,0a15.308,15.308,0,0,0,1.961-.777s.008,0,.011-.006c.143-.067.281-.14.421-.21l.067-.034c.112-.059.224-.118.336-.18.28-.154.555-.317.827-.491.076-.045.149-.093.224-.143.247-.163.491-.337.726-.513.042-.031.087-.062.129-.1A15.621,15.621,0,0,0,387.737,340.345Z" transform="translate(-338.714 -255.768)" fill="#fff"/>
    <circle id="Ellipse_188" data-name="Ellipse 188" cx="2.342" cy="2.342" r="2.342" transform="translate(37.082 91.47)" fill="#2f2e41"/>
    <path id="Path_969" data-name="Path 969" d="M414.636,378.561a2.342,2.342,0,0,1,2.062,3.453,2.341,2.341,0,1,0-3.89-2.573,2.336,2.336,0,0,1,1.828-.881Z" transform="translate(-374.56 -287.027)" fill="#2f2e41"/>
    <circle id="Ellipse_189" data-name="Ellipse 189" cx="6.879" cy="6.879" r="6.879" transform="translate(28.168 80.048)" fill="#2f2e41"/>
    <path id="Path_970" data-name="Path 970" d="M384.637,349.279a6.878,6.878,0,0,1,9.534-.721c-.056-.054-.112-.107-.17-.159a6.879,6.879,0,0,0-9.18,10.248l.039.035c.058.052.118.1.178.151a6.878,6.878,0,0,1-.4-9.553Z" transform="translate(-354.988 -266.62)" fill="#2f2e41"/>
    <circle id="Ellipse_190" data-name="Ellipse 190" cx="4.431" cy="4.431" r="4.431" transform="translate(30.558 84.887)" fill="#a0616a"/>
    <path id="Path_226" data-name="Path 226" d="M389.176,393.163v1.487c-.272.174-.547.337-.827.491-.112.062-.224.121-.337.18l-.067.034c-.14.07-.278.143-.421.21,0,0-.008,0-.011.006a15.318,15.318,0,0,1-1.961.777l-.008,0a15.57,15.57,0,0,1-3.265.659c-.485.048-.976.07-1.473.07a15.63,15.63,0,0,1-4.03-.527,15.181,15.181,0,0,1-1.969-.665l-.014-.006-.2-.084c-.317-.137-.625-.286-.928-.443l-.132-.067c-.323-.171-.64-.351-.951-.544l-.017-.008a15.362,15.362,0,0,1-1.386-.973c-.227-.174-.446-.356-.659-.547-.112-.1-.224-.2-.331-.294a15.187,15.187,0,0,1-1.164-1.2,5.679,5.679,0,0,1,.213-.861l0,0a1.254,1.254,0,0,1,.059-.14,1.123,1.123,0,0,1,.053-.118,2.664,2.664,0,0,1,2.538-1.223c.637-.028,1.341,0,2.084-.006.393,0,.8-.017,1.206-.053,2.566-.233,2.1-1.747,2.216-2.564.115-.791.827-.107.875-.062l0,0a9.052,9.052,0,0,0,4.656.816c.275-.034.55-.053.825-.062.724-.008.567.2.317.37a3.134,3.134,0,0,1-.379.213s-.115.7-.233,1.75c-.112,1,1.812,1.475,1.972,1.512a.017.017,0,0,0,.011,0,3.864,3.864,0,0,1,2.135.056h0A2.529,2.529,0,0,1,389.176,393.163Z" transform="translate(-346.258 -292.302)" fill="#6c63ff"/>
    <path id="Path_227" data-name="Path 227" d="M379.911,399.567c0,.208-.006.407-.014.595,0,.112-.008.222-.014.325l-.014-.006-.2-.084c-.317-.137-.625-.286-.928-.443l-.132-.067c-.323-.171-.64-.351-.951-.544.008-.1.022-.2.036-.295.031-.216.056-.435.073-.651a9.027,9.027,0,0,0-.8-4.42v0c-.056-.112-.09-.174-.09-.174a1.69,1.69,0,0,1,1.98,0,.7.7,0,0,1,.194.168C379.754,394.8,379.945,397.578,379.911,399.567Z" transform="translate(-351.335 -296.902)" fill="#2f2e41"/>
    <path id="Path_228" data-name="Path 228" d="M417.435,402.95c-.011.314-.028.642-.048.976v0s-.008,0-.011.006a15.309,15.309,0,0,1-1.961.777l-.008,0-.031-.788,0-.1-.149-3.837a.644.644,0,0,1,.642-.673h1.422c.07,0,.121.143.154.4v0A24.307,24.307,0,0,1,417.435,402.95Z" transform="translate(-376.122 -300.666)" fill="#2f2e41"/>
    <path id="Path_975" data-name="Path 975" d="M392.874,357.267V361.7H393.9l1.306-1.4-.175,1.4h4.535l-.28-1.4.561,1.4h.723v-4.432Z" transform="translate(-361.675 -273.488)" fill="#2f2e41"/>
    <ellipse id="Ellipse_191" data-name="Ellipse 191" cx="0.35" cy="0.641" rx="0.35" ry="0.641" transform="translate(30.15 87.744)" fill="#a0616a"/>
    <ellipse id="Ellipse_192" data-name="Ellipse 192" cx="0.35" cy="0.641" rx="0.35" ry="0.641" transform="translate(39.128 87.744)" fill="#a0616a"/>
    <path id="Path_229" data-name="Path 229" d="M424.838,404.7c-.236.177-.48.351-.726.513-.076.051-.149.1-.224.143-.272.174-.547.337-.828.491-.112.062-.224.121-.336.179v-3.091s.449.359,1.164.956l.28.238C424.375,404.306,424.6,404.5,424.838,404.7Z" transform="translate(-380.969 -303.01)" fill="#6c63ff"/>
    <path id="Path_230" data-name="Path 230" d="M387.737,340.345a15.626,15.626,0,1,0-27,14.843c.14.177.286.353.435.525.011.011.02.022.031.034a15.166,15.166,0,0,0,1.164,1.2c.107.1.219.2.331.294.213.191.432.373.659.547a15.385,15.385,0,0,0,1.386.973l.017.008c.311.193.628.373.951.544l.132.067c.3.157.612.306.928.443l.2.084.014.006a15.168,15.168,0,0,0,1.969.665,15.63,15.63,0,0,0,4.031.527c.5,0,.987-.022,1.473-.07a15.568,15.568,0,0,0,3.265-.659l.008,0a15.308,15.308,0,0,0,1.961-.777s.008,0,.011-.006c.143-.067.281-.14.421-.21l.067-.034c.112-.059.224-.118.336-.18.28-.154.555-.317.827-.491.076-.045.149-.093.224-.143.247-.163.491-.337.726-.513.042-.031.087-.062.129-.1A15.621,15.621,0,0,0,387.737,340.345Zm-5.823,16.9c-.093.073-.188.143-.283.208s-.185.137-.28.2-.163.115-.247.168-.14.093-.21.137q-.349.219-.707.421l-.076.042c-.107.059-.213.115-.32.171-.014.008-.031.014-.045.022l-.017.008c-.135.07-.272.138-.41.2a13.757,13.757,0,0,1-1.635.662c-.073.025-.146.05-.219.073a14.715,14.715,0,0,1-3.091.628c-.46.042-.926.065-1.394.065a14.569,14.569,0,0,1-3.812-.5,13.845,13.845,0,0,1-1.871-.634c-.065-.025-.129-.053-.191-.079-.034-.014-.065-.028-.1-.045-.264-.115-.524-.241-.78-.373l-.123-.064c-.311-.163-.617-.337-.914-.522-.109-.067-.219-.137-.325-.21-.337-.222-.665-.46-.985-.71-.216-.163-.423-.337-.625-.516-.107-.09-.21-.188-.311-.28a14.269,14.269,0,0,1-1.128-1.167c-.118-.135-.233-.269-.342-.409a1.075,1.075,0,0,1-.07-.087,14.77,14.77,0,1,1,20.509,2.589Z" transform="translate(-338.714 -255.768)" fill="#3f3d56"/>
    <circle id="Ellipse_32" data-name="Ellipse 32" cx="6.122" cy="6.122" r="6.122" transform="translate(28.233 138.589)" fill="#2f2e41"/>
    <ellipse id="Ellipse_33" data-name="Ellipse 33" cx="2.533" cy="1.9" rx="2.533" ry="1.9" transform="translate(25.1 140.514) rotate(-45)" fill="#2f2e41"/>
    <ellipse id="Ellipse_34" data-name="Ellipse 34" cx="1.9" cy="2.533" rx="1.9" ry="2.533" transform="translate(35.331 139.224) rotate(-66.869)" fill="#2f2e41"/>
    <path id="Path_231" data-name="Path 231" d="M411.282,558.026l-.721-1.135a2.831,2.831,0,0,0-5.176,2.295l.205.735.233.834a15.979,15.979,0,0,0,2.786-.608l.007,0a14.9,14.9,0,0,0,1.962-.778s.007,0,.011-.007c.141-.067.279-.138.421-.209a.607.607,0,0,0,.067-.035c.113-.057.226-.117.336-.177s.223-.124.329-.191Z" transform="translate(-369.604 -401.44)" fill="#cacaca"/>
    <circle id="Ellipse_35" data-name="Ellipse 35" cx="5.196" cy="5.196" r="5.196" transform="translate(29.354 140.977)" fill="#ffb6b6"/>
    <path id="Path_232" data-name="Path 232" d="M396.926,556.436a11.238,11.238,0,0,0-2.111-2.56,3.086,3.086,0,0,0-2.058-.785h-7.319a3.085,3.085,0,0,0-3.08,3.281,3.162,3.162,0,0,0,.127.7,3.321,3.321,0,0,0,.194.481l.361.721c.028.011.057.025.085.035.007,0,.011,0,.014.007.148.06.3.12.449.177a14.629,14.629,0,0,0,1.521.488,15.322,15.322,0,0,0,2.531.456c.5.046,1,.071,1.5.071s.986-.025,1.474-.071c.159-.014.318-.032.477-.049a15.986,15.986,0,0,0,2.786-.608.012.012,0,0,0,.007,0,14.906,14.906,0,0,0,1.963-.778s.007,0,.01-.007c.141-.067.279-.138.421-.209a.623.623,0,0,0,.067-.035c.113-.057.226-.117.336-.177s.223-.124.329-.191.219-.127.329-.194C397.205,556.92,397.067,556.673,396.926,556.436Z" transform="translate(-354.873 -400.073)" fill="#cacaca"/>
    <path id="Path_233" data-name="Path 233" d="M385.341,555.283a2.829,2.829,0,0,0-3.755,1.351l-.651.983-.311.47-.474.714.293.159.131.067c.3.156.612.3.93.442.035.018.074.032.113.049s.057.025.085.035c.007,0,.011,0,.014.007.148.06.3.12.449.177a14.6,14.6,0,0,0,1.521.488,15.323,15.323,0,0,0,2.531.456l.248-.838.24-.8A2.833,2.833,0,0,0,385.341,555.283Z" transform="translate(-353.45 -401.317)" fill="#cacaca"/>
    <path id="Path_234" data-name="Path 234" d="M386.908,519.4a7.066,7.066,0,0,0,4.038,1.248,4.33,4.33,0,0,1-1.716.706,14.25,14.25,0,0,0,5.82.033,3.77,3.77,0,0,0,1.218-.418,1.542,1.542,0,0,0,.752-1.006,2.078,2.078,0,0,0-1.031-1.839,7.608,7.608,0,0,0-6.394-1.278,3.5,3.5,0,0,0-1.894,1.07,1.725,1.725,0,0,0-.159,2.049Z" transform="translate(-357.818 -376.495)" fill="#2f2e41"/>
    <path id="Path_235" data-name="Path 235" d="M387.741,493.342a15.626,15.626,0,1,0-27,14.843c.138.177.286.354.435.523a.285.285,0,0,0,.028.035,14.9,14.9,0,0,0,1.167,1.2c.106.1.216.2.329.3.212.191.431.371.661.545.088.071.177.141.269.209.357.272.732.523,1.114.767a.027.027,0,0,1,.018.007c.11.067.223.134.336.2s.216.127.322.187l.293.159.131.067c.3.156.612.3.93.442.035.018.074.032.113.049s.057.025.085.035c.007,0,.011,0,.014.007.148.06.3.12.449.177a14.632,14.632,0,0,0,1.521.488,15.323,15.323,0,0,0,2.531.456c.5.046,1,.071,1.5.071s.986-.025,1.474-.071c.159-.014.318-.032.477-.05a15.99,15.99,0,0,0,2.786-.608l.007,0a14.913,14.913,0,0,0,1.962-.778s.007,0,.011-.007c.141-.067.279-.138.421-.209a.617.617,0,0,0,.067-.035c.113-.057.226-.117.336-.177s.223-.124.329-.191.219-.127.329-.194l.17-.106c.078-.046.148-.092.226-.145.106-.067.212-.141.315-.216.138-.1.276-.195.41-.3a1.524,1.524,0,0,0,.131-.1A15.636,15.636,0,0,0,387.741,493.342Zm-5.823,16.9c-.092.074-.187.145-.283.209s-.187.138-.283.2-.163.113-.247.166a.155.155,0,0,1-.025.018c-.06.042-.124.081-.184.12-.042.025-.085.053-.127.078-.124.078-.248.152-.375.223-.067.042-.138.081-.205.12l-.074.042c-.11.06-.216.113-.322.17-.014.011-.032.014-.042.025a.028.028,0,0,0-.018.007c-.134.071-.272.138-.41.2a13.648,13.648,0,0,1-1.637.661c-.071.025-.145.053-.216.074a14.8,14.8,0,0,1-2.769.594c-.106.014-.216.025-.325.035-.46.042-.923.064-1.393.064-.417,0-.838-.018-1.252-.053a14.576,14.576,0,0,1-2.56-.445,13.536,13.536,0,0,1-1.87-.636c-.032-.014-.064-.025-.1-.039s-.064-.025-.1-.039-.064-.028-.1-.046c-.23-.1-.46-.209-.682-.322-.032-.018-.064-.032-.1-.049l-.124-.064c-.074-.039-.148-.078-.219-.117-.237-.127-.47-.265-.7-.407-.085-.053-.177-.11-.262-.166l-.064-.042c-.2-.134-.4-.269-.59-.414-.131-.1-.265-.195-.392-.3-.216-.163-.424-.336-.626-.516-.106-.088-.212-.187-.311-.279a14.022,14.022,0,0,1-1.128-1.167c-.117-.134-.233-.269-.343-.41-.025-.028-.046-.057-.071-.088a14.772,14.772,0,1,1,20.511,2.588Z" transform="translate(-338.715 -354.668)" fill="#3f3d56"/>
    <path id="Path_236" data-name="Path 236" d="M365.046,280.78a36.723,36.723,0,1,0,2.082,54.235l45.046,38.009a3.384,3.384,0,1,0,4.37-5.169l0,0-45.046-38.009A36.725,36.725,0,0,0,365.046,280.78Zm-2.9,45.4a27.513,27.513,0,1,1-3.285-38.771h0A27.513,27.513,0,0,1,362.143,326.182Z" transform="translate(-304.638 -218.449)" fill="#3f3d56"/>
    <path id="Path_237" data-name="Path 237" d="M334.434,366.684a27.515,27.515,0,0,1-4.669-36.987q-.789.795-1.526,1.665A27.513,27.513,0,1,0,370.3,366.848q.735-.871,1.384-1.784A27.515,27.515,0,0,1,334.434,366.684Z" transform="translate(-315.701 -255.666)" opacity="0.3" style="mix-blend-mode: normal;isolation: isolate"/>
    <path id="Path_238" data-name="Path 238" d="M704.377,489.612a3.8,3.8,0,0,0-1.085-5.722l-8.211-33.607-5.99,1.912,8.866,33.378a3.819,3.819,0,0,0,6.419,4.04Z" transform="translate(-553.156 -333.615)" fill="#ffb6b6"/>
    <path id="Path_239" data-name="Path 239" d="M390.614,347.174l-4.377,3.776-6.124,5.279-2.7-13.839-.283-1.439-.223-1.142L383.107,329l5.173.3.354.021.007.078.081.725,1.061,9.539.025.23Z" transform="translate(-243.637 -212.673)" fill="#07baa6"/>
    <path id="Path_240" data-name="Path 240" d="M323.068,615.505h-4.335l-2.062-16.72h6.4Z" transform="translate(-204.702 -387.068)" fill="#ffb6b6"/>
    <path id="Path_241" data-name="Path 241" d="M616.974,768.007H603v-.177a5.441,5.441,0,0,1,5.44-5.44h8.537Z" transform="translate(-497.503 -535.368)" fill="#2f2e41"/>
    <path id="Path_242" data-name="Path 242" d="M451.068,616.505h-4.334l-2.062-16.72h6.4Z" transform="translate(-287.444 -387.715)" fill="#ffb6b6"/>
    <path id="Path_243" data-name="Path 243" d="M744.974,769.007H731v-.177a5.44,5.44,0,0,1,5.44-5.44h8.537Z" transform="translate(-580.245 -536.014)" fill="#2f2e41"/>
    <path id="Path_244" data-name="Path 244" d="M667.955,553.026l-11.668,1.768-16.975-57.449-18.029,57.8L608.2,553.379l16.972-67.18v-5.3l2.3-7.955-.24-2.153-1.672-15.059-.331-2.986-.393-3.545-.047-.422a1.434,1.434,0,0,1,1.129-1.562h0l5.445-1.146h8.9l5.251,1.446.361.1.163.046-.081.679-1.23,10.317-.067.566-1.188,9.946-.262,2.182c10.254,7.425,10.607,14.85,10.607,14.85Z" transform="translate(-500.866 -330.891)" fill="#07baa6"/>
    <circle id="Ellipse_36" data-name="Ellipse 36" cx="8.684" cy="8.684" r="8.684" transform="translate(125.183 93.336)" fill="#ffb6b6"/>
    <rect id="Rectangle_125" data-name="Rectangle 125" width="17.325" height="2.475" transform="translate(125.81 140.709) rotate(-7.451)" fill="#3f3d56"/>
    <path id="Path_245" data-name="Path 245" d="M584.849,505.609a3.718,3.718,0,0,1,.465.356l16.992-4.332,1.159-4.1,6.415.941-1.347,7.456a2.829,2.829,0,0,1-2.487,2.31l-19.84,2.089a3.712,3.712,0,1,1-1.357-4.722Z" transform="translate(-482.082 -364.159)" fill="#ffb6b6"/>
    <path id="Path_246" data-name="Path 246" d="M652.07,451.251l-3.005-2.3c-.812-.308-1.926.567-2.121,1.414L642.7,467.693l8.839,6.364,1.238-1.945Z" transform="translate(-523.168 -332.715)" fill="#07baa6"/>
    <g id="Group_56" data-name="Group 56" transform="translate(126.746 115.178)" opacity="0.2">
      <path id="Path_247" data-name="Path 247" d="M682.5,457.878a23.918,23.918,0,0,1-2.291.778c-.248.074-.5.145-.753.212a23.344,23.344,0,0,1-5.07.82,15.951,15.951,0,0,1-2.213-.06,12.456,12.456,0,0,1-2.33-.46l-.078-.021a10.221,10.221,0,0,1-4.225-2.4,8.341,8.341,0,0,1-.746-.831,7.51,7.51,0,0,1-1.612-5.845,5.013,5.013,0,0,1,.12-.555,8.871,8.871,0,0,1,.527-1.45c.1-.219.2-.435.315-.647l4-1.351h7.609L681,447.515l.354.021.007.078.163.046-.081.679Z" transform="translate(-663.103 -446.068)"/>
    </g>
    <path id="Path_248" data-name="Path 248" d="M653.7,380.731a6.159,6.159,0,0,0-4.672.978c-1.266,1.037-1.674,3.192-.476,4.306,1.061.986,2.72.754,4.141,1.035a5.606,5.606,0,0,1,4.379,5.359c-.021,3.6-3.474,6.322-4.094,9.865a7.7,7.7,0,0,0,2.36,6.672,11.134,11.134,0,0,0,6.63,2.882,20.491,20.491,0,0,0,7.286-.759,20.26,20.26,0,0,0,6.73-2.966,10.935,10.935,0,0,0,4.282-5.854,7.541,7.541,0,0,0-1.474-6.937c-1.895-2.093-5.047-2.812-6.686-5.111-1.837-2.577-1.157-6.246-2.644-9.04a8.451,8.451,0,0,0-4.877-3.808,21.753,21.753,0,0,0-6.256-.867,8.288,8.288,0,0,0-3.288.359,2.97,2.97,0,0,0-2,2.436A1.451,1.451,0,0,0,653.7,380.731Z" transform="translate(-526.49 -285.901)" fill="#2f2e41"/>
    <path id="Path_249" data-name="Path 249" d="M647.428,778.388H512.716a.354.354,0,0,1,0-.707H647.428a.354.354,0,1,1,0,.707Z" transform="translate(-438.914 -545.253)" fill="#cacaca"/>
  </g>
</svg>
