<svg xmlns="http://www.w3.org/2000/svg" xmlns:xlink="http://www.w3.org/1999/xlink" width="697.572" height="494.788" viewBox="0 0 697.572 494.788">
  <defs>
    <linearGradient id="linear-gradient" x1="0.031" y1="0.5" x2="0.98" y2="0.5" gradientUnits="objectBoundingBox">
      <stop offset="0.028" stop-color="#845636"/>
      <stop offset="0.797"/>
    </linearGradient>
    <linearGradient id="linear-gradient-2" x1="0.029" y1="0.499" x2="0.976" y2="0.499" xlink:href="#linear-gradient"/>
  </defs>
  <g id="undraw_medical_care_movn" transform="translate(5.176 12.836)">
    <rect id="Rectangle_2" data-name="Rectangle 2" width="0.78" height="6.09" transform="translate(524.112 45.996) rotate(-50.195)" fill="#fff"/>
    <rect id="Rectangle_3" data-name="Rectangle 3" width="15.25" height="0.78" transform="matrix(0.537, -0.844, 0.844, 0.537, 568.088, 66.15)" fill="#fff"/>
    <rect id="Rectangle_4" data-name="Rectangle 4" width="0.78" height="15.25" transform="translate(524.815 53.7) rotate(-32.471)" fill="#fff"/>
    <path id="Path_37" data-name="Path 37" d="M495,694.557H658.742V495.949c0-10.517-10.359-19.072-23.091-19.072H518.091c-12.733,0-23.091,8.556-23.091,19.072Z" transform="translate(-230.673 -214.942)" fill="#e6e6e6"/>
    <g id="Group_202" data-name="Group 202">
      <rect id="Rectangle_8" data-name="Rectangle 8" width="692.395" height="1.559" transform="translate(0 480.393)" fill="#3f3d56"/>
      <path id="Path_39" data-name="Path 39" d="M491.34,457.053c-4.047,0-7.34,2.72-7.34,6.063v17.5c0,3.343,3.293,6.063,7.34,6.063H657.556c4.047,0,7.34-2.72,7.34-6.063v-17.5c0-3.343-3.292-6.063-7.34-6.063Z" transform="translate(-228.25 -210.577)" fill="#3f3d56"/>
      <rect id="Rectangle_9" data-name="Rectangle 9" width="3.899" height="28.85" transform="translate(276.412 246.476)" opacity="0.2"/>
      <rect id="Rectangle_10" data-name="Rectangle 10" width="3.899" height="28.85" transform="translate(299.024 246.476)" opacity="0.2"/>
      <rect id="Rectangle_11" data-name="Rectangle 11" width="3.899" height="28.85" transform="translate(321.636 246.476)" opacity="0.2"/>
      <rect id="Rectangle_12" data-name="Rectangle 12" width="3.899" height="28.85" transform="translate(344.248 246.476)" opacity="0.2"/>
      <rect id="Rectangle_13" data-name="Rectangle 13" width="3.899" height="28.85" transform="translate(366.86 246.476)" opacity="0.2"/>
      <rect id="Rectangle_14" data-name="Rectangle 14" width="3.899" height="28.85" transform="translate(389.472 246.476)" opacity="0.2"/>
      <rect id="Rectangle_15" data-name="Rectangle 15" width="3.899" height="28.85" transform="translate(412.084 246.476)" opacity="0.2"/>
      <g id="Group_93" data-name="Group 93" transform="translate(-76 -184.048)">
        <path id="Path_320" data-name="Path 320" d="M687.941,345.953H576.18a3.076,3.076,0,0,0-3.076,3.076V411.3a3.076,3.076,0,0,0,3.076,3.076H687.941a3.076,3.076,0,0,0,3.076-3.076V349.029a3.076,3.076,0,0,0-3.076-3.076Z" transform="translate(-210.894 8.266)" fill="#3f3d56"/>
        <rect id="Rectangle_154" data-name="Rectangle 154" width="109.665" height="61.862" transform="translate(366.334 359.656)" fill="#fff"/>
        <path id="Path_321" data-name="Path 321" d="M683.419,560.787h-10.7v-.771a.153.153,0,0,0-.153-.153h-3.669a.153.153,0,0,0-.153.153v.771h-2.293v-.771a.153.153,0,0,0-.153-.153h-3.669a.153.153,0,0,0-.153.153h0v.771h-2.293v-.771a.153.153,0,0,0-.153-.153h-3.669a.153.153,0,0,0-.153.153h0v.771H653.91v-.771a.153.153,0,0,0-.153-.153h-3.669a.153.153,0,0,0-.153.153v.771h-2.293v-.771a.153.153,0,0,0-.153-.153h-3.669a.153.153,0,0,0-.153.153h0v.771h-2.293v-.771a.153.153,0,0,0-.153-.153h-3.669a.153.153,0,0,0-.153.153h0v.771H635.1v-.771a.153.153,0,0,0-.153-.153H606.207a.153.153,0,0,0-.153.153h0v.771h-2.293v-.771a.153.153,0,0,0-.153-.153h-3.669a.153.153,0,0,0-.153.153h0v.771h-2.293v-.771a.153.153,0,0,0-.153-.153H593.67a.153.153,0,0,0-.153.153h0v.771h-2.293v-.771a.153.153,0,0,0-.153-.153H587.4a.153.153,0,0,0-.153.153h0v.771h-2.293v-.771a.153.153,0,0,0-.153-.153h-3.669a.153.153,0,0,0-.153.153h0v.771h-2.293v-.771a.153.153,0,0,0-.153-.153h-3.669a.153.153,0,0,0-.153.153v.771h-2.293v-.771a.153.153,0,0,0-.153-.153H568.6a.153.153,0,0,0-.153.153h0v.771h-7.033a3.669,3.669,0,0,0-3.669,3.669v1.659a3.669,3.669,0,0,0,3.669,3.669H683.419a3.67,3.67,0,0,0,3.669-3.669v-1.659A3.669,3.669,0,0,0,683.419,560.787Z" transform="translate(-200.216 -140.394)" fill="#3f3d56"/>
      </g>
    </g>
    <g id="indian-doctor" transform="translate(77.36 -62.079)">
      <path id="Path_326" data-name="Path 326" d="M473.46,142.67s8.336,15.792,27.128,12.411-2.15-11.8-2.15-11.8l-9.162-2.618-15.457,2.01h-.358Z" transform="translate(-14.928 -19.079)" fill="#dbb092"/>
      <path id="Path_327" data-name="Path 327" d="M469.675,141.44l-7.635,12.341,6.981,31.311,9.887,7.02,19.282-10.471s11.78-22.718,11.78-23-8.695-12.06-8.695-12.06l-8.134-5.142H469.675Z" transform="translate(-12.405 -19.251)" fill="#ecc29c"/>
      <path id="Path_328" data-name="Path 328" d="M475.52,197.749s5.648,15.192,6.466,51.443l7.308-1.5s-.008-48.069,8.811-63.589Z" transform="translate(-15.383 -28.675)" fill="#31b8ad" stroke="#0576bf" stroke-width="1"/>
      <line id="Line_35" data-name="Line 35" y1="11.858" x2="15.48" transform="translate(462.233 165.132)" fill="none" stroke="#0576bf" stroke-width="1"/>
      <path id="Path_329" data-name="Path 329" d="M500.6,141.62s7.666,0,14.771,11.219a22.966,22.966,0,0,0,18.885,9.349s13.276-2.033,15.519,45.07-.187,67.492-41.135,66.744c0,0-18.324,2.244-16.828-7.292l7.51,1.87,1.465-18.511L492.875,238.3s-1.807-49.378,9.6-69.572c0,0,1.87-9.91,2.244-14.4a14,14,0,0,1-4.674-7.292S499.482,142.368,500.6,141.62Z" transform="translate(-18.964 -19.291)" fill="#fff" stroke="#bbcbd5" stroke-width="1"/>
      <path id="Path_330" data-name="Path 330" d="M457.964,242.758l-2.127-.748c-5.422,16.08,5.8,23.855,5.8,23.855l-4.861.686a17.41,17.41,0,0,1-7.292-19.126c3.179-12.9,17.576-6.046,17.576-6.046l-3.264-36.212c.475-11.78-17.49-49.363-12.442-53.1a10.231,10.231,0,0,0,4.488-8.788s-4.488-1.309-15.332,10.1-18.324,8.227-23.559,9.91-13.65.654-10.284,70.865c0,0-.374,32.534,14.023,31.787l14.21,2.992,26.738-1.122.132-7.908Z" transform="translate(0 -19.647)" fill="#f2f3f3" stroke="#bbcbd5" stroke-width="1"/>
      <path id="Path_331" data-name="Path 331" d="M471.2,266.18l6.895,26.847-20.007-.9,3.373-24.541Z" transform="translate(-11.532 -46.808)" fill="#f2f3f3" stroke="#bbcbd5" stroke-width="1"/>
      <line id="Line_36" data-name="Line 36" y2="14.179" transform="translate(429.66 191.138)" fill="none" stroke="#bbcbd5" stroke-width="1"/>
      <path id="Path_332" data-name="Path 332" d="M434.719,270.5s-.187,7.074,2.8,7.479" transform="translate(-6.369 -47.763)" fill="none" stroke="#bbcbd5" stroke-width="1"/>
      <path id="Path_333" data-name="Path 333" d="M431.827,266.18s-1.332,5.368,10.362,4.176,17.358-3.63,21.222-3.506a44.346,44.346,0,0,1,9.365,1.846" transform="translate(-5.72 -46.808)" fill="none" stroke="#bbcbd5" stroke-width="1"/>
      <path id="Path_334" data-name="Path 334" d="M426.307,273.569c-.561-3.023,4.3-5.929,4.3-5.929" transform="translate(-4.501 -47.131)" fill="none" stroke="#bbcbd5" stroke-width="1"/>
      <path id="Path_335" data-name="Path 335" d="M430.33,264.5a70.928,70.928,0,0,0-7.923-7.191s-6.24.935-6.381-3.669c0,0-2.664-.358-2.1-3.74,0,0-1.909-2.61-.078-3.966h6.739s-4.488-1.5-3.506-5.952a51.781,51.781,0,0,1,11.359,4.417c5.4,2.984,18.791,15.784,19.212,17.942S430.33,264.5,430.33,264.5Z" transform="translate(-1.582 -41.02)" fill="#eac19b" stroke="#cc9f81" stroke-width="1"/>
      <path id="Path_336" data-name="Path 336" d="M435.271,254.124s-7.573-6.7-12.551-6.163" transform="translate(-3.718 -42.777)" fill="none" stroke="#cc9f81" stroke-width="1"/>
      <path id="Path_337" data-name="Path 337" d="M431.559,259.245s-4.137-7.277-17.389-6.007" transform="translate(-1.829 -43.916)" fill="none" stroke="#cc9f81" stroke-width="1"/>
      <path id="Path_338" data-name="Path 338" d="M416.87,258.224a14.582,14.582,0,0,1,12.2,3.451" transform="translate(-2.426 -44.999)" fill="none" stroke="#cc9f81" stroke-width="1"/>
      <path id="Path_339" data-name="Path 339" d="M510.742,607.868h14.4l-7.2-62.638-8.531-77.854-4.472-63.737-5.228,5.08L497.84,437.9l2.244,85.076,5.531,57.029Z" transform="translate(-20.314 -77.176)" fill="#2dada3" stroke="#037ab1" stroke-width="1"/>
      <path id="Path_340" data-name="Path 340" d="M501.929,611.163l11.593,1.184s-10.845-69.556-10.658-83.206c0,0-3.179-23.185-3.74-84.328s0-36.1,0-36.1h-2.618l-1.317,54.24Z" transform="translate(-19.728 -77.174)" fill="#2db8b0" stroke="#037ab1" stroke-width="1"/>
      <path id="Path_341" data-name="Path 341" d="M493.088,414.02s2.968,132.584,6.778,162.859l3.927,32.16s.748,4.869-1.683,4.674-10.845,0-10.845,0L484.3,557.807V483.576l3.038-25.99.756-23.559Z" transform="translate(-17.322 -79.469)" fill="#57b9b7" stroke="#037ab1" stroke-width="1"/>
      <path id="Path_342" data-name="Path 342" d="M471.68,613.879s8.695,5.952,15.706,2.587c0,0-9.255-82.738-4.488-129.3l5.89-71.239-7.292,8.414-2.1,45.716Z" transform="translate(-14.534 -79.891)" fill="#2fbaad" stroke="#037ab1" stroke-width="1"/>
      <path id="Path_343" data-name="Path 343" d="M482.66,300.74h3.794l3.358,1.122s-.28,5.609,6.451,9.816,5.89,74.885,5.89,74.885l-4.371-2.477L486.2,399.2Z" transform="translate(-16.96 -54.443)" fill="#35b7ad" stroke="#037ab1" stroke-width="1"/>
      <path id="Path_344" data-name="Path 344" d="M421.1,474.26,409.04,604.117s34.5,25.242,50.484,22.438l6.03-143.6Z" transform="translate(-0.696 -92.777)" fill="#64cbc2" stroke="#037ab1" stroke-width="1"/>
      <path id="Path_345" data-name="Path 345" d="M507.68,476.927s7.012,93.677,12.06,117.236c0,0,1.737,15.052,7.573,26.364,0,0,24.681-11.78,32.815-25.523,0,0-8.134-13.182-12.341-58.057l-3.366-76.007Z" transform="translate(-22.488 -89.834)" fill="#64cbc2" stroke="#037ab1" stroke-width="1"/>
      <line id="Line_37" data-name="Line 37" y1="14.561" x2="11.429" transform="translate(468.769 316.983)" fill="#037ab1" stroke="#037ab1" stroke-width="1"/>
      <path id="Path_346" data-name="Path 346" d="M462.132,297.5l5.89,1.683s5.329,121.724-2.945,144.722c0,0-50.344,1.122-58.2-10.658,0,0,12.341-81.336,15.426-132.1l38.144-.561S462.693,300.866,462.132,297.5Z" transform="translate(-0.219 -53.727)" fill="#fff" stroke="#bbcbd5" stroke-width="1"/>
      <path id="Path_347" data-name="Path 347" d="M496.88,311.507s5.757,111.081,5.048,115.553c-.958,6.077-1.4,16.322,2.524,19.1s36.741-11.25,48.521-15.457L535.024,307.58A116.214,116.214,0,0,1,496.88,311.507Z" transform="translate(-20.102 -55.954)" fill="#fff" stroke="#bbcbd5" stroke-width="1"/>
      <path id="Path_348" data-name="Path 348" d="M524.791,165.33l-8.219,8.632,6.731,2.057S494.2,222.561,493.76,233.048" transform="translate(-19.412 -24.529)" fill="none" stroke="#bbcbd5" stroke-width="1"/>
      <line id="Line_38" data-name="Line 38" x2="1.317" y2="28.982" transform="translate(505.378 185.528)" fill="#bbcbd5" stroke="#bbcbd5" stroke-width="1"/>
      <path id="Path_349" data-name="Path 349" d="M533.59,269.21s1.691,6.046,4.121,6.046" transform="translate(-28.212 -47.478)" fill="#bbcbd5" stroke="#bbcbd5" stroke-width="1"/>
      <path id="Path_350" data-name="Path 350" d="M529.35,269.21s3.669,9.037,5.36,9.411" transform="translate(-27.275 -47.478)" fill="#bbcbd5" stroke="#bbcbd5" stroke-width="1"/>
      <path id="Path_351" data-name="Path 351" d="M505.562,281.3s5.235-.187,2.244,15.145c0,0-1.644,8.687-6.326,8.289" transform="translate(-21.118 -50.149)" fill="none" stroke="#bbcbd5" stroke-width="1"/>
      <path id="Path_352" data-name="Path 352" d="M438.32,165.33l10.658,9.388-7.853,1.683s23.466,35.152,31.74,55.907" transform="translate(-7.165 -24.529)" fill="none" stroke="#bbcbd5" stroke-width="1"/>
      <path id="Path_353" data-name="Path 353" d="M477.44,285.274l.28,6.638,18.449,5.516a45.091,45.091,0,0,0,1.839-21.5C496.138,263.771,477.44,285.274,477.44,285.274Z" transform="translate(-15.807 -48.139)" fill="#ebc19b" stroke="#caa482" stroke-width="1"/>
      <path id="Path_354" data-name="Path 354" d="M469.486,267.581s19.633-2.8,34.965-7.853c0,0,10.1-1.683,15.893,0v6.17l-10.471,8.414s-3.927-1.87-11.78,2.057l-26.551,10.658S464.438,279.735,469.486,267.581Z" transform="translate(-13.65 -45.218)" fill="#ebc19b" stroke="#caa482" stroke-width="1"/>
      <path id="Path_355" data-name="Path 355" d="M488.512,75.735S468.1,72.86,459.187,89.244s-4.885,13.509-4.885,13.509l6.326,16.82s7.261,12.294,15.667,13.587,13.3-2.228,16.244-7.113,7.978-10.066,10.993-19.189-1.293-17.825-1.293-17.825L496.49,76.46Z" transform="translate(-10.495 -4.693)" fill="#ecc29c" stroke="#af825d" stroke-width="1"/>
      <path id="Path_356" data-name="Path 356" d="M482.922,71.954s3.155,3.927,6.607,5.461,4.215,6.326,4.215,6.326,2.111,5.57,1.823,7.144,3.872,6.42,2.735,9.855-10.6,19.329-10.6,19.329l-.818,1.285,9.442,6.755,10.253,10.634,6.708,3.934,1.441-1.722s1.247-10.541-2.2-16.1c0,0-8.336-12.076-8.624-13.7s-.577-15.7-.577-15.7-1.535-11.04-3.257-13.05,3.973-8.531-7.5-21.175a10.764,10.764,0,0,0-8.406-2.3s-4.7-6.614-17.062-4.028c0,0-20.217,1.247-21.175,22.523v7.284s-4.885,11.211-3.163,20.318L442,115.434a76.311,76.311,0,0,1-6.42,6.942c-2.875,2.587-3.358,7.471-3.358,7.471s-1.247,4.791-2.111,4.986-2.922,5.134-2.057,7.051,8.539-1.34,8.539-1.34l8.57-6.046,2.587-3.163,8.913-7.721,4.043-1.262-1.745-1.948-1.114-1.379-1.9-2.618-1.917-4.028-.919-2.439-2.368-6.3s-1.27-7.323-.6-7.845,2.968-5.321,2.968-5.321a11.652,11.652,0,0,1,4.316-10.159C462.6,76.169,476.035,68.791,482.922,71.954Z" transform="translate(-4.85 0)" fill="#2f140a"/>
      <path id="Path_357" data-name="Path 357" d="M492.11,99.023s.07,1.511,2.158,1.075,7.4-3.163,9.489-1.722a17.424,17.424,0,0,0,3.015,1.8s-2.368-3.311-3.592-3.529A13.8,13.8,0,0,0,492.11,99.023Z" transform="translate(-19.048 -9.29)"/>
      <g id="Group_95" data-name="Group 95" transform="translate(451.377 94.831)">
        <g id="Group_94" data-name="Group 94">
          <path id="Path_358" data-name="Path 358" d="M474.579,108.549c.109-.226.21-.452.319-.678a.593.593,0,0,0-.351-.857,3.282,3.282,0,0,1-1.169-.577c-.53-.4-1,.335-.8.8A2.158,2.158,0,0,0,473.8,108.4a1.246,1.246,0,0,0,.413.109c.327.093.312-.1-.07-.569-.055.008-.1.008-.156.016a2.875,2.875,0,0,0-.919.179c-1.169.319-2.423,1.106-3.669.849a4.7,4.7,0,0,1-1.807-.927c-.288-.218-.2-.3-.257-.639a1.133,1.133,0,0,0-.335-.647c-.974-.95-2.181.016-2.649.95a.6.6,0,0,0,.506.88,1.4,1.4,0,0,1,1,.53.587.587,0,0,0,1.013-.592,2.433,2.433,0,0,1-.39-1.278c-.366.1-.725.195-1.091.3a4.52,4.52,0,0,0,4.207,2.3,5.3,5.3,0,0,0,2.462-.787,9.425,9.425,0,0,0,1.036-.8c.07-.062.351-.164.382-.21.187-.257-.335-.21-.491-.249.086.327.171.654.257.974l.062-.062c-.086-.327-.171-.654-.257-.974a4.1,4.1,0,0,1-1.994.841c-.561.086-.483.8-.14,1.067a1.944,1.944,0,0,0,1.823.195c.693-.249,1.2-.795,1.878-1.067.693-.273.39-1.41-.312-1.13a10.009,10.009,0,0,0-1.48.857c-.413.257-.9.46-1.317.132-.047.358-.093.709-.14,1.067a5.168,5.168,0,0,0,2.509-1.137.585.585,0,0,0-.257-.974,1.25,1.25,0,0,0-1.2.358.588.588,0,0,0,.257.974,1.634,1.634,0,0,0,1.628-.273,1.028,1.028,0,0,0,.171-1.231,1.222,1.222,0,0,0-1.239-.522,2.734,2.734,0,0,0-1.247.779c-1.691,1.434-4.464,1.387-5.594-.709a.59.59,0,0,0-1.091.3,3.656,3.656,0,0,0,.553,1.87c.335-.195.67-.39,1.013-.592a2.676,2.676,0,0,0-2-1.114c.171.3.335.584.506.88.117-.234.312-.686.608-.74.226-.039.2.047.218.218a1.73,1.73,0,0,0,.943,1.363,4.641,4.641,0,0,0,3.864.9c.639-.156,1.247-.413,1.862-.623a7.04,7.04,0,0,1,.982-.273,3.866,3.866,0,0,0,.9-.164.841.841,0,0,0,.226-1.449,2.242,2.242,0,0,0-.717-.21,1.126,1.126,0,0,1-.662-.67l-.8.8a4.221,4.221,0,0,0,1.449.693c-.117-.288-.234-.569-.351-.857-.109.226-.21.452-.319.678-.312.654.693,1.247,1.013.569Z" transform="translate(-464.276 -106.324)" fill="#dfd3ce"/>
        </g>
      </g>
      <g id="Group_97" data-name="Group 97" transform="translate(451.185 93.069)">
        <g id="Group_96" data-name="Group 96" transform="translate(0 0)">
          <path id="Path_359" data-name="Path 359" d="M464.692,107.582c1.519-1.543,3.264-3.171,5.6-2.626a8.764,8.764,0,0,1,3.007,1.262c.795.569,1.223,1.558,2.142,1.956.452.2.849-.475.39-.67a3.565,3.565,0,0,1-1.215-1.122,4.828,4.828,0,0,0-1.223-1.028,9.461,9.461,0,0,0-3.514-1.254c-2.361-.312-4.2,1.379-5.734,2.937a.386.386,0,0,0,.545.545Z" transform="translate(-464.03 -104.062)"/>
        </g>
      </g>
      <g id="Group_99" data-name="Group 99" transform="translate(453.917 93.885)">
        <g id="Group_98" data-name="Group 98">
          <path id="Path_360" data-name="Path 360" d="M467.57,105.694a4.666,4.666,0,0,0,.28,2.4,2.379,2.379,0,0,0,1.745,1.27,3.669,3.669,0,0,0,3.958-1.379,3.006,3.006,0,0,0,.335-2.283.586.586,0,0,0-1.13.312,1.825,1.825,0,0,1-.343,1.566,2.089,2.089,0,0,1-1.6.709,2.167,2.167,0,0,1-1.768-.475,2.976,2.976,0,0,1-.3-2.119.584.584,0,1,0-1.169,0Z" transform="translate(-467.535 -105.11)"/>
        </g>
      </g>
      <g id="Group_101" data-name="Group 101" transform="translate(453.563 92.841)">
        <g id="Group_100" data-name="Group 100">
          <path id="Path_361" data-name="Path 361" d="M469.9,109.613c3.763,0,3.763-5.843,0-5.843s-3.763,5.843,0,5.843Z" transform="translate(-467.081 -103.77)"/>
        </g>
      </g>
      <g id="Group_103" data-name="Group 103" transform="translate(456.737 94.719)">
        <g id="Group_102" data-name="Group 102" transform="translate(0 0)">
          <path id="Path_362" data-name="Path 362" d="M472.094,108.128a.974.974,0,0,0,0-1.948.974.974,0,0,0,0,1.948Z" transform="translate(-471.156 -106.18)"/>
        </g>
      </g>
      <g id="Group_105" data-name="Group 105" transform="translate(454.654 94.29)">
        <g id="Group_104" data-name="Group 104">
          <path id="Path_363" data-name="Path 363" d="M469.423,107.578a.974.974,0,0,0,0-1.948.974.974,0,0,0,0,1.948Z" transform="translate(-468.482 -105.63)" fill="#fff"/>
        </g>
      </g>
      <g id="Group_107" data-name="Group 107" transform="translate(459.782 95.593)">
        <g id="Group_106" data-name="Group 106" transform="translate(0 0)">
          <path id="Path_364" data-name="Path 364" d="M475.5,108.142a1.068,1.068,0,0,1-.1.156c.023-.023.039-.055.062-.078a1.245,1.245,0,0,1-.2.2c.023-.023.055-.039.078-.062l-.07.047.53.53c.156-.351.3-.693.46-1.044a.414.414,0,0,0,.039-.3.386.386,0,0,0-.179-.234.414.414,0,0,0-.3-.039.365.365,0,0,0-.234.179c-.156.351-.3.693-.46,1.044a.4.4,0,0,0-.047.249.386.386,0,0,0,.109.226.4.4,0,0,0,.475.062,1.48,1.48,0,0,0,.506-.545.409.409,0,0,0,.039-.3.386.386,0,0,0-.179-.234.4.4,0,0,0-.522.148Z" transform="translate(-475.064 -107.302)" fill="#dfd3ce"/>
        </g>
      </g>
      <path id="Path_365" data-name="Path 365" d="M474.942,99.023s-.07,1.511-2.158,1.075-7.4-3.163-9.489-1.722a17.422,17.422,0,0,1-3.015,1.8s2.368-3.311,3.592-3.529A13.8,13.8,0,0,1,474.942,99.023Z" transform="translate(-12.016 -9.29)"/>
      <g id="Group_109" data-name="Group 109" transform="translate(474.689 94.065)">
        <g id="Group_108" data-name="Group 108">
          <path id="Path_366" data-name="Path 366" d="M504.515,107.218c.07-.242.14-.475.21-.717a.6.6,0,0,0-.561-.74,3.183,3.183,0,0,1-1.1-.351.591.591,0,0,0-.8.8,2.212,2.212,0,0,0,1.488,1.044,1.053,1.053,0,0,0,.436.039c.195.023.187-.07-.016-.288,0-.265-.093-.343-.273-.249a2.469,2.469,0,0,0-.834.288c-1.1.467-2.166,1.387-3.4,1.441a4.286,4.286,0,0,1-2.018-.577c-.288-.14-.374-.2-.452-.514a1.2,1.2,0,0,0-.421-.7,1.424,1.424,0,0,0-1.488-.132,2.357,2.357,0,0,0-1.067,1.488.588.588,0,0,0,.561.74,1.466,1.466,0,0,1,1.192.421c.46.444,1.324-.156.919-.709a2.642,2.642,0,0,1-.623-1.184c-.366.1-.725.195-1.091.3a4.535,4.535,0,0,0,4.589,1.706,5.321,5.321,0,0,0,2.29-1.153,11.045,11.045,0,0,0,.927-.982,3.394,3.394,0,0,1,.319-.218c.078-.249-.452-.164-.6-.179.171.3.335.584.506.88.008-.031.039-.039.086-.008-.14-.335-.273-.662-.413-1a4.091,4.091,0,0,1-1.823,1.169.591.591,0,0,0-.14,1.067,1.985,1.985,0,0,0,1.963-.07c.639-.343,1.067-.974,1.691-1.332a.587.587,0,0,0-.592-1.013,7.444,7.444,0,0,0-1.223,1c-.319.28-.818.654-1.254.413-.047.358-.094.709-.14,1.067A5.262,5.262,0,0,0,503.7,107.5a.59.59,0,0,0-.413-1,1.239,1.239,0,0,0-1.1.592.591.591,0,0,0,.506.88,1.6,1.6,0,0,0,1.441-.452,1.013,1.013,0,0,0,.039-1.3,1.2,1.2,0,0,0-1.223-.374,2.537,2.537,0,0,0-1.184.974c-1.418,1.6-4.168,2.111-5.6.218-.3-.405-1.153-.351-1.091.3a3.493,3.493,0,0,0,.779,1.776l.919-.709a2.633,2.633,0,0,0-2.018-.764c.187.249.374.491.561.74.078-.242.21-.686.5-.771.242-.07.2.086.242.265.132.662.709.95,1.278,1.208a4.5,4.5,0,0,0,3.833.218c.569-.242,1.1-.553,1.652-.841a6.837,6.837,0,0,1,.873-.405,5.935,5.935,0,0,0,.912-.3.871.871,0,0,0,.156-1.48,1.441,1.441,0,0,0-.748-.132,1.008,1.008,0,0,1-.771-.506l-.8.8a4.593,4.593,0,0,0,1.683.514c-.187-.249-.374-.491-.561-.74-.07.242-.14.475-.21.717a.6.6,0,0,0,1.161.288Z" transform="translate(-494.198 -105.341)" fill="#dfd3ce"/>
        </g>
      </g>
      <g id="Group_111" data-name="Group 111" transform="translate(474.473 92.783)">
        <g id="Group_110" data-name="Group 110" transform="translate(0 0)">
          <path id="Path_367" data-name="Path 367" d="M494.66,107.883c1.223-1.683,2.664-3.514,4.955-3.4a8.526,8.526,0,0,1,3.358.826c.873.452,1.441,1.348,2.423,1.613a.389.389,0,0,0,.21-.748,4.01,4.01,0,0,1-1.41-.982,5.211,5.211,0,0,0-1.41-.818,9.02,9.02,0,0,0-3.786-.654c-2.275.179-3.755,2.072-5,3.786-.3.4.374.787.662.382Z" transform="translate(-493.922 -103.695)"/>
        </g>
      </g>
      <g id="Group_113" data-name="Group 113" transform="translate(476.949 93.325)">
        <g id="Group_112" data-name="Group 112" transform="translate(0 0)">
          <path id="Path_368" data-name="Path 368" d="M497.1,105.582a4.679,4.679,0,0,0,.577,2.314,2.443,2.443,0,0,0,1.971,1.1,3.659,3.659,0,0,0,3.662-1.839,2.973,2.973,0,0,0,.078-2.337.6.6,0,0,0-.717-.405.587.587,0,0,0-.405.717,1.85,1.85,0,0,1-.07,1.667,2.127,2.127,0,0,1-1.5.958,2.188,2.188,0,0,1-1.784-.187,2.727,2.727,0,0,1-.639-1.979.6.6,0,0,0-.584-.584.584.584,0,0,0-.592.577Z" transform="translate(-497.099 -104.391)"/>
        </g>
      </g>
      <g id="Group_115" data-name="Group 115" transform="translate(476.737 92.592)">
        <g id="Group_114" data-name="Group 114" transform="translate(0 0)">
          <path id="Path_369" data-name="Path 369" d="M499.65,109.293c3.763,0,3.763-5.843,0-5.843s-3.763,5.843,0,5.843Z" transform="translate(-496.827 -103.45)"/>
        </g>
      </g>
      <g id="Group_117" data-name="Group 117" transform="translate(479.889 94.275)">
        <g id="Group_116" data-name="Group 116">
          <path id="Path_370" data-name="Path 370" d="M501.813,107.558a.974.974,0,0,0,0-1.948.974.974,0,0,0,0,1.948Z" transform="translate(-500.872 -105.61)"/>
        </g>
      </g>
      <g id="Group_119" data-name="Group 119" transform="translate(477.762 94.166)">
        <g id="Group_118" data-name="Group 118">
          <path id="Path_371" data-name="Path 371" d="M499.083,107.418a.974.974,0,0,0,0-1.948.974.974,0,0,0,0,1.948Z" transform="translate(-498.142 -105.47)" fill="#fff"/>
        </g>
      </g>
      <g id="Group_121" data-name="Group 121" transform="translate(483.114 94.716)">
        <g id="Group_120" data-name="Group 120" transform="translate(0 0)">
          <path id="Path_372" data-name="Path 372" d="M505.33,107.106l-.023.07c.016-.031.023-.062.039-.093a1.168,1.168,0,0,1-.148.249c.023-.023.039-.055.062-.078a.758.758,0,0,1-.133.14c.218.125.436.249.654.382.1-.366.2-.732.3-1.106a.392.392,0,0,0-.756-.21c-.1.366-.2.732-.3,1.106a.388.388,0,0,0,.179.436.4.4,0,0,0,.475-.062,1.545,1.545,0,0,0,.405-.631.4.4,0,0,0-.273-.483.406.406,0,0,0-.483.28Z" transform="translate(-505.013 -106.176)" fill="#dfd3ce"/>
        </g>
      </g>
      <g id="Group_123" data-name="Group 123" transform="translate(462.893 106.561)">
        <g id="Group_122" data-name="Group 122" transform="translate(0 0)">
          <path id="Path_373" data-name="Path 373" d="M479.262,122.479a2.425,2.425,0,0,0,.242,2.423c.67.709,1.574.366,2.415.413.919.047,1.426.88,2.275,1.137a3.02,3.02,0,0,0,2.2-.39,3.159,3.159,0,0,1,1.239-.39c.467-.016.919.117,1.387.109a3.514,3.514,0,0,0,2.283-.779,2.2,2.2,0,0,0-.273-3.56c-.678-.319-1.27.686-.592,1.013a.907.907,0,0,1,.429,1.145,1.513,1.513,0,0,1-1.169.927,8.387,8.387,0,0,1-2.072-.031,3.882,3.882,0,0,0-1.675.483c-.514.242-1.052.545-1.613.273-.522-.257-.911-.709-1.465-.927a4.416,4.416,0,0,0-1.917-.132c-.3.016-.592.047-.717-.288a1.873,1.873,0,0,1,.14-1.122c.218-.717-.911-1.021-1.122-.3Z" transform="translate(-479.058 -121.381)" fill="#dcb18c"/>
        </g>
      </g>
      <path id="Path_374" data-name="Path 374" d="M475.06,131.414l3.007,2.088s4.246,3.015,5.173,3.163a6.483,6.483,0,0,0,3.373-.288c.647-.428,4.885-3.319,5.68-4s.039-1.41,1.06-1.293" transform="translate(-15.281 -16.961)" fill="#e87089"/>
      <path id="Path_375" data-name="Path 375" d="M474.12,130.77s8.2,3.592,10.853,3.015a87.265,87.265,0,0,0,8.8-3.015S478.358,132.352,474.12,130.77Z" transform="translate(-15.074 -16.894)" fill="#b94a5e"/>
      <g id="Group_125" data-name="Group 125" transform="translate(457.877 112.063)">
        <g id="Group_124" data-name="Group 124" transform="translate(0 0)">
          <path id="Path_376" data-name="Path 376" d="M473.43,128.526a3.328,3.328,0,0,0-.771,1.332A1.434,1.434,0,0,0,473,131.2c.273.265.686-.148.413-.413a.728.728,0,0,1-.2-.382,1.077,1.077,0,0,1,.023-.444,2.809,2.809,0,0,1,.6-1.005.3.3,0,0,0,0-.413.272.272,0,0,0-.405-.016Z" transform="translate(-472.619 -128.443)" fill="#d3a982"/>
        </g>
      </g>
      <g id="Group_127" data-name="Group 127" transform="translate(478.758 111.763)">
        <g id="Group_126" data-name="Group 126" transform="translate(0 0)">
          <path id="Path_377" data-name="Path 377" d="M499.9,128.589s-.148.07-.148.031c0,0,.047.023.047.031-.031-.023.016.016.016.023.031.031-.023-.031.008.008.016.016.023.039.039.055l.07.117a2.578,2.578,0,0,1,.218.475l.07.257a1.609,1.609,0,0,1,.039.234,2.775,2.775,0,0,1-.008.569.3.3,0,0,0,.3.3.306.306,0,0,0,.3-.3,2.99,2.99,0,0,0-.195-1.434,2.487,2.487,0,0,0-.382-.67.521.521,0,0,0-.764-.1.294.294,0,0,0,0,.413.29.29,0,0,0,.4-.008Z" transform="translate(-499.421 -128.057)" fill="#d3a982"/>
        </g>
      </g>
      <g id="Group_129" data-name="Group 129" transform="translate(446.104 107.286)">
        <g id="Group_128" data-name="Group 128">
          <path id="Path_378" data-name="Path 378" d="M458.811,122.334c-1.075.319-1.223,1.465-1.293,2.431a1.766,1.766,0,0,0,.608,1.659,2.225,2.225,0,0,0,1.87.226.584.584,0,0,0,.405-.717.59.59,0,0,0-.717-.405c-.055.016-.109.031-.171.047-.164.039.093,0-.07.016-.055,0-.117.008-.171.008-.023,0-.187-.016-.078,0a1.4,1.4,0,0,1-.312-.078l-.07-.023c.055.023.07.023.031.008s-.07-.039-.109-.062c.1.078-.031-.07.031.031-.023-.039-.047-.078-.07-.125.055.125,0-.023-.008-.047s-.031-.179-.016-.047a3.656,3.656,0,0,1,.008-.584c.008-.086.016-.179.023-.265a.775.775,0,0,1,.016-.14c-.047.117,0,.023.008-.023a2.492,2.492,0,0,1,.117-.475c.039-.125-.016.008-.008.016-.008-.008.039-.086.047-.1.016-.031.039-.062.055-.093.062-.1-.086.086,0,.008a.735.735,0,0,0,.078-.078c.008.023-.125.078,0,.008.023-.016.055-.031.078-.047.039-.016.023-.008-.055.023.023-.008.047-.016.078-.023a.583.583,0,0,0,.405-.717.577.577,0,0,0-.709-.429Z" transform="translate(-457.508 -122.311)" fill="#f5f93a"/>
        </g>
      </g>
      <g id="Group_131" data-name="Group 131" transform="translate(478.188 69.056)">
        <g id="Group_130" data-name="Group 130">
          <path id="Path_379" data-name="Path 379" d="M498.76,74.44a11.207,11.207,0,0,0,5.15,5.524c2.376,1.208,6.84,1.8,6.887,5.235.023,1.566-.795,3.07-1.247,4.534a11.784,11.784,0,0,0-.615,4.472,12.058,12.058,0,0,0,1.363,4.1c.647,1.387,1.247,3.015.257,4.386-.592.81.763,1.589,1.348.787,2.01-2.781-.506-5.6-1.231-8.3a9.523,9.523,0,0,1,.491-5.368,14.975,14.975,0,0,0,1.192-4.62c-.016-3.171-2.875-4.713-5.477-5.687-3.054-1.145-5.438-2.774-6.77-5.859-.4-.912-1.737-.125-1.348.795Z" transform="translate(-498.69 -73.24)" fill="#b79172"/>
        </g>
      </g>
      <g id="Group_133" data-name="Group 133" transform="translate(447.098 81.664)">
        <g id="Group_132" data-name="Group 132" transform="translate(0 0)">
          <path id="Path_380" data-name="Path 380" d="M459.451,90.169a45.491,45.491,0,0,0,.242,9.98c.413,3.085,1.293,6.544-.756,9.255-.608.8.748,1.574,1.348.787,1.971-2.6,1.589-5.929,1.13-8.959a47.369,47.369,0,0,1-.405-11.063c.086-1-1.473-.989-1.558,0Z" transform="translate(-458.783 -89.424)" fill="#3c1f16"/>
        </g>
      </g>
      <g id="Group_135" data-name="Group 135" transform="translate(462.393 91.08)">
        <g id="Group_134" data-name="Group 134">
          <path id="Path_381" data-name="Path 381" d="M478.653,103.5c.7,1.028,1.613,1.613,2.033,2.851.436,1.278.382,2.7.888,3.934.654,1.6,3.3.9,2.625-.725-.561-1.371-.506-2.937-1.036-4.339a7.586,7.586,0,0,0-.834-1.644c-.382-.545-.974-.927-1.332-1.457-.974-1.434-3.334-.07-2.345,1.379Z" transform="translate(-478.415 -101.509)" fill="#dfb287"/>
        </g>
      </g>
      <g id="Group_137" data-name="Group 137" transform="translate(466.028 93.605)">
        <g id="Group_136" data-name="Group 136">
          <path id="Path_382" data-name="Path 382" d="M483.158,105.311a8.052,8.052,0,0,1,1.4,4.347c.055.771.062,1.543.062,2.314a8.441,8.441,0,0,1-.3,2.688c-.156.475.592.678.748.21a8.936,8.936,0,0,0,.335-2.8c0-.857-.008-1.706-.078-2.555a8.735,8.735,0,0,0-1.5-4.589c-.3-.405-.974-.016-.67.39Z" transform="translate(-483.082 -104.75)" fill="#f5d9c0"/>
        </g>
      </g>
      <g id="Group_139" data-name="Group 139" transform="translate(487.443 107.363)">
        <g id="Group_138" data-name="Group 138">
          <path id="Path_383" data-name="Path 383" d="M512.969,123.493a1.916,1.916,0,0,1,.3.171c.023.016.039.031.062.047.07.047-.062-.062,0,0,.047.047.1.086.148.14.039.039.078.086.117.132.07.086-.031-.047.031.039.07.109.125.218.187.327.047.078-.031-.086,0,0l.023.07a1.339,1.339,0,0,1,.055.164c.016.055.023.117.039.171,0,.008.008.093,0,.023-.008-.086,0,.055,0,.07v.171c0,.039-.031.195,0,.07-.008.039-.016.086-.023.125-.031.132.047-.07.008-.008a.58.58,0,0,1-.055.093c-.062.109.07-.07.008-.008s-.125.117-.179.171.1-.07.031-.023c-.016.008-.031.023-.047.031-.039.023-.07.047-.109.07-.086.055-.171.093-.257.14-.023.008-.164.07-.078.039s-.07.023-.086.031c-.094.031-.187.07-.281.093a4.273,4.273,0,0,1-.608.14c-.023,0-.039.008-.062.008-.14.023.094-.008.008,0a1.163,1.163,0,0,1-.164.016c-.1.008-.21.016-.312.016s-.187-.008-.288-.008c-.132-.008.117.023-.008,0a.816.816,0,0,1-.132-.031.586.586,0,0,0-.717.405.593.593,0,0,0,.405.717,3.658,3.658,0,0,0,1.426.023,5.207,5.207,0,0,0,1.441-.428,1.908,1.908,0,0,0,1.083-2.649,2.814,2.814,0,0,0-1.4-1.574.6.6,0,0,0-.8.21.629.629,0,0,0,.234.8Z" transform="translate(-510.569 -122.41)" fill="#f5f93a"/>
        </g>
      </g>
      <g id="Group_141" data-name="Group 141" transform="translate(479.034 60.466)">
        <g id="Group_140" data-name="Group 140">
          <path id="Path_384" data-name="Path 384" d="M500.5,64.112a9.819,9.819,0,0,1,6.085-.382,5.482,5.482,0,0,1,2.345,1.7c.725.826,1.441,1.659,2.166,2.485.5.569,1.317-.265.826-.826-1.472-1.691-2.82-3.732-5.025-4.488s-4.55-.28-6.708.382c-.717.226-.413,1.348.312,1.13Z" transform="translate(-499.776 -62.214)" fill="#462413"/>
        </g>
      </g>
      <g id="Group_143" data-name="Group 143" transform="translate(479.419 63.322)">
        <g id="Group_142" data-name="Group 142">
          <path id="Path_385" data-name="Path 385" d="M500.831,67.049a.585.585,0,0,0,0-1.169.585.585,0,0,0,0,1.169Z" transform="translate(-500.27 -65.88)" fill="#462413"/>
        </g>
      </g>
      <g id="Group_145" data-name="Group 145" transform="translate(479.35 63.265)">
        <g id="Group_144" data-name="Group 144">
          <path id="Path_386" data-name="Path 386" d="M500.593,66.955c5.243,1.472,11.593,3.358,13.844,8.92.28.686,1.41.39,1.13-.312-2.438-6.015-8.928-8.126-14.662-9.731a.582.582,0,0,0-.312,1.122Z" transform="translate(-500.181 -65.807)" fill="#462413"/>
        </g>
      </g>
      <g id="Group_147" data-name="Group 147" transform="translate(478.91 64.852)">
        <g id="Group_146" data-name="Group 146" transform="translate(0 0)">
          <path id="Path_387" data-name="Path 387" d="M500.024,68.994a14.78,14.78,0,0,1,9.349,8.617c.273.693,1.4.39,1.13-.312a15.985,15.985,0,0,0-10.167-9.427.582.582,0,0,0-.312,1.122Z" transform="translate(-499.616 -67.844)" fill="#462413"/>
        </g>
      </g>
      <g id="Group_149" data-name="Group 149" transform="translate(441.834 62.129)">
        <g id="Group_148" data-name="Group 148">
          <path id="Path_388" data-name="Path 388" d="M488.841,68.245a7.031,7.031,0,0,0-3.21-1.691c-1.5-.421-3.031-.779-4.542-1.169-3.085-.787-5.929-1.457-9.1-.717a44.211,44.211,0,0,0-8.531,3.062c-2.532,1.176-5.477,2.509-7.37,4.62a18.3,18.3,0,0,0-2.594,4.168,13.044,13.044,0,0,0-1.465,4.643c-.07.748,1.1.74,1.169,0a13.827,13.827,0,0,1,1.854-5.119,11.265,11.265,0,0,1,3.327-4.16,39.776,39.776,0,0,1,9.255-4.643,39.121,39.121,0,0,1,4.846-1.5,12.429,12.429,0,0,1,5.641.093c1.807.413,3.607.9,5.4,1.363,1.566.4,3.319.67,4.5,1.862.522.545,1.348-.28.818-.818Z" transform="translate(-452.026 -64.349)" fill="#462413"/>
        </g>
      </g>
      <g id="Group_151" data-name="Group 151" transform="translate(448.185 56.761)">
        <g id="Group_150" data-name="Group 150">
          <path id="Path_389" data-name="Path 389" d="M491.359,62.742c-5.516-2.54-11.562-5.461-17.786-5.274-2.945.086-5.563,1.558-7.915,3.233a17.858,17.858,0,0,0-5.4,5.82c-.366.662.647,1.247,1.013.592a16.758,16.758,0,0,1,5.235-5.578c2.353-1.636,4.838-2.968,7.775-2.9,5.812.132,11.312,2.735,16.485,5.119.686.312,1.278-.693.592-1.013Z" transform="translate(-460.179 -57.459)" fill="#462413"/>
        </g>
      </g>
      <g id="Group_153" data-name="Group 153" transform="translate(448.402 68.672)">
        <g id="Group_152" data-name="Group 152" transform="translate(0 0)">
          <path id="Path_390" data-name="Path 390" d="M488.242,72.765a51.375,51.375,0,0,1-9.832,1.044,33.889,33.889,0,0,0-8.858,1.122,13.566,13.566,0,0,0-9.084,10.923c-.125.732,1.005,1.052,1.13.312A12.454,12.454,0,0,1,471.18,75.71a48.856,48.856,0,0,1,8.726-.787,45.437,45.437,0,0,0,8.648-1.021.59.59,0,0,0-.312-1.137Z" transform="translate(-460.458 -72.747)" fill="#462413"/>
        </g>
      </g>
      <g id="Group_155" data-name="Group 155" transform="translate(449.689 70.907)">
        <g id="Group_154" data-name="Group 154" transform="translate(0 0)">
          <path id="Path_391" data-name="Path 391" d="M465.055,89.837c3.07-3.42,7.915-5.944,12-7.97a19.06,19.06,0,0,1,7.058-2.119,23.462,23.462,0,0,0,5.415-.662c2.15-.67,1.231-4.059-.935-3.381-2.22.693-4.565.382-6.84.787a23.932,23.932,0,0,0-6.466,2.353c-4.355,2.181-9.419,4.854-12.707,8.523-1.5,1.667.966,4.153,2.477,2.47Z" transform="translate(-462.109 -75.616)" fill="#dfb28b"/>
        </g>
      </g>
      <g id="Group_157" data-name="Group 157" transform="translate(478.446 73.944)">
        <g id="Group_156" data-name="Group 156" transform="translate(0 0)">
          <path id="Path_392" data-name="Path 392" d="M499.168,81.279a11.715,11.715,0,0,0,4.043,3.841c.358.242.709.483,1.06.732.187.132.374.265.553.405-.2-.156.023.023.07.055.1.078.2.164.3.249a8.39,8.39,0,0,1,.873.873c.039.047.078.093.117.148-.078-.1-.086-.117-.039-.047.055.093.132.179.187.273a5.4,5.4,0,0,1,.335.584,1.168,1.168,0,0,0,2.018-1.176,10.967,10.967,0,0,0-3.966-3.888c-.358-.242-.717-.483-1.067-.725-.187-.132-.374-.265-.561-.405-.218-.164.117.1-.07-.055-.1-.078-.2-.164-.3-.249a7.831,7.831,0,0,1-.9-.865c-.07-.086-.14-.171-.218-.257-.055-.062-.039-.047.039.047a1.892,1.892,0,0,1-.109-.156c-.125-.187-.242-.374-.351-.577a1.185,1.185,0,0,0-1.6-.421,1.218,1.218,0,0,0-.413,1.613Z" transform="translate(-499.021 -79.514)" fill="#dfb28b"/>
        </g>
      </g>
      <g id="Group_159" data-name="Group 159" transform="translate(474.581 95.366)">
        <g id="Group_158" data-name="Group 158" transform="translate(0 0)">
          <path id="Path_393" data-name="Path 393" d="M505.092,107.135a7.6,7.6,0,0,1-4.838,2.439,7.31,7.31,0,0,1-2.664-.218,16.424,16.424,0,0,0-3.155-.795c-.5-.039-.5.748,0,.779a28.161,28.161,0,0,1,3.459.888,8.181,8.181,0,0,0,2.789.07,8.359,8.359,0,0,0,4.963-2.618c.335-.366-.21-.919-.553-.545Z" transform="translate(-494.06 -107.01)" fill="url(#linear-gradient)"/>
        </g>
      </g>
      <g id="Group_161" data-name="Group 161" transform="translate(451.182 96.461)">
        <g id="Group_160" data-name="Group 160">
          <path id="Path_394" data-name="Path 394" d="M475.178,108.637a7.616,7.616,0,0,1-5.228,1.644,7.34,7.34,0,0,1-2.774-.74,12.446,12.446,0,0,0-2.664-1.114c-.491-.109-.693.639-.21.748a19.5,19.5,0,0,1,3.085,1.309,8.225,8.225,0,0,0,2.9.592,8.417,8.417,0,0,0,5.438-1.885c.4-.319-.164-.865-.545-.553Z" transform="translate(-464.026 -108.416)" fill="url(#linear-gradient-2)"/>
        </g>
      </g>
      <g id="Group_163" data-name="Group 163" transform="translate(466.386 84.661)">
        <g id="Group_162" data-name="Group 162" transform="translate(0 0)">
          <path id="Path_395" data-name="Path 395" d="M485.519,97.36c2.633,0,2.633-4.09,0-4.09s-2.641,4.09,0,4.09Z" transform="translate(-483.541 -93.27)" fill="#5b0505"/>
        </g>
      </g>
      <path id="Path_396" data-name="Path 396" d="M451.619,176.317c-3.74-34.4,14.771-34.217,14.771-34.217" transform="translate(-9.992 -19.397)" fill="none" stroke="#333" stroke-width="2"/>
      <path id="Path_397" data-name="Path 397" d="M502.16,144.739s12.9-.935,10.471,24.681-5.08,49.176-5.08,49.176" transform="translate(-21.268 -19.979)" fill="none" stroke="#333" stroke-width="2"/>
      <path id="Path_398" data-name="Path 398" d="M456.59,240.632S447.319,244.3,444.9,230.4c-2.08-11.92-3.576-11.8-3.576-11.8" transform="translate(-7.827 -36.297)" fill="none" stroke="#968c8f" stroke-width="2"/>
      <path id="Path_399" data-name="Path 399" d="M476.064,212.72l4,11.733s4.114,9.349-4.3,11.032" transform="translate(-15.436 -34.998)" fill="none" stroke="#968c8f" stroke-width="2"/>
      <path id="Path_400" data-name="Path 400" d="M441.894,212.933s-8.227-26.551,10.658-26.925c0,0,13.486-1.979,15.815,21.581" transform="translate(-7.56 -29.088)" fill="none" stroke="#333" stroke-width="2"/>
      <path id="Path_401" data-name="Path 401" d="M460.9,246.562a4.181,4.181,0,0,1,1.893-.039c.639.016,1.426-.382,1.34-1.013" transform="translate(-12.153 -42.242)" fill="none" stroke="#333" stroke-width="2"/>
      <path id="Path_402" data-name="Path 402" d="M471.043,242.245a.853.853,0,0,0-.187.974.959.959,0,0,0,.919.382,4,4,0,0,0,1.753-.709l1.613-.982" transform="translate(-14.334 -41.447)" fill="none" stroke="#333" stroke-width="2"/>
      <path id="Path_403" data-name="Path 403" d="M464.829,244.22c.008.405.016.818.016,1.223,0,.156-.047.358-.195.358" transform="translate(-12.981 -41.957)" fill="none" stroke="#333" stroke-width="2"/>
      <ellipse id="Ellipse_69" data-name="Ellipse 69" cx="7.9" cy="7.526" rx="7.9" ry="7.526" transform="translate(477.152 198.617)" fill="#f2f2f2" stroke="#333" stroke-width="1"/>
      <ellipse id="Ellipse_70" data-name="Ellipse 70" cx="4.254" cy="3.599" rx="4.254" ry="3.599" transform="translate(480.892 202.637)" fill="#fff" stroke="#686566" stroke-width="2"/>
    </g>
    <g id="indian-_nurse-female" data-name="indian- nurse-female" transform="translate(-5.181 -12.839)">
      <path id="Path_410" data-name="Path 410" d="M477.564,286.778S453.6,293.865,451.28,297.73c0,0,10.823,1.933,6.829,33.757,0,0,10.265,8.461,10.093,30.837,0,0,18.826,3.779,45.854,0,0,0-.415-19.584,11.567-31.781,0,0-8.117-27.7,6.056-33.156,0,0-20.758-10.866-26.026-10.608s4.9,9.406,4.9,9.406l-2.19,4.638-32.018-1.16Z" transform="translate(-365.097 -102.323)" fill="#d4d7df"/>
      <path id="Path_411" data-name="Path 411" d="M493.8,273.76a31.323,31.323,0,0,0,9.663,23.364s9.921-7.387,10.093-23.364C513.553,273.76,506.337,276.165,493.8,273.76Z" transform="translate(-377.178 -98.625)" fill="none"/>
      <path id="Path_412" data-name="Path 412" d="M509.3,120.64a13.512,13.512,0,0,0,6.356,8.761s17.523,10.136,19.756,36.935c0,0,6.7-9.1,9.62-6.7s3.092,9.1.859,18.038-6.872,11.682-10.479,8.246c0,0,.859,15.461-20.959,34.358,0,0-21.13,19.928-55.66,5.669,0,0-26.971-16.664-29.348-37.622,0,0-8.933-.716-10.136-16.836,0,0-1.718-11.166,2.577-12.369l5.011,9.1s.859-19.928,22.5-30.779,46.183-16.807,46.183-16.807-67.686,17.895-66.655,51.537l2.749,3.686s-3.092-27.05,41.23-43.2C472.876,132.665,498.129,123.761,509.3,120.64Z" transform="translate(-355.913 -55.108)" fill="#ecb380"/>
      <path id="Path_413" data-name="Path 413" d="M497.64,216.88s5.29,1.546,7.115,2.061c0,0,4.051-.859,5.6-2.061,0,0-1.754,3.951-5.6,4.295C504.755,221.175,502.278,221.69,497.64,216.88Z" transform="translate(-378.272 -82.459)" fill="#824916"/>
      <circle id="Ellipse_72" data-name="Ellipse 72" cx="3.099" cy="3.099" r="3.099" transform="translate(67.73 129.632)" fill="#f5a51f"/>
      <circle id="Ellipse_73" data-name="Ellipse 73" cx="3.099" cy="3.099" r="3.099" transform="translate(180.662 128.916)" fill="#f79c16"/>
      <path id="Path_414" data-name="Path 414" d="M459,60.785s3.092,14.946,9.449,16.635,20.959,5.841,41.23-1.718,26.971-7.731,32.3-3.264l-4.123-26.8s-20.758.716-23.879-1.89-35.561-9.1-43.807-3.092Z" transform="translate(-367.291 -31.673)" fill="#d4d7df"/>
      <path id="Path_415" data-name="Path 415" d="M479.879,34.667s25.253-12.541,49.991,0c0,0,9.305,5.011,11.682,7.559s-21.474.48-26.628-2.427-32.733-5.275-39.047-2.541S479.879,34.667,479.879,34.667Z" transform="translate(-371.506 -29.09)" fill="#abb3c1"/>
      <path id="Path_416" data-name="Path 416" d="M469.622,43.05,468.449,78.8s-7.874.172-9.449-16.664Z" transform="translate(-367.291 -33.057)" fill="#abb3c1"/>
      <path id="Path_417" data-name="Path 417" d="M555.72,50.32h8.074l3.579,22.848s-6.872-2.749-10.136,0Z" transform="translate(-394.779 -35.123)" fill="#acb3c0"/>
      <path id="Path_418" data-name="Path 418" d="M548.145,253.36s-7.91,25.425-28.145,22.848l1.038-8.246S537.179,265.049,548.145,253.36Z" transform="translate(-384.627 -92.827)" fill="#0f0808"/>
      <path id="Path_419" data-name="Path 419" d="M651.14,316.9c.544-.558-19.455,2.577-28.088,1.432,0,0-8.246.644-7.874,4.252L577.813,356.6l-6.829,7.23s-3.479,15.032,7.6,11.625c0,0,9.534-.3,29.634-32.769L619.3,326.939S643.667,324.505,651.14,316.9Z" transform="translate(-398.97 -110.867)" fill="#ecb381"/>
      <path id="Path_420" data-name="Path 420" d="M478,269.45s10.415,3.579,11.3,3.93.651,6.134.651,6.134S481.064,275.47,478,269.45Z" transform="translate(-372.691 -97.4)" fill="#0a0608"/>
      <path id="Path_421" data-name="Path 421" d="M558.238,299.83s6.227,4.638,8.547,23.321,5.669,28.632,5.669,28.632-6.7,6.528-5.8,18.854l-13.915-36.506S547.766,309.372,558.238,299.83Z" transform="translate(-393.597 -106.034)" fill="#dee1eb"/>
      <path id="Path_422" data-name="Path 422" d="M120.44,265.563l15.454-6.013,1.725,4.467-15.125,6.356Z" transform="translate(-34.228 -73.764)" fill="#363d8c"/>
      <path id="Path_423" data-name="Path 423" d="M212.741,259.55l-2.061,4.467,15.111,6.356,2.069-4.638Z" transform="translate(-59.874 -73.764)" fill="#414a8f"/>
      <path id="Path_424" data-name="Path 424" d="M507.3,284.757l7.566,2.405s8.074,10.995,5.154,11.854-11.875,3.264-20.794,1.718l-2.741-.859s-18.246,3.293-21.166-2.434c0,0,1.167-5.154,7.874-11.854a10.823,10.823,0,0,1,5.963-2.147s3.83,12.741,8.84,15.232C498,298.672,501.769,298.329,507.3,284.757Z" transform="translate(-371.929 -101.376)" fill="#fffffe"/>
      <circle id="Ellipse_74" data-name="Ellipse 74" cx="1.933" cy="1.933" r="1.933" transform="translate(129.675 204.168)" fill="#feffff"/>
      <circle id="Ellipse_75" data-name="Ellipse 75" cx="1.933" cy="1.933" r="1.933" transform="translate(129.675 228.219)" fill="#fdfeff"/>
      <circle id="Ellipse_76" data-name="Ellipse 76" cx="1.804" cy="1.804" r="1.804" transform="translate(130.878 252.27)" fill="#feffff"/>
      <path id="Path_425" data-name="Path 425" d="M472.7,391.843s33.056,3.436,46.162-1.2c0,0,1.933,9.112,4.345,11.667,0,0-42.024,2.2-54.086.508C469.12,402.816,473.558,394.591,472.7,391.843Z" transform="translate(-370.167 -131.842)" fill="#f9fcfe"/>
      <path id="Path_426" data-name="Path 426" d="M472.335,392.32l5.641.487v12.054l-10.136-1.718S470.818,401.4,472.335,392.32Z" transform="translate(-369.803 -132.32)" fill="#343f7e"/>
      <path id="Path_427" data-name="Path 427" d="M154.82,364.16l15.218.365.437,11.51H155.121Z" transform="translate(-43.999 -103.494)" fill="#343c88"/>
      <path id="Path_428" data-name="Path 428" d="M511.948,661s-2.269,6.779-1.84,10.308l.651,7.158Z" transform="translate(-381.8 -208.679)" fill="#b9b9be"/>
      <path id="Path_429" data-name="Path 429" d="M510.553,683.846s-1.174,13.743.974,16.75c0,0,7.816,7.387,14.43-.859,0,0,2.491-2.663-.859-10.995l-1.689-5.283Z" transform="translate(-381.851 -215.062)" fill="#252525"/>
      <path id="Path_430" data-name="Path 430" d="M179.24,364.525l12.362-.365v11.875H179.24Z" transform="translate(-50.939 -103.494)" fill="#343f81"/>
      <path id="Path_431" data-name="Path 431" d="M498,661.76s2.262,6.779,1.832,10.307l-.651,7.158Z" transform="translate(-378.375 -208.895)" fill="#b9b9be"/>
      <path id="Path_432" data-name="Path 432" d="M493.588,684.646s1.167,13.743-.981,16.75c0,0-7.816,7.387-14.43-.859,0,0-2.491-2.663.859-10.995l1.689-5.283Z" transform="translate(-372.488 -215.29)" fill="#252525"/>
      <path id="Path_433" data-name="Path 433" d="M492.083,585.344s1.36,9.449-.372,28.861c0,0-2.3,29.548-.472,31.953,0,0,3.371,21.13-4.187,19.584l-6.528-.859s-3.951-2.405,0-14.259c0,0,1.818-11.51-1.754-21.13,0,0-10.594-39.884-5.955-44.694Z" transform="translate(-370.883 -187.023)" fill="#d4d7df"/>
      <path id="Path_434" data-name="Path 434" d="M511.268,585.824s-2.212,8.425-.472,27.837c0,0,2.3,29.548.472,31.953,0,0-3.379,21.13,4.18,19.584l6.528-.859s3.951-2.405,0-14.259c0,0-1.811-11.51,1.754-21.13,0,0,10.615-39.369,5.977-44.151Z" transform="translate(-381.821 -187.023)" fill="#d4d7df"/>
      <path id="Path_435" data-name="Path 435" d="M473.958,565.36l16.836,2.362s1.031,14.817,1.546,14.817-13.6-.344-20.1-2.061Z" transform="translate(-371.053 -181.498)" fill="#a8aeb5"/>
      <path id="Path_436" data-name="Path 436" d="M512.018,568.542s-.258,14.259-.945,13.915S531,580.568,531,580.568s-.859-14.087-1.89-15.289S512.018,568.542,512.018,568.542Z" transform="translate(-382.085 -181.416)" fill="#a8aeb5"/>
      <path id="Path_437" data-name="Path 437" d="M532,391.843l4.76-1.2s2.284,10.136,5.011,11.51L532,404.383Z" transform="translate(-388.037 -131.842)" fill="#323d89"/>
      <path id="Path_438" data-name="Path 438" d="M456.763,407.454s-23.049,45.031-31.123,97.6l17.695,7.788.344,3.035h1.031l.344,2.319,15.633,3.693,17.48,1.718h7.258s25.855-.6,40.672-6.313v-5.011s13.1-.859,13.1-3.264-9.8-85.667-28.346-102.059C510.849,406.946,488.408,409.852,456.763,407.454Z" transform="translate(-357.81 -136.48)" fill="#d4d7df"/>
      <circle id="Ellipse_77" data-name="Ellipse 77" cx="2.061" cy="2.061" r="2.061" transform="translate(130.878 276.492)" fill="#feffff"/>
      <circle id="Ellipse_78" data-name="Ellipse 78" cx="1.954" cy="1.954" r="1.954" transform="translate(131.25 300.371)" fill="#fbfdfe"/>
      <circle id="Ellipse_79" data-name="Ellipse 79" cx="1.954" cy="1.954" r="1.954" transform="translate(132.159 326.047)" fill="#f6faff"/>
      <circle id="Ellipse_80" data-name="Ellipse 80" cx="1.954" cy="1.954" r="1.954" transform="translate(132.102 351.157)" fill="#fdffff"/>
      <path id="Path_439" data-name="Path 439" d="M504.12,307.3s.716-1.553,1.2,0,2.405,187.26,2.405,187.26h2.319l-2.67-187.26a1.432,1.432,0,0,1,2.412-.716l-4.524-1.832Z" transform="translate(-380.114 -107.432)" fill="#fff"/>
      <path id="Path_440" data-name="Path 440" d="M461.156,345.7s8.339,9.792,22.254,3.522,22.29-1.081,24.48-.716l2.19.365a19.007,19.007,0,0,0,18.553-3.178s-9.119,12.884-10.021,18.382c0,0-4.424-9.663-30.064-7.874,0,0-16.886-.6-18.611,10.909,0,0-.451-8.139-4.059-12.033l-5.01-6.865Z" transform="translate(-367.822 -119.067)" fill="#c5c8d0"/>
      <path id="Path_441" data-name="Path 441" d="M330.9,318.433c-.551-.558,19.455,2.577,28.088,1.432,0,0,8.246.644,7.874,4.252l37.365,34.015,6.829,7.23s3.479,15.032-7.6,11.625c0,0-9.534-.3-29.634-32.769l-11.081-15.748S338.368,326.035,330.9,318.433Z" transform="translate(-330.88 -111.302)" fill="#ecb381"/>
      <path id="Path_442" data-name="Path 442" d="M447.529,301.36s-6.22,4.638-8.539,23.321-5.669,28.632-5.669,28.632,6.7,6.528,5.8,18.854l13.915-36.506S458.008,310.9,447.529,301.36Z" transform="translate(-359.992 -106.469)" fill="#dee1eb"/>
      <path id="Path_443" data-name="Path 443" d="M473.341,409.84,469.3,429.532s-1.2,13.514,3.35-8.955Z" transform="translate(-370.179 -137.299)" fill="#c2c5cd"/>
      <path id="Path_444" data-name="Path 444" d="M151.182,384.77,148.212,435.4l-3.472,59.018,5.533,1.16,1.424-80.656Z" transform="translate(-41.134 -109.351)" fill="#c2c5cd"/>
      <path id="Path_445" data-name="Path 445" d="M169.426,398.81l-1.3,101.658H171.1Z" transform="translate(-47.782 -113.342)" fill="#c5c8d0"/>
      <path id="Path_446" data-name="Path 446" d="M530,412.06s2.319,25.253,4.51,18.682A155.927,155.927,0,0,0,530,412.06Z" transform="translate(-387.469 -137.93)" fill="#c3c6ce"/>
      <path id="Path_447" data-name="Path 447" d="M214.75,389.15l14.559,97.234h-.895l.895,5.025-3.865.9Z" transform="translate(-61.031 -110.596)" fill="#c2c5cd"/>
      <path id="Path_448" data-name="Path 448" d="M181.51,496.9h5.633L182.462,386.27Z" transform="translate(-51.584 -109.778)" fill="none"/>
      <circle id="Ellipse_81" data-name="Ellipse 81" cx="1.954" cy="1.954" r="1.954" transform="translate(131.672 376.36)" fill="#fdffff"/>
      <path id="Path_449" data-name="Path 449" d="M523.08,413.86l3.092,34.745s-2.062,4.295-3.092-10.995Z" transform="translate(-385.502 -138.441)" fill="#c3c6ce"/>
      <path id="Path_450" data-name="Path 450" d="M512.4,589.05" transform="translate(-382.467 -188.231)" fill="#a8aeb5"/>
      <path id="Path_451" data-name="Path 451" d="M493.769,273.317s-1.546,11.338,9.191,22.906c0,0,7.043-3.779,10.565-16.463l1.031-7.559Z" transform="translate(-377.15 -98.181)" fill="#eab385"/>
      <path id="Path_452" data-name="Path 452" d="M493.48,274.082l20.88-.472a13.762,13.762,0,0,1-12.4,8.2S494.654,280.331,493.48,274.082Z" transform="translate(-377.09 -98.582)" fill="#d0996b"/>
      <path id="Path_453" data-name="Path 453" d="M480.12,234.43s8.167-.086,10.443-.6c0,0,6.306-.716,9.141,1.288a8.8,8.8,0,0,1,6.185-1.432s12.111,1.532,14.087.651c0,0-6.872,14.316-17.437,15.182,0,0-10.995,1.711-15.118-4.173C487.421,245.374,480.893,237.865,480.12,234.43Z" transform="translate(-373.293 -87.21)" fill="#d82324"/>
      <path id="Path_454" data-name="Path 454" d="M523.295,238.625l5.24-.945s-2.405,4.638-5.669,5.011S523.295,238.625,523.295,238.625Z" transform="translate(-385.058 -88.371)" fill="#682426"/>
      <path id="Path_455" data-name="Path 455" d="M488.5,238.625l-5.24-.945s2.405,4.638,5.669,5.011S488.5,238.625,488.5,238.625Z" transform="translate(-374.185 -88.371)" fill="#682426"/>
      <path id="Path_456" data-name="Path 456" d="M488.16,237.64s15.2,2.749,26.885,0c0,0-1.718,3.436-2.577,3.522s3.865.429,1.89,2.061-8.761,5.726-23.192,1.288c0,0-3.579-2.405.952-2.863C492.118,241.677,488.847,240.217,488.16,237.64Z" transform="translate(-375.578 -88.359)" fill="#fff9f5"/>
      <path id="Path_457" data-name="Path 457" d="M527.16,185.388s10.021-21.474,23.02-8.847C550.18,176.541,532.142,174.222,527.16,185.388Z" transform="translate(-386.662 -69.864)" fill="#e25765"/>
      <path id="Path_458" data-name="Path 458" d="M521.52,195.255s3.615-18.41,19.842-18.181c0,0,6.356,1.518,10.136-2.434,0,0,2.061,2.376-1.718,4.925,0,0,3.693.4,6.1-3.808,0,0,3.006,2.147,0,6.184a7.466,7.466,0,0,0,5.01-3.951s.945,7.237-4.381,10.565C556.479,188.555,545.828,198.175,521.52,195.255Z" transform="translate(-385.059 -70.455)" fill="#200c0f"/>
      <path id="Path_459" data-name="Path 459" d="M522.84,197.244s7.645-21.56,24.738-12.455c0,0,8.668,5.3.773,8.668C548.351,193.458,543.713,197.416,522.84,197.244Z" transform="translate(-385.434 -72.702)" fill="#fffef5"/>
      <path id="Path_460" data-name="Path 460" d="M548.658,189.75c0,4.1-3.708,6.664-8.289,6.664s-8.289-2.563-8.289-6.664,3.708-7.43,8.289-7.43S548.658,185.67,548.658,189.75Z" transform="translate(-388.06 -72.637)" fill="#633619"/>
      <ellipse id="Ellipse_82" data-name="Ellipse 82" cx="4.896" cy="4.252" rx="4.896" ry="4.252" transform="translate(147.542 113.033)" fill="#1f2017"/>
      <ellipse id="Ellipse_83" data-name="Ellipse 83" cx="3.135" cy="3.264" rx="3.135" ry="3.264" transform="translate(146.683 112.088)" fill="#f2fff0"/>
      <ellipse id="Ellipse_84" data-name="Ellipse 84" cx="1.417" cy="1.718" rx="1.417" ry="1.718" transform="translate(152.008 119.99)" fill="#f2fff0"/>
      <path id="Path_461" data-name="Path 461" d="M528.36,163.646s11.338-16.062,29.348,0C557.736,163.646,541.159,158.291,528.36,163.646Z" transform="translate(-387.003 -65.301)" fill="#120c01"/>
      <path id="Path_462" data-name="Path 462" d="M589.138,182.861s1.2-2.863,2.405.6,1.976-2.663,0-3.865-5.726,2.92-6.442,8.332-.6,11.324,2.92,9.227,1.117-8.668,1.117-8.668h-1.117S587.792,184.665,589.138,182.861Z" transform="translate(-403.029 -71.804)" fill="#ce9e72"/>
      <circle id="Ellipse_85" data-name="Ellipse 85" cx="2.663" cy="2.663" r="2.663" transform="translate(123.577 93.019)" fill="#e21607"/>
      <path id="Path_463" data-name="Path 463" d="M474.828,163.916s-11.338-16.063-29.348,0C445.451,163.916,462.029,158.59,474.828,163.916Z" transform="translate(-363.448 -65.378)" fill="#120c01"/>
      <path id="Path_464" data-name="Path 464" d="M478.71,185.738s-10.021-21.474-23.02-8.847C455.69,176.891,473.728,174.572,478.71,185.738Z" transform="translate(-366.35 -69.964)" fill="#e25765"/>
      <path id="Path_465" data-name="Path 465" d="M477.833,195.6s-3.615-18.41-19.849-18.181c0,0-6.349,1.517-10.129-2.434,0,0-2.061,2.384,1.718,4.925,0,0-3.694.4-6.1-3.808,0,0-3.006,2.147,0,6.184a7.466,7.466,0,0,1-5.011-3.951s-.945,7.237,4.381,10.565C442.874,188.905,453.525,198.525,477.833,195.6Z" transform="translate(-361.436 -70.554)" fill="#200c0f"/>
      <path id="Path_466" data-name="Path 466" d="M480.722,197.594s-7.645-21.56-24.738-12.455c0,0-8.675,5.3-.773,8.668C455.211,193.808,459.842,197.766,480.722,197.594Z" transform="translate(-365.27 -72.801)" fill="#fffef5"/>
      <path id="Path_467" data-name="Path 467" d="M459.77,190.1c0,4.109,3.708,6.664,8.289,6.664s8.289-2.555,8.289-6.664-3.715-7.43-8.289-7.43S459.77,186,459.77,190.1Z" transform="translate(-367.509 -72.737)" fill="#633619"/>
      <ellipse id="Ellipse_86" data-name="Ellipse 86" cx="4.896" cy="4.252" rx="4.896" ry="4.252" transform="translate(95.517 113.283)" fill="#1f2017"/>
      <ellipse id="Ellipse_87" data-name="Ellipse 87" cx="3.135" cy="3.264" rx="3.135" ry="3.264" transform="translate(99.898 112.338)" fill="#f2fff0"/>
      <ellipse id="Ellipse_88" data-name="Ellipse 88" cx="1.417" cy="1.718" rx="1.417" ry="1.718" transform="translate(98.008 120.241)" fill="#f2fff0"/>
      <path id="Path_468" data-name="Path 468" d="M425.825,182.151s-1.2-2.863-2.405.6-1.976-2.663,0-3.865,5.726,2.92,6.442,8.332.6,11.324-2.92,9.227-1.117-8.668-1.117-8.668h1.117S427.2,183.955,425.825,182.151Z" transform="translate(-356.835 -71.602)" fill="#ce9e72"/>
      <path id="Path_469" data-name="Path 469" d="M447.217,69.76s-46.649,34.072-22.977,80l2.1,2.978s-2.827-31.953,68.81-46.527c0,0-71.107,19.956-65.853,52.583l1.968,2.641s-7.215-34.609,77.65-55.224c0,0,3.579,9.771,10.823,10.894,0,0,15.461,16.077,15.289,34.8,0,0,6.7-8.418,9.62-6.7s8.224-48.646-18.4-66.512c0,0-4.123-2.233-17.523,0s-31.953,7.7-31.953,7.7L460.1,85.049Z" transform="translate(-355.507 -40.648)" fill="#030303"/>
      <path id="Path_470" data-name="Path 470" d="M438.43,145.816s17.988-29.72,66.261-30.779c0,0-36.592-11.854-63.048,16.836,0,0,19.448-13.851,28.632-13.6C470.283,118.358,442.066,126.861,438.43,145.816Z" transform="translate(-361.445 -52.826)" fill="#693819"/>
      <path id="Path_471" data-name="Path 471" d="M425.16,129.126s12.884-32.64,64.25-29.72C489.41,99.435,447.149,100.81,425.16,129.126Z" transform="translate(-357.673 -49.021)" fill="#693819"/>
      <path id="Path_472" data-name="Path 472" d="M425.16,138.34s18.21-35.9,66.655-30.407C491.815,107.933,446.806,109.479,425.16,138.34Z" transform="translate(-357.673 -51.334)" fill="#693819"/>
    </g>
  </g>
</svg>
