<svg xmlns="http://www.w3.org/2000/svg" width="330" height="330" viewBox="0 0 330 330">
  <g id="Group_180" data-name="Group 180" transform="translate(-499 -176)">
    <g id="Group_166" data-name="Group 166" transform="translate(622.484 298.774)">
      <g id="Ellipse_89" data-name="Ellipse 89" transform="translate(-0.484 0.226)" fill="#d76245" stroke="#707070" stroke-width="1">
        <ellipse cx="41.5" cy="41" rx="41.5" ry="41" stroke="none"/>
        <ellipse cx="41.5" cy="41" rx="41" ry="40.5" fill="none"/>
      </g>
      <text id="CPHC_through_HWC" data-name="CPHC
through
HWC" transform="translate(39.516 25.226)" fill="#fff" font-size="12" font-family="SourceSansPro-Semibold, Source Sans Pro" font-weight="600"><tspan x="-14" y="0">CPHC</tspan><tspan x="-20" y="17">through</tspan><tspan x="-12" y="34">HWC</tspan></text>
    </g>
    <g id="Group_167" data-name="Group 167" transform="translate(714.032 204.387)">
      <g id="Ellipse_89-2" data-name="Ellipse 89" transform="translate(-0.032 -0.387)" fill="#eccfa7" stroke="#707070" stroke-width="1">
        <ellipse cx="41" cy="41.5" rx="41" ry="41.5" stroke="none"/>
        <ellipse cx="41" cy="41.5" rx="40.5" ry="41" fill="none"/>
      </g>
      <text id="Expanded_service_delivery" data-name="Expanded
service delivery" transform="translate(39.968 35.613)" fill="#252525" font-size="11" font-family="SourceSansPro-Regular, Source Sans Pro"><tspan x="-22" y="0">Expanded</tspan><tspan x="-35" y="15">service delivery</tspan></text>
    </g>
    <g id="Group_168" data-name="Group 168" transform="translate(746.677 298.774)">
      <g id="Ellipse_89-3" data-name="Ellipse 89" transform="translate(0.323 0.226)" fill="#eccfa7" stroke="#707070" stroke-width="1">
        <circle cx="41" cy="41" r="41" stroke="none"/>
        <circle cx="41" cy="41" r="40.5" fill="none"/>
      </g>
      <text id="Expanding_HR-MLHP_Multitasking" data-name="Expanding
HR-MLHP &amp;
Multitasking" transform="translate(40.323 28.226)" fill="#252525" font-size="11" font-family="SourceSansPro-Regular, Source Sans Pro"><tspan x="-24" y="0">Expanding</tspan><tspan x="-26" y="15">HR-MLHP &amp;</tspan><tspan x="-28" y="30">Multitasking</tspan></text>
    </g>
    <g id="Group_169" data-name="Group 169" transform="translate(723.258 392.452)">
      <g id="Ellipse_89-4" data-name="Ellipse 89" transform="translate(-0.258 -0.452)" fill="#eccfa7" stroke="#707070" stroke-width="1">
        <circle cx="41.5" cy="41.5" r="41.5" stroke="none"/>
        <circle cx="41.5" cy="41.5" r="41" fill="none"/>
      </g>
      <text id="Medicines_expanding_diagnostics" data-name="Medicines &amp;
expanding 
diagnostics" transform="translate(39.742 27.548)" fill="#252525" font-size="11" font-family="SourceSansPro-Regular, Source Sans Pro"><tspan x="-27" y="0">Medicines &amp;</tspan><tspan x="-25" y="15">expanding </tspan><tspan x="-26" y="30">diagnostics</tspan></text>
    </g>
    <g id="Group_170" data-name="Group 170" transform="translate(623.903 423.677)">
      <g id="Ellipse_89-5" data-name="Ellipse 89" transform="translate(0.097 0.323)" fill="#eccfa7" stroke="#707070" stroke-width="1">
        <circle cx="41" cy="41" r="41" stroke="none"/>
        <circle cx="41" cy="41" r="40.5" fill="none"/>
      </g>
      <text id="Community_mobilisation_Health_promotion" data-name="Community
mobilisation &amp;
Health
promotion" transform="translate(39.097 19.323)" fill="#252525" font-size="11" font-family="SourceSansPro-Regular, Source Sans Pro"><tspan x="-27" y="0">Community</tspan><tspan x="-33" y="15">mobilisation &amp;</tspan><tspan x="-15" y="30">Health</tspan><tspan x="-24" y="45">promotion</tspan></text>
    </g>
    <g id="Group_172" data-name="Group 172" transform="translate(525.968 385.355)">
      <g id="Ellipse_89-6" data-name="Ellipse 89" transform="translate(0.032 -0.355)" fill="#eccfa7" stroke="#707070" stroke-width="1">
        <ellipse cx="41" cy="41.5" rx="41" ry="41.5" stroke="none"/>
        <ellipse cx="41" cy="41.5" rx="40.5" ry="41" fill="none"/>
      </g>
      <text id="Financing_Provider_payment_reforms" data-name="Financing/
Provider
payment
reforms" transform="translate(41.032 19.645)" fill="#252525" font-size="11" font-family="SourceSansPro-Regular, Source Sans Pro"><tspan x="-24" y="0">Financing/</tspan><tspan x="-19" y="15">Provider</tspan><tspan x="-20" y="30">payment</tspan><tspan x="-17" y="45">reforms</tspan></text>
    </g>
    <g id="Group_173" data-name="Group 173" transform="translate(499 298.774)">
      <g id="Ellipse_89-7" data-name="Ellipse 89" transform="translate(0 0.226)" fill="#eccfa7" stroke="#707070" stroke-width="1">
        <circle cx="41" cy="41" r="41" stroke="none"/>
        <circle cx="41" cy="41" r="40.5" fill="none"/>
      </g>
      <text id="Infrastructure_Robust_IT_Systems" data-name="Infrastructure
&amp;
Robust IT
Systems" transform="translate(40 24.226)" fill="#252525" font-size="11" font-family="SourceSansPro-Regular, Source Sans Pro"><tspan x="-31" y="0">Infrastructure</tspan><tspan x="-3" y="15">&amp;</tspan><tspan x="-21" y="30">Robust IT</tspan><tspan x="-19" y="45">Systems</tspan></text>
    </g>
    <g id="Group_174" data-name="Group 174" transform="translate(530.936 204.387)">
      <g id="Ellipse_89-8" data-name="Ellipse 89" transform="translate(0.064 -0.387)" fill="#eccfa7" stroke="#707070" stroke-width="1">
        <ellipse cx="41" cy="41.5" rx="41" ry="41.5" stroke="none"/>
        <ellipse cx="41" cy="41.5" rx="40.5" ry="41" fill="none"/>
      </g>
      <text id="Partnership_for_knowledge_implementation" data-name="Partnership for
knowledge &amp;
implementation" transform="translate(37.064 28.613)" fill="#252525" font-size="9" font-family="SourceSansPro-Regular, Source Sans Pro"><tspan x="-28" y="0">Partnership for</tspan><tspan x="-24" y="13">knowledge &amp;</tspan><tspan x="-30" y="26">implementation</tspan></text>
    </g>
    <g id="Group_175" data-name="Group 175" transform="translate(623.903 176)">
      <g id="Ellipse_89-9" data-name="Ellipse 89" transform="translate(0.097)" fill="#eccfa7" stroke="#707070" stroke-width="1">
        <circle cx="41" cy="41" r="41" stroke="none"/>
        <circle cx="41" cy="41" r="40.5" fill="none"/>
      </g>
      <text id="Continuum_of_Care_-_Telehealth_Referral" data-name="Continuum of
Care - Telehealth/
Referral" transform="translate(36.097 28)" fill="#252525" font-size="9" font-family="SourceSansPro-Regular, Source Sans Pro"><tspan x="-25" y="0">Continuum of</tspan><tspan x="-33" y="13">Care - Telehealth/</tspan><tspan x="-14" y="26">Referral</tspan></text>
    </g>
    <g id="Iconly_Bold_Arrow---Down" data-name="Iconly/Bold/Arrow---Down" transform="translate(658.696 385.397)">
      <g id="Arrow---Down" transform="translate(0 0)">
        <path id="Path_473" data-name="Path 473" d="M6.511,8.512a29.648,29.648,0,0,1,4.006.235.438.438,0,0,0,.066.016l.272.055a5.521,5.521,0,0,1,1.1.307,1.971,1.971,0,0,1,1.077,1.741v.063a5.465,5.465,0,0,1-.443,1.459,23.948,23.948,0,0,1-4.309,6.259l-.049.049a5.529,5.529,0,0,1-.553.485,1.921,1.921,0,0,1-1.156.377,2.017,2.017,0,0,1-1.236-.408c-.063-.063-.331-.3-.554-.518a23.979,23.979,0,0,1-4.371-6.4A5.245,5.245,0,0,1,0,10.927a2.173,2.173,0,0,1,.238-.988,2.048,2.048,0,0,1,.982-.878,10.635,10.635,0,0,1,1.156-.283A25.678,25.678,0,0,1,6.511,8.512ZM6.519,0A1.641,1.641,0,0,1,8.168,1.633L7.812,5.652a1.294,1.294,0,0,1-2.587,0L4.87,1.633A1.641,1.641,0,0,1,6.519,0Z" transform="translate(0 0)" fill="#cc6a4f"/>
      </g>
    </g>
    <g id="Iconly_Bold_Arrow---Down-2" data-name="Iconly/Bold/Arrow---Down" transform="translate(658.696 277.032)">
      <g id="Arrow---Down-2" data-name="Arrow---Down">
        <path id="Path_473-2" data-name="Path 473" d="M6.511,11.043a29.648,29.648,0,0,0,4.006-.235.438.438,0,0,1,.066-.016l.272-.055a5.521,5.521,0,0,0,1.1-.307A1.971,1.971,0,0,0,13.036,8.69V8.628a5.465,5.465,0,0,0-.443-1.459A23.948,23.948,0,0,0,8.284.91L8.235.861A5.529,5.529,0,0,0,7.683.377,1.921,1.921,0,0,0,6.527,0,2.017,2.017,0,0,0,5.29.408c-.063.063-.331.3-.554.518a23.979,23.979,0,0,0-4.371,6.4A5.245,5.245,0,0,0,0,8.628a2.173,2.173,0,0,0,.238.988,2.048,2.048,0,0,0,.982.878,10.635,10.635,0,0,0,1.156.283A25.677,25.677,0,0,0,6.511,11.043Zm.008,8.512a1.641,1.641,0,0,0,1.649-1.633L7.812,13.9a1.294,1.294,0,0,0-2.587,0L4.87,17.922A1.641,1.641,0,0,0,6.519,19.555Z" transform="translate(0)" fill="#cc6a4f"/>
      </g>
    </g>
    <g id="Group_176" data-name="Group 176" transform="translate(727.952 332.844) rotate(90)">
      <g id="Iconly_Bold_Arrow---Down-3" data-name="Iconly/Bold/Arrow---Down" transform="translate(1.63 108.365)">
        <g id="Arrow---Down-3" data-name="Arrow---Down" transform="translate(0 0)">
          <path id="Path_473-3" data-name="Path 473" d="M6.511,8.512a29.648,29.648,0,0,1,4.006.235.438.438,0,0,0,.066.016l.272.055a5.521,5.521,0,0,1,1.1.307,1.971,1.971,0,0,1,1.077,1.741v.063a5.465,5.465,0,0,1-.443,1.459,23.948,23.948,0,0,1-4.309,6.259l-.049.049a5.529,5.529,0,0,1-.553.485,1.921,1.921,0,0,1-1.156.377,2.017,2.017,0,0,1-1.236-.408c-.063-.063-.331-.3-.554-.518a23.979,23.979,0,0,1-4.371-6.4A5.245,5.245,0,0,1,0,10.927a2.173,2.173,0,0,1,.238-.988,2.048,2.048,0,0,1,.982-.878,10.635,10.635,0,0,1,1.156-.283A25.678,25.678,0,0,1,6.511,8.512ZM6.519,0A1.641,1.641,0,0,1,8.168,1.633L7.812,5.652a1.294,1.294,0,0,1-2.587,0L4.87,1.633A1.641,1.641,0,0,1,6.519,0Z" transform="translate(0)" fill="#cc6a4f"/>
        </g>
      </g>
      <g id="Iconly_Bold_Arrow---Down-4" data-name="Iconly/Bold/Arrow---Down" transform="translate(0 0)">
        <g id="Arrow---Down-4" data-name="Arrow---Down">
          <path id="Path_473-4" data-name="Path 473" d="M6.511,11.043a29.648,29.648,0,0,0,4.006-.235.438.438,0,0,1,.066-.016l.272-.055a5.521,5.521,0,0,0,1.1-.307A1.971,1.971,0,0,0,13.036,8.69V8.628a5.465,5.465,0,0,0-.443-1.459A23.948,23.948,0,0,0,8.284.91L8.235.861A5.529,5.529,0,0,0,7.683.377,1.921,1.921,0,0,0,6.527,0,2.017,2.017,0,0,0,5.29.408c-.063.063-.331.3-.554.518a23.979,23.979,0,0,0-4.371,6.4A5.245,5.245,0,0,0,0,8.628a2.173,2.173,0,0,0,.238.988,2.048,2.048,0,0,0,.982.878,10.635,10.635,0,0,0,1.156.283A25.677,25.677,0,0,0,6.511,11.043Zm.008,8.512a1.641,1.641,0,0,0,1.649-1.633L7.812,13.9a1.294,1.294,0,0,0-2.587,0L4.87,17.922A1.641,1.641,0,0,0,6.519,19.555Z" fill="#cc6a4f"/>
        </g>
      </g>
    </g>
    <g id="Group_178" data-name="Group 178" transform="translate(704.033 291.803) rotate(45)">
      <g id="Iconly_Bold_Arrow---Down-5" data-name="Iconly/Bold/Arrow---Down" transform="translate(1.63 108.365)">
        <g id="Arrow---Down-5" data-name="Arrow---Down" transform="translate(0 0)">
          <path id="Path_473-5" data-name="Path 473" d="M6.511,8.512a29.648,29.648,0,0,1,4.006.235.438.438,0,0,0,.066.016l.272.055a5.521,5.521,0,0,1,1.1.307,1.971,1.971,0,0,1,1.077,1.741v.063a5.465,5.465,0,0,1-.443,1.459,23.948,23.948,0,0,1-4.309,6.259l-.049.049a5.529,5.529,0,0,1-.553.485,1.921,1.921,0,0,1-1.156.377,2.017,2.017,0,0,1-1.236-.408c-.063-.063-.331-.3-.554-.518a23.979,23.979,0,0,1-4.371-6.4A5.245,5.245,0,0,1,0,10.927a2.173,2.173,0,0,1,.238-.988,2.048,2.048,0,0,1,.982-.878,10.635,10.635,0,0,1,1.156-.283A25.678,25.678,0,0,1,6.511,8.512ZM6.519,0A1.641,1.641,0,0,1,8.168,1.633L7.812,5.652a1.294,1.294,0,0,1-2.587,0L4.87,1.633A1.641,1.641,0,0,1,6.519,0Z" transform="translate(0)" fill="#cc6a4f"/>
        </g>
      </g>
      <g id="Iconly_Bold_Arrow---Down-6" data-name="Iconly/Bold/Arrow---Down" transform="translate(0 0)">
        <g id="Arrow---Down-6" data-name="Arrow---Down">
          <path id="Path_473-6" data-name="Path 473" d="M6.511,11.043a29.648,29.648,0,0,0,4.006-.235.438.438,0,0,1,.066-.016l.272-.055a5.521,5.521,0,0,0,1.1-.307A1.971,1.971,0,0,0,13.036,8.69V8.628a5.465,5.465,0,0,0-.443-1.459A23.948,23.948,0,0,0,8.284.91L8.235.861A5.529,5.529,0,0,0,7.683.377,1.921,1.921,0,0,0,6.527,0,2.017,2.017,0,0,0,5.29.408c-.063.063-.331.3-.554.518a23.979,23.979,0,0,0-4.371,6.4A5.245,5.245,0,0,0,0,8.628a2.173,2.173,0,0,0,.238.988,2.048,2.048,0,0,0,.982.878,10.635,10.635,0,0,0,1.156.283A25.677,25.677,0,0,0,6.511,11.043Zm.008,8.512a1.641,1.641,0,0,0,1.649-1.633L7.812,13.9a1.294,1.294,0,0,0-2.587,0L4.87,17.922A1.641,1.641,0,0,0,6.519,19.555Z" fill="#cc6a4f"/>
        </g>
      </g>
    </g>
    <g id="Group_177" data-name="Group 177" transform="translate(713.996 380.219) rotate(135)">
      <g id="Iconly_Bold_Arrow---Down-7" data-name="Iconly/Bold/Arrow---Down" transform="translate(1.63 108.365)">
        <g id="Arrow---Down-7" data-name="Arrow---Down" transform="translate(0 0)">
          <path id="Path_473-7" data-name="Path 473" d="M6.511,8.512a29.648,29.648,0,0,1,4.006.235.438.438,0,0,0,.066.016l.272.055a5.521,5.521,0,0,1,1.1.307,1.971,1.971,0,0,1,1.077,1.741v.063a5.465,5.465,0,0,1-.443,1.459,23.948,23.948,0,0,1-4.309,6.259l-.049.049a5.529,5.529,0,0,1-.553.485,1.921,1.921,0,0,1-1.156.377,2.017,2.017,0,0,1-1.236-.408c-.063-.063-.331-.3-.554-.518a23.979,23.979,0,0,1-4.371-6.4A5.245,5.245,0,0,1,0,10.927a2.173,2.173,0,0,1,.238-.988,2.048,2.048,0,0,1,.982-.878,10.635,10.635,0,0,1,1.156-.283A25.678,25.678,0,0,1,6.511,8.512ZM6.519,0A1.641,1.641,0,0,1,8.168,1.633L7.812,5.652a1.294,1.294,0,0,1-2.587,0L4.87,1.633A1.641,1.641,0,0,1,6.519,0Z" transform="translate(0 0)" fill="#cc6a4f"/>
        </g>
      </g>
      <g id="Iconly_Bold_Arrow---Down-8" data-name="Iconly/Bold/Arrow---Down" transform="translate(0 0)">
        <g id="Arrow---Down-8" data-name="Arrow---Down">
          <path id="Path_473-8" data-name="Path 473" d="M6.511,11.043a29.648,29.648,0,0,0,4.006-.235.438.438,0,0,1,.066-.016l.272-.055a5.521,5.521,0,0,0,1.1-.307A1.971,1.971,0,0,0,13.036,8.69V8.628a5.465,5.465,0,0,0-.443-1.459A23.948,23.948,0,0,0,8.284.91L8.235.861A5.529,5.529,0,0,0,7.683.377,1.921,1.921,0,0,0,6.527,0,2.017,2.017,0,0,0,5.29.408c-.063.063-.331.3-.554.518a23.979,23.979,0,0,0-4.371,6.4A5.245,5.245,0,0,0,0,8.628a2.173,2.173,0,0,0,.238.988,2.048,2.048,0,0,0,.982.878,10.635,10.635,0,0,0,1.156.283A25.677,25.677,0,0,0,6.511,11.043Zm.008,8.512a1.641,1.641,0,0,0,1.649-1.633L7.812,13.9a1.294,1.294,0,0,0-2.587,0L4.87,17.922A1.641,1.641,0,0,0,6.519,19.555Z" fill="#cc6a4f"/>
        </g>
      </g>
    </g>
  </g>
</svg>
