<svg xmlns="http://www.w3.org/2000/svg" xmlns:xlink="http://www.w3.org/1999/xlink" width="512" height="512" viewBox="0 0 512 512">
  <defs>
    <clipPath id="clip-Custom_Size_5">
      <rect width="512" height="512"/>
    </clipPath>
  </defs>
  <g id="Custom_Size_5" data-name="Custom Size – 5" clip-path="url(#clip-Custom_Size_5)">
    <rect width="512" height="512" fill="#fff"/>
    <path id="Path_80" data-name="Path 80" d="M2695,98V255s-6,97-107,87-79,83-67,80" transform="translate(-2328)" fill="none" opacity="0.15"/>
    <g id="Group_13" data-name="Group 13" transform="translate(-2840.89 30.113)">
      <path id="Path_95" data-name="Path 95" d="M2476,102.333C2477.333,92,2476,196,2476,196v78.667s-8,88,73.333,70.667,128,32,144-108,0-135,0-135-72,44.333-116,29.667S2474.667,112.667,2476,102.333Z" transform="translate(514.886 -28.597)" fill="#ffc89f" stroke="#000" stroke-width="1"/>
      <path id="Path_117" data-name="Path 117" d="M3190.667,0C3148,14.667,3240,36,3240,36V164l-10.667,118.667L3176,357.333l-70.667,21.333-28-8,16,62.667h0c5.072,4.9,25.119,28.764,32,24,17.333-12,0-64,0-64l50.667-8,64-38.667s36-52,40-90.667,0-108,0-108,5.333-94.667-8-112S3233.333-14.667,3190.667,0Z" fill="#ab6912"/>
      <path id="Path_118" data-name="Path 118" d="M2956,47s1.333,265-12,265,26.667,24,40-37.333S2984,132,2984,132V61.333Z" fill="#ab6912"/>
      <path id="Path_120" data-name="Path 120" d="M2769,224s13,96.5-48,151.5" transform="translate(512 -28)" fill="none" stroke="#000" stroke-linecap="round" stroke-width="15"/>
      <path id="Path_122" data-name="Path 122" d="M2612,422.071S2634,480,2612,485s-31-20-31-20" transform="translate(512 -28)" fill="none" stroke="#000" stroke-linecap="round" stroke-width="15"/>
      <path id="Path_123" data-name="Path 123" d="M2702,390s-69,52-133,10" transform="translate(512 -28)" fill="none" stroke="#000" stroke-linecap="round" stroke-width="15"/>
      <path id="Path_124" data-name="Path 124" d="M2446.667,29.333S2409.333,46.667,2405.333,88s0,218.667,0,218.667,9.333,28,24,29.333,17.333-52,17.333-52V72s41.333,56,132,58.667S2697.333,96,2697.333,96V250.667s-4,93.333-78.667,90.667-97.333,6.667-105.333,53.333S2578.667,464,2578.667,464h0S2600,478.667,2572,413.333s33.333,77.333,146.667-72c15.557-20.5,15.626-40.3,18.667-57.333,5-28,5.091-50.129,5.333-70.667.654-55.317-5.333-82.667-5.333-82.667S2768,53.333,2686.667,29.333c-11.212-3.308-26.941,5-33.333,9.333-6.532,4.428-3.478,5.157-10.667,6.667-32.85,6.9-53.333,13.333-53.333,13.333l-84-29.333Z" transform="translate(512 -28)" fill="#ee9c31"/>
      <path id="Path_125" data-name="Path 125" d="M2400,170V296s-2.431,17.329,5,29c6.548,10.286,22.484,15,33,15,22,0,38-12,38-44V248" transform="translate(512 -28)" fill="none" stroke="#000" stroke-linecap="round" stroke-width="15"/>
      <path id="Path_126" data-name="Path 126" d="M2399.62,145V86.667S2421,4,2496,30s86,44,167,0c36.693-19.932,74.226.112,91,22,19.852,25.9,15,57,15,57v89" transform="translate(512 -28)" fill="none" stroke="#000" stroke-linecap="round" stroke-width="15"/>
      <path id="Path_127" data-name="Path 127" d="M2476,152s24,10,37-10" transform="translate(512 -28)" fill="none" stroke="#000" stroke-linecap="round" stroke-width="15"/>
      <path id="Path_128" data-name="Path 128" d="M2506,247s-59,29-14,88c15.075,19.765,40.925,15.27,57,13,31.231-4.409,50.01-29.71,54-47" transform="translate(512 -28)" fill="none" stroke="#000" stroke-linecap="round" stroke-width="15"/>
      <path id="Path_129" data-name="Path 129" d="M2486.393,257.354s-8.378,15.743-9.214,33.844a49.012,49.012,0,0,0,9.441,27.42c12.532,17.732,34.652,22.52,48.015,20.484,25.962-3.955,45.306-24.5,48.623-40.01" transform="translate(5330.145 1303.824) rotate(-161)" fill="none" stroke="#000" stroke-linecap="round" stroke-width="15"/>
      <path id="Path_130" data-name="Path 130" d="M2478.745,262.394s-3.827,12.115-1.141,25.034c1.658,7.977,5.172,19.729,11.836,24.267,9.272,12.167,26.174,18.689,37.822,16.914,22.63-3.447,39.491-21.354,42.382-34.875" transform="matrix(-0.899, -0.438, 0.438, -0.899, 5264.855, 1599.448)" fill="none" stroke="#000" stroke-linecap="round" stroke-width="15"/>
      <path id="Path_131" data-name="Path 131" d="M2682.462,185S2660.67,139,2630,171" transform="translate(520.538 -29.178)" fill="none" stroke="#000" stroke-linecap="round" stroke-width="15"/>
      <path id="Path_132" data-name="Path 132" d="M2635.5,129.667s-42.039,26.978-43.5,68" transform="translate(512 -34.667)" fill="none" stroke="#000" stroke-linecap="round" stroke-width="15"/>
      <path id="Path_133" data-name="Path 133" d="M2620.5,129.667s-27.543,23.341-28.5,58.833" transform="matrix(0.998, -0.07, 0.07, 0.998, 459.302, 153.607)" fill="none" stroke="#000" stroke-linecap="round" stroke-width="15"/>
      <path id="Path_134" data-name="Path 134" d="M2643.722,219,2630,193" transform="matrix(0.899, 0.438, -0.438, 0.899, 860.948, -1163.075)" fill="none" stroke="#000" stroke-linecap="round" stroke-width="15"/>
      <path id="Path_135" data-name="Path 135" d="M2453,75s126,123,262,0" transform="translate(512 -28)" fill="none" stroke="#000" stroke-linecap="round" stroke-width="15"/>
      <path id="Path_136" data-name="Path 136" d="M2695,102.333V253s0,89-80,88-86,15-86,15-45,35,9,88c12.906,12.667,28.9,18.08,46.072,19" transform="translate(512 -28)" fill="none" stroke="#000" stroke-linecap="round" stroke-width="15"/>
      <path id="Path_137" data-name="Path 137" d="M2472,98V219" transform="translate(512 -28)" fill="none" stroke="#000" stroke-linecap="round" stroke-width="15"/>
    </g>
  </g>
</svg>
