<svg xmlns="http://www.w3.org/2000/svg" xmlns:xlink="http://www.w3.org/1999/xlink" width="512" height="512" viewBox="0 0 512 512">
  <defs>
    <clipPath id="clip-Custom_Size_4">
      <rect width="512" height="512"/>
    </clipPath>
  </defs>
  <g id="Custom_Size_4" data-name="Custom Size – 4" clip-path="url(#clip-Custom_Size_4)">
    <rect width="512" height="512" fill="#fff"/>
    <g id="Group_4" data-name="Group 4">
      <g id="Group_24" data-name="Group 24">
        <g id="Rectangle_1" data-name="Rectangle 1" transform="translate(131.531 78.241)" fill="#72d8ff" stroke="#000" stroke-width="15">
          <rect width="53" height="129" rx="15" stroke="none"/>
          <rect x="7.5" y="7.5" width="38" height="114" rx="7.5" fill="none"/>
        </g>
        <path id="Path_31" data-name="Path 31" d="M2133.333,277.333c-2.416-15.1-21.932-34.041-41.333-40-23.824-7.318-48,0-48,0S2004,216,1981.333,216,1948,165.333,1888,192s-30.667,128-20,140,17.333,97.333,162.667,137.333c44.036,12.12,76.094-8.758,94.667-26.667,42.458-40.94,28-118.667,28-118.667Z" transform="translate(-1746.016 13)" fill="#d84165" stroke="#090101" stroke-width="15"/>
        <g id="Group_3" data-name="Group 3" transform="translate(-2029.469 -518.759)">
          <path id="Path_44" data-name="Path 44" d="M2319.333,696.667h0L2306,716.759l-12,33L2331.333,760,2380,764.667s10.667-25.333-11.333-52.667S2319.333,696.667,2319.333,696.667Z" fill="#fe8f8d" stroke="#000" stroke-linecap="round" stroke-width="15"/>
          <path id="Path_46" data-name="Path 46" d="M2367.333,704l9.333-10" fill="none" stroke="#090101" stroke-linecap="round" stroke-width="15"/>
          <path id="Path_48" data-name="Path 48" d="M2367.333,704l9.333-10" transform="matrix(0.788, 0.616, -0.616, 0.788, 950.527, -1278.168)" fill="none" stroke="#090101" stroke-linecap="round" stroke-width="15"/>
          <path id="Path_51" data-name="Path 51" d="M2154,867.759a63.657,63.657,0,0,1,18-45.092c6.768-6.872,33.333-22.667,43.333-28C2250,773.333,2262,744.759,2262,744.759s-58-66.092-108-15.426S2154,867.759,2154,867.759Z" fill="#ff5d5d" stroke="#000" stroke-linecap="round" stroke-width="15"/>
          <path id="Path_53" data-name="Path 53" d="M2367.333,704l9.333-10" transform="translate(35.205 1638.567) rotate(-42)" fill="none" stroke="#090101" stroke-linecap="round" stroke-width="15"/>
          <path id="Path_54" data-name="Path 54" d="M2367.333,704l9.333-10" transform="matrix(0.97, -0.242, 0.242, 0.97, -167.312, 472.43)" fill="none" stroke="#090101" stroke-linecap="round" stroke-width="15"/>
          <path id="Path_55" data-name="Path 55" d="M2240.416,711.545c-17.421,6.991-28.667-26.993-28.667-26.993s-16.384-77.708,47.992-99.457c25.042-8.46,43.809,1.349,55.342,9.61,17.548,12.568,23.333,31.631,23.333,31.631s-54.084,12.513-72.667,35.5S2257.837,704.554,2240.416,711.545Z" transform="translate(-1.671 1.961)" fill="#ff8f5d" stroke="#000" stroke-linecap="round" stroke-width="15"/>
          <circle id="Ellipse_2" data-name="Ellipse 2" cx="9.5" cy="9.5" r="9.5" transform="translate(2196.469 739.759)"/>
        </g>
        <path id="Path_32" data-name="Path 32" d="M2306,960.667s-57.333-12-80.667-44" transform="translate(-2021.996 -531)" fill="none" stroke="#000" stroke-linecap="round" stroke-width="15"/>
        <path id="Path_33" data-name="Path 33" d="M2304.5,748.5l-39-10-18.5-19s5.981-37.988,29-65.5c14.1-16.854,33.313-26.535,67-30,31.675-3.258,29-5,42.5,0,10,3,0,35,0,35s-53,1.5-67.5,37S2304.5,748.5,2304.5,748.5Z" transform="translate(-2034.469 -512)" fill="#72ffff" stroke="#000" stroke-width="15"/>
        <g id="Ellipse_1" data-name="Ellipse 1" transform="translate(174.531 357)" fill="#fff" stroke="#000" stroke-width="15">
          <circle cx="10" cy="10" r="10" stroke="none"/>
          <circle cx="10" cy="10" r="2.5" fill="none"/>
        </g>
      </g>
    </g>
  </g>
</svg>
