<svg xmlns="http://www.w3.org/2000/svg" xmlns:xlink="http://www.w3.org/1999/xlink" width="512" height="512" viewBox="0 0 512 512">
  <defs>
    <clipPath id="clip-Custom_Size_3">
      <rect width="512" height="512"/>
    </clipPath>
  </defs>
  <g id="Custom_Size_3" data-name="Custom Size – 3" clip-path="url(#clip-Custom_Size_3)">
    <rect width="512" height="512" fill="#fff"/>
    <g id="Group_6" data-name="Group 6" transform="translate(-1146 83)">
      <g id="Group_7" data-name="Group 7">
        <path id="Path_19" data-name="Path 19" d="M1381.5,24H1418V351h-20s-4.5-26-13.5-30c-3.681-1.636-3-34.352-3-69,0-49.417,0-109,0-109s0-17.5-16.5-20.5c-3.96-.72-10.87.161-16.5,0-16.668-.477-35.5,0-35.5,0s8.5-20.5,8.5-28.5c0-1.824,16.724-.6,21.5,0,5.384.674,12.579.135,18.5,0,4.628-.1,10.885-3.157,14.5-6,3.435-2.692,4.091-5.524,5.5-15C1387,36,1381.5,24,1381.5,24Z" transform="translate(-18.007 -91.25)" fill="#d63e3e" stroke="#000" stroke-width="12"/>
        <path id="Path_20" data-name="Path 20" d="M1349.5,24H1313V351h23.5s4-26,13-30c3.681-1.636,0-34.352,0-69,0-49.417,0-102.5,0-102.5s3.5-24,20-27c3.96-.72,16.37.161,22,0,16.668-.477,26.5,0,26.5,0s-5-20.5-5-28.5c0-1.824-20.224-.6-25,0-5.384.674-12.579.135-18.5,0-4.628-.1-9.885-3.657-13.5-6.5-3.435-2.692-5.091-7.024-6.5-16.5-1.413-9.509.25-19.85,0-26.333C1348.814,26.905,1349.5,24,1349.5,24Z" transform="translate(88.993 -91.25)" fill="#a71414" stroke="#000" stroke-width="12"/>
        <path id="Path_21" data-name="Path 21" d="M1527,124s16.5,18.5,0,45.5-1,61.5,3.5,69,26.5,34,65,17,64-85,61-110S1642.5,65,1603,43s-67,3.5-67,3.5S1512,69,1521.5,104,1527,124,1527,124Z" transform="translate(-18.007 -91.25)" fill="#cc867d" stroke="#000" stroke-width="12"/>
        <path id="Path_22" data-name="Path 22" d="M1649.014,124s-16.5,18.5,0,45.5,1,61.5-3.5,69-26.5,34-65,17-64-85-61-110,14-80.5,53.5-102.5,67,3.5,67,3.5,24,22.5,14.5,57.5S1649.014,124,1649.014,124Z" transform="translate(-354.007 -91.25)" fill="#cc867d" stroke="#000" stroke-width="12"/>
        <path id="Path_23" data-name="Path 23" d="M1315.5,123s31.5,1,35.5,38.5c1.572,14.738.172,34.354,0,60-.262,38.982,0,84,0,84s43,3,46.5,46.5c.165,2.053,2.884.6,0,0-10.552-2.188-36.5,0-36.5,0s-24-5.619-35.5-27c-3.113-5.787-2.505-10.107-3.5-19.5-1.571-14.832-.049-28.236,0-40,.089-21.242,0-35.5,0-35.5s2-42-10-63.5c-3.084-5.525-5.949-14.073-6.5-19.5C1304.009,132.347,1315.5,123,1315.5,123Z" transform="translate(-18.007 -91.25)" fill="#f17d65" stroke="#000" stroke-width="12"/>
        <path id="Path_24" data-name="Path 24" d="M1389.487,123s-31.5,1-35.5,38.5c-1.572,14.738-.172,34.354,0,60,.262,38.982,0,84,0,84s-43,3-46.5,46.5c-.454,5.64-4.535.944,0,0,10.552-2.188,36.5,0,36.5,0s24-5.619,35.5-27c3.113-5.787,2.505-10.107,3.5-19.5,1.571-14.832.049-28.236,0-40-.089-21.242,0-35.5,0-35.5s-2-42,10-63.5c3.084-5.525,5.949-14.073,6.5-19.5C1400.978,132.347,1389.487,123,1389.487,123Z" transform="translate(116.993 -91.25)" fill="#f17d65" stroke="#000" stroke-width="12"/>
        <path id="Path_25" data-name="Path 25" d="M1358.5,353.061S1301,362.5,1317,424.5c2.834,10.981,6.179,15.45,12.5,21.5,7.41,7.1,18.749,14.629,32,17.5,14.2,3.077,23.265,16.77,27,24,5.326,10.3,8,17,8,17H1445a81.95,81.95,0,0,1,6.612-15.54c4.234-7.763,11.048-17.048,20.888-22.46,20-11,45.5-13,51-45.5s-8.5-63.878-43.5-67.939S1358.5,353.061,1358.5,353.061Z" transform="translate(-18.007 -91.25)" fill="#f89f80" stroke="#000" stroke-width="12"/>
        <path id="Path_26" data-name="Path 26" d="M1534.62,123s50.713,16.333,70.046-29.667" transform="translate(-18.007 -91.25)" fill="none" stroke="#000" stroke-linecap="round" stroke-width="12"/>
        <path id="Path_28" data-name="Path 28" d="M1534.62,96.15s50.713-16.333,70.046,29.667" transform="translate(-18.001 -13.325)" fill="none" stroke="#000" stroke-linecap="round" stroke-width="12"/>
        <path id="Path_27" data-name="Path 27" d="M1604.667,123s-50.713,16.333-70.046-29.667" transform="translate(-317.307 -91.25)" fill="none" stroke="#000" stroke-linecap="round" stroke-width="12"/>
        <path id="Path_29" data-name="Path 29" d="M1604.667,96.15s-50.713-16.333-70.046,29.667" transform="translate(-317.301 -13.325)" fill="none" stroke="#000" stroke-linecap="round" stroke-width="12"/>
        <path id="Path_30" data-name="Path 30" d="M1356,420s-10.566-7.59-12-16c-1.506-8.833,6.368-18.629,12-19.333,10.667-1.333,50,0,50,0" transform="translate(-18.007 -91.25)" fill="none" stroke="#000" stroke-linecap="round" stroke-width="12"/>
      </g>
    </g>
  </g>
</svg>
